<svg width="27" height="24" viewBox="0 0 27 24" fill="none" xmlns="http://www.w3.org/2000/svg">
<path fill-rule="evenodd" clip-rule="evenodd" d="M15.9131 2.49507C16.702 2.16823 17.5474 2 18.4013 2C19.2551 2 20.1006 2.16823 20.8894 2.49507C21.6781 2.82186 22.3947 3.30081 22.9982 3.90455C23.602 4.5081 24.0813 5.22501 24.408 6.01368C24.7349 6.80249 24.9031 7.64797 24.9031 8.50183C24.9031 9.35568 24.7349 10.2012 24.408 10.99C24.0812 11.7787 23.6022 12.4953 22.9984 13.0989C22.9983 13.099 22.9985 13.0989 22.9984 13.0989L14.1584 21.9389C13.7679 22.3295 13.1347 22.3295 12.7442 21.9389L3.90418 13.0989C2.68496 11.8797 2 10.2261 2 8.50183C2 6.77758 2.68496 5.12395 3.90418 3.90472C5.12341 2.68549 6.77704 2.00053 8.50129 2.00053C10.2255 2.00053 11.8792 2.68549 13.0984 3.90472L13.4513 4.25761L13.804 3.90488C13.8041 3.90483 13.804 3.90494 13.804 3.90488C14.4076 3.30106 15.1244 2.82189 15.9131 2.49507ZM18.4013 4C17.8102 4 17.2248 4.11647 16.6787 4.34274C16.1326 4.56902 15.6365 4.90068 15.2186 5.31877L14.1584 6.37893C13.7679 6.76946 13.1347 6.76946 12.7442 6.37893L11.6842 5.31893C10.84 4.47478 9.69511 4.00053 8.50129 4.00053C7.30747 4.00053 6.16255 4.47478 5.3184 5.31893C4.47424 6.16309 4 7.30801 4 8.50183C4 9.69564 4.47424 10.8406 5.3184 11.6847L13.4513 19.8176L21.5842 11.6847C22.0023 11.2668 22.3341 10.7705 22.5604 10.2244C22.7866 9.67828 22.9031 9.09295 22.9031 8.50183C22.9031 7.9107 22.7866 7.32537 22.5604 6.77926C22.3341 6.23316 22.0024 5.73699 21.5843 5.3191C21.1665 4.90101 20.67 4.56902 20.1239 4.34274C19.5778 4.11647 18.9924 4 18.4013 4Z" fill="#D7CBB6"/>
</svg>
