<svg width="485" height="485" viewBox="0 0 485 485" fill="none" xmlns="http://www.w3.org/2000/svg">
<path d="M120.89 400C201.961 400 283.083 400 364.154 400C365.539 400 366.923 399.898 368.32 399.746C386.127 397.663 399.971 382.079 399.971 364.17C399.971 283.099 399.971 201.99 399.971 120.919C399.971 119.877 400.022 118.836 399.869 117.795C397.938 99.035 382.405 85 363.505 85C282.879 85 202.253 85 121.588 85.051C119.403 85.051 117.168 85.19 115.034 85.597C97.177 89.014 85.022 103.798 85.022 121.96V242.57C85.022 282.655 85.022 322.79 85.022 362.887C85.022 364.919 85.174 367.002 85.467 369.034C87.803 386.448 103.286 400 120.89 400ZM303.125 133.468C303.176 126.52 308.536 121.415 315.521 121.364C327.485 121.364 339.386 121.364 351.351 121.364C358.438 121.415 363.696 126.622 363.696 133.773C363.747 145.674 363.747 157.626 363.696 169.54C363.696 176.729 358.438 181.949 351.249 181.949H333.391C327.434 181.949 321.427 181.949 315.432 181.949C308.535 181.949 303.176 176.78 303.125 169.883C303.074 157.727 303.074 145.623 303.125 133.468ZM242.49 181.948C275.983 181.948 303.074 208.976 303.125 242.469C303.125 275.962 276.084 303.053 242.591 303.104C209.06 303.104 181.918 275.961 181.969 242.418C182.02 209.077 209.111 181.948 242.49 181.948ZM121.385 219.797V218.413H148.73C142.621 243.066 145.402 266.677 157.507 289.005C166.334 305.326 178.984 317.976 195.115 327.109C227.02 345.119 266.711 343.379 297.066 322.651C313.895 311.131 325.999 295.801 333.239 276.699C340.427 257.647 341.33 238.201 336.313 218.363H363.696C363.696 218.909 363.696 219.405 363.696 219.951V350.48C363.696 358.672 358.742 363.677 350.55 363.677H148.679C143.814 363.677 139.001 363.728 134.136 363.677C126.553 363.677 121.384 358.521 121.384 350.925C121.385 307.218 121.385 263.501 121.385 219.797Z" fill="black"/>
<path d="M0 0V485H485V0H0ZM455 455H30V30H455V455Z" fill="black"/>
</svg>
