<svg width="535" height="159" viewBox="0 0 535 159" fill="none" xmlns="http://www.w3.org/2000/svg">
<path d="M30.0704 64.3419C33.166 65.5502 35.2731 66.8783 36.4114 68.3163C38.4985 70.9226 39.547 74.4476 39.547 78.8714C39.547 83.5947 38.3387 87.5691 35.9121 90.7845C33.6653 93.6605 30.7394 95.0985 27.1545 95.0985C23.8292 95.0985 21.1031 93.9301 18.9661 91.5834C18.0374 90.5049 17.1886 89.1069 16.3897 87.3993C15.5908 85.7017 15.1914 84.114 15.1914 82.6161C15.1914 81.0783 15.5809 80.3293 16.3398 80.3293C16.879 80.3293 17.3783 80.9884 17.8377 82.2766C18.8962 85.2424 20.0346 87.3594 21.2628 88.6076C23.0303 90.5249 25.1673 91.4636 27.6638 91.4636C29.9106 91.4636 31.9078 90.5049 33.6254 88.5777C35.3429 86.6404 36.2017 83.9342 36.2017 80.4392C36.2017 77.1438 35.4228 74.897 33.8451 73.6487C32.2673 72.4005 29.8207 71.1722 26.4954 69.9639C23.1901 68.7457 20.6737 67.2378 18.9661 65.4403C17.2685 63.6429 16.4097 60.6172 16.4097 56.4031C16.4097 52.0692 17.5081 48.4743 19.6751 45.6183C21.6822 42.8922 24.3285 41.5541 27.5839 41.5541C30.6995 41.5541 33.4256 42.6725 35.7723 44.9193C36.3116 45.6383 36.6112 46.2574 36.701 46.7567C36.7909 47.286 36.8508 48.6441 36.8508 50.821C36.8508 52.4087 36.6112 53.2076 36.1418 53.2076C35.8822 53.2076 35.313 52.4287 34.4342 50.841C33.5555 49.2732 32.5069 47.9051 31.2987 46.7767C30.0904 45.6383 28.5026 45.0691 26.5354 45.0691C24.8478 45.0691 23.3699 45.888 22.0917 47.5057C20.8235 49.1533 20.1844 51.2404 20.1844 53.7868C20.1844 56.3831 20.7036 58.3504 21.7521 59.6885C22.8106 61.0366 24.2586 62.115 26.096 62.8839L30.0704 64.3419ZM44.3203 80.7986L53.8568 45.9579C54.9353 42.7823 55.6642 41.1946 56.0637 41.1946C56.6728 41.1946 57.4817 42.7823 58.4803 45.9579C62.1551 55.9038 65.3406 67.5174 68.0168 80.7986L69.7244 88.3979C70.014 89.5363 70.5332 90.4051 71.2922 90.9943C71.7615 91.3937 72.0012 91.883 72.0012 92.5121C72.0012 93.5506 71.412 94.0799 70.2237 94.0799H64.8213C63.7229 94.0799 63.1736 93.5506 63.1736 92.5121C63.1736 91.7532 63.5431 91.144 64.302 90.6747C65.061 90.1854 65.4404 89.5962 65.4404 88.8772C65.4404 87.6989 64.6615 83.8843 63.1037 77.3935L62.8241 76.0354H48.4345C48.3446 76.5646 48.0949 77.713 47.7155 79.4905C47.336 81.268 47.0364 82.8058 46.8067 84.074C46.5671 85.3622 46.4473 86.3808 46.4473 87.1497C46.4473 88.3879 46.5771 89.2168 46.8367 89.6461C47.0963 90.0855 47.4658 90.5449 47.9851 90.9943C48.4744 91.4636 48.724 91.9629 48.724 92.5121C48.724 93.1512 48.5343 93.5706 48.1349 93.7703C47.7454 93.98 47.0664 94.0799 46.0978 94.0799H43.5314C41.6341 94.0799 40.6854 93.5506 40.6854 92.5121C40.6854 91.863 40.9251 91.2938 41.3944 90.7845C42.0335 90.0456 42.4829 89.1369 42.7525 88.0584L44.3203 80.7986ZM62.1051 72.4005L61.6059 70.7029L55.4945 49.4729L49.1435 72.4005H62.1051ZM80.4692 85.9014C80.4692 87.9685 80.619 89.1768 80.8886 89.5363C81.4678 90.1454 82.7859 90.445 84.8131 90.445H87.1598L91.9929 90.1255C93.1513 89.7859 94.0101 89.4464 94.5493 89.1069C95.0985 88.7574 95.7676 88.1183 96.5665 87.1497C97.3853 86.1711 97.9146 85.6817 98.1343 85.6817C98.6435 85.6817 98.9032 86.1311 98.9032 87.0398C98.9032 87.3794 98.8033 88.368 98.5836 89.9557C98.3739 91.5435 98.2141 92.4722 98.1343 92.7118C97.8347 93.6205 97.1057 94.0799 95.9174 94.0799H75.4862C74.4976 94.0799 73.9984 93.5506 73.9984 92.5121C73.9984 91.7731 74.3279 91.2039 74.977 90.7845C75.7259 90.2553 76.1553 89.8059 76.2851 89.3865C76.4149 88.9871 76.4748 88.0584 76.4748 86.5905V47.5656C76.4748 46.8466 76.0155 46.3173 75.0768 45.9579C74.5775 45.7082 74.228 45.5085 74.0583 45.3387C73.8785 45.149 73.7787 44.7695 73.7787 44.1404C73.7787 43.0819 74.3079 42.5327 75.3464 42.5327H81.328C82.4165 42.5327 82.9657 43.0819 82.9657 44.1404C82.9657 44.8594 82.6062 45.4286 81.8972 45.848C81.2781 46.1476 80.8786 46.547 80.7189 47.0164C80.5591 47.4857 80.4692 48.4543 80.4692 49.9522V85.9014ZM104.885 87.7388C101.989 82.7858 100.541 76.4148 100.541 68.6358C100.541 64.9311 100.91 61.416 101.659 58.1207C102.408 54.8054 103.477 51.9194 104.865 49.4429C106.243 46.9565 107.91 45.0292 109.858 43.6311C111.805 42.2531 113.972 41.5541 116.359 41.5541C121.022 41.5541 124.867 44.1005 127.872 49.2532C130.868 54.1263 132.356 60.5572 132.356 68.526C132.356 73.5189 131.667 78.0325 130.299 82.0868C128.911 86.1511 126.974 89.3266 124.497 91.6334C122.021 93.9401 119.195 95.0985 116.059 95.0985C111.555 95.0985 107.831 92.6419 104.885 87.7388ZM125.096 83.9542C126.954 80.0797 127.872 75.0667 127.872 68.8855C127.872 62.2848 126.954 56.8724 125.096 52.6584C124.058 50.3517 122.759 48.5542 121.232 47.246C119.704 45.9379 118.076 45.2788 116.359 45.2788C115.15 45.2788 113.992 45.6183 112.903 46.2974C111.815 46.9764 110.816 47.9051 109.938 49.1134C109.059 50.3117 108.28 51.7697 107.591 53.4673C105.883 57.5115 105.025 62.5444 105.025 68.526C105.025 74.7073 105.953 79.8899 107.801 84.114C109.908 89.0071 112.724 91.4636 116.259 91.4636C118.016 91.4636 119.664 90.8045 121.222 89.4764C122.779 88.1583 124.068 86.3009 125.096 83.9542ZM160.346 51.1805C160.346 49.363 160.316 48.1947 160.276 47.6655C160.177 46.8666 159.777 46.3373 159.078 46.0577C158.639 45.8081 158.339 45.6383 158.209 45.5385C158.08 45.4685 157.95 45.3188 157.83 45.0891C157.71 44.8594 157.65 44.5598 157.65 44.1404C157.65 43.0819 158.04 42.5327 158.848 42.5327H164.271C165.11 42.5327 165.539 43.0819 165.539 44.1404C165.539 44.8095 165.18 45.3487 164.471 45.848C163.592 46.3573 163.122 46.8466 163.053 47.306C163.003 47.8552 162.983 49.0235 162.983 50.821V91.3537C162.983 92.7318 162.923 93.7004 162.803 94.2696C162.683 94.8188 162.384 95.0985 161.894 95.0985C161.455 95.0985 161.065 94.4194 160.696 93.0513C160.276 91.6733 159.787 90.2753 159.228 88.8972C158.669 87.5092 157.89 85.6418 156.871 83.2751C155.843 80.9085 155.164 79.2808 154.794 78.412C153.706 75.7158 152.587 72.9897 151.469 70.2835C150.36 67.5773 149.292 65.0808 148.273 62.7541C147.255 60.4274 146.196 58.1407 145.078 55.8838C143.96 53.617 142.761 51.4102 141.483 49.2532V87.1497C141.483 88.2681 141.553 89.067 141.693 89.4964C141.843 89.9557 142.192 90.2952 142.771 90.5549C143.71 90.8245 144.179 91.4636 144.179 92.5121C144.179 93.5506 143.81 94.0799 143.051 94.0799H137.069C136.31 94.0799 135.931 93.5506 135.931 92.5121C135.931 91.6134 136.26 91.0342 136.939 90.7845C137.798 90.5049 138.327 90.0656 138.527 89.4764C138.747 88.8972 138.847 87.629 138.847 85.6817V51.1805C138.847 49.4429 138.747 48.1148 138.537 47.246C138.337 46.3972 137.808 45.8081 136.939 45.5085C136.44 45.2988 136.081 45.129 135.881 44.9792C135.681 44.8195 135.571 44.4799 135.571 43.9307C135.571 43.012 136.001 42.5327 136.87 42.5327H141.902C142.422 42.5327 143.71 44.4999 145.777 48.3944C147.844 52.3189 149.562 55.774 150.96 58.7797L153.236 63.553C154.964 67.1779 157.331 72.9298 160.346 80.7986V51.1805ZM190.664 89.0869C190.664 89.4464 190.733 89.7061 190.883 89.8958C191.023 90.0855 191.203 90.2153 191.413 90.3352C191.642 90.445 191.862 90.5549 192.092 90.6747C192.85 91.1041 193.23 91.7132 193.23 92.5121C193.23 93.5506 192.711 94.0799 191.662 94.0799H185.541C184.492 94.0799 183.973 93.5506 183.973 92.5121C183.973 91.6134 184.352 91.0342 185.111 90.7845C185.86 90.4051 186.31 89.9957 186.45 89.5163C186.599 89.047 186.669 88.0784 186.669 86.5905V47.5656C186.669 46.8266 186.23 46.2974 185.341 45.9579C184.862 45.7282 184.532 45.5285 184.333 45.3188C184.143 45.1091 184.043 44.7296 184.043 44.1404C184.043 43.0819 184.542 42.5327 185.541 42.5327H191.592C192.681 42.5327 193.23 43.0819 193.23 44.1404C193.23 44.8594 192.87 45.4286 192.161 45.848C191.462 46.3573 191.043 46.8067 190.913 47.1861C190.783 47.5656 190.704 48.5142 190.664 50.0421V70.4732L198.213 59.0993L202.197 52.5386C202.417 52.1391 202.657 51.7297 202.896 51.2903C203.136 50.8809 203.336 50.4815 203.525 50.1419C203.705 49.7825 203.855 49.383 203.985 48.9636C204.115 48.5342 204.184 48.1348 204.184 47.7753C204.184 47.2061 204.095 46.7867 203.895 46.527C203.705 46.2774 203.406 46.0377 203.006 45.8081C202.607 45.5584 202.327 45.3387 202.127 45.0891C201.938 44.8394 201.838 44.46 201.838 43.9307C201.838 43.012 202.317 42.5327 203.266 42.5327H209.727C210.875 42.5327 211.454 43.012 211.454 43.9307C211.454 44.7096 211.095 45.2988 210.366 45.7282C209.547 46.3174 208.938 46.9265 208.518 47.5456C208.099 48.1747 207.46 49.2532 206.611 50.821L199.341 63.2035L200.42 65.1607C204.973 72.8399 208.179 79.83 210.026 86.1311C210.396 87.4792 210.735 88.4578 211.025 89.0869C211.314 89.6861 211.794 90.1854 212.443 90.5549C212.922 90.8844 213.252 91.144 213.441 91.3537C213.631 91.5834 213.731 91.9928 213.731 92.602C213.731 93.5806 213.202 94.0799 212.163 94.0799H206.461C205.043 94.0799 204.334 93.5506 204.334 92.5121C204.334 92.0927 204.404 91.7831 204.544 91.5834C204.684 91.3737 204.923 91.144 205.233 90.8944C205.543 90.6348 205.762 90.3851 205.912 90.1654C206.052 89.9557 206.122 89.5962 206.122 89.0869C206.122 87.9086 205.513 85.8315 204.304 82.8657C203.106 79.9099 201.738 76.9241 200.21 73.8984C198.682 70.8727 197.474 68.6758 196.575 67.2778L190.664 75.8257V89.0869ZM219.563 87.7388C216.667 82.7858 215.219 76.4148 215.219 68.6358C215.219 64.9311 215.588 61.416 216.337 58.1207C217.086 54.8054 218.155 51.9194 219.543 49.4429C220.911 46.9565 222.588 45.0292 224.536 43.6311C226.483 42.2531 228.65 41.5541 231.037 41.5541C235.7 41.5541 239.545 44.1005 242.55 49.2532C245.546 54.1263 247.034 60.5572 247.034 68.526C247.034 76.3649 245.147 86.0712 239.175 91.6334C236.689 93.9401 233.873 95.0985 230.737 95.0985C226.233 95.0985 222.509 92.6419 219.563 87.7388ZM239.774 83.9542C241.632 80.0797 242.55 75.0667 242.55 68.8855C242.55 62.2848 241.632 56.8724 239.774 52.6584C238.736 50.3517 237.438 48.5542 235.91 47.246C234.382 45.9379 232.754 45.2788 231.037 45.2788C229.828 45.2788 228.67 45.6183 227.581 46.2974C226.493 46.9764 225.494 47.9051 224.616 49.1134C223.737 50.3117 222.958 51.7697 222.269 53.4673C220.561 57.5115 219.703 62.5444 219.703 68.526C219.703 74.7073 220.631 79.8899 222.479 84.114C224.576 89.0071 227.402 91.4636 230.937 91.4636C232.694 91.4636 234.342 90.8045 235.9 89.4764C237.447 88.1583 238.746 86.3009 239.774 83.9542ZM264.759 64.3419C267.855 65.5502 269.972 66.8783 271.11 68.3163C273.197 70.9226 274.236 74.4476 274.236 78.8714C274.236 83.5947 273.027 87.5691 270.611 90.7845C268.354 93.6605 265.438 95.0985 261.843 95.0985C258.518 95.0985 255.792 93.9301 253.655 91.5834C252.726 90.5049 251.877 89.1069 251.078 87.3993C250.289 85.7017 249.88 84.114 249.88 82.6161C249.88 81.0783 250.279 80.3293 251.038 80.3293C251.568 80.3293 252.067 80.9884 252.526 82.2766C253.585 85.2424 254.723 87.3594 255.961 88.6076C257.729 90.5249 259.866 91.4636 262.352 91.4636C264.609 91.4636 266.596 90.5049 268.324 88.5777C270.041 86.6404 270.89 83.9342 270.89 80.4392C270.89 77.1438 270.111 74.897 268.534 73.6487C266.956 72.4005 264.509 71.1722 261.184 69.9639C257.879 68.7457 255.362 67.2378 253.655 65.4403C251.957 63.6429 251.108 60.6172 251.108 56.4031C251.108 52.0692 252.197 48.4743 254.364 45.6183C256.371 42.8922 259.017 41.5541 262.282 41.5541C265.388 41.5541 268.114 42.6725 270.461 44.9193C271 45.6383 271.31 46.2574 271.39 46.7567C271.489 47.286 271.549 48.6441 271.549 50.821C271.549 52.4087 271.31 53.2076 270.83 53.2076C270.571 53.2076 270.001 52.4287 269.123 50.841C268.244 49.2732 267.205 47.9051 265.997 46.7767C264.789 45.6383 263.191 45.0691 261.224 45.0691C259.536 45.0691 258.058 45.888 256.79 47.5057C255.522 49.1533 254.883 51.2404 254.883 53.7868C254.883 56.3831 255.402 58.3504 256.441 59.6885C257.499 61.0366 258.947 62.115 260.785 62.8839L264.759 64.3419ZM298.861 61.7555L303.215 45.5085C303.404 44.5399 303.614 43.8209 303.824 43.3116C304.033 42.8023 304.373 42.5327 304.842 42.5327H310.524C311.343 42.5327 311.753 43.1618 311.753 44.3701C311.753 45.0292 311.343 45.5285 310.524 45.848C309.795 46.1676 309.306 46.567 309.086 46.9764C308.867 47.4158 308.757 48.2846 308.757 49.5727V89.0869C308.757 89.766 309.306 90.2952 310.394 90.6747C310.884 90.9144 311.213 91.1241 311.403 91.3138C311.583 91.5235 311.673 91.903 311.673 92.5121C311.673 93.5506 311.153 94.0799 310.115 94.0799H304.133C303.135 94.0799 302.635 93.5506 302.635 92.5121C302.635 91.7532 302.975 91.184 303.634 90.7845C304.193 90.425 304.533 90.0256 304.653 89.5962C304.782 89.1568 304.842 88.1583 304.842 86.5905V49.6826L298.511 73.439L295.166 84.3137C294.587 86.3608 294.028 87.3793 293.518 87.3793C293.159 87.3793 292.729 86.7003 292.24 85.3622L287.477 69.225L283.223 52.0692L282.284 48.5842V88.8772C282.364 89.6162 282.923 90.1954 283.932 90.6747C284.871 91.1041 285.33 91.7831 285.33 92.7118C285.33 93.6205 284.94 94.0799 284.132 94.0799H278.869C277.83 94.0799 277.311 93.5506 277.311 92.5121C277.311 91.7332 277.651 91.164 278.37 90.7845C279.029 90.3152 279.418 89.9158 279.538 89.5563C279.658 89.2168 279.718 88.4379 279.718 87.2695V48.4344C279.718 47.266 279.578 46.567 279.308 46.3173C279.029 46.0877 278.539 45.828 277.84 45.5385C277.141 45.2389 276.802 44.7895 276.802 44.1404C276.802 43.0819 277.201 42.5327 278.02 42.5327H283.932C284.241 42.5327 284.501 42.7424 284.711 43.1418C284.93 43.5413 285.1 44.0106 285.25 44.5399C285.39 45.0691 285.53 45.6583 285.699 46.3173L294.028 77.8528L298.861 61.7555ZM321.159 81.937C321.159 85.1325 321.379 87.3594 321.858 88.5876C322.328 89.8159 323.396 90.445 325.054 90.445H331.674C333.472 90.445 335.249 89.1568 337.017 86.5905C337.187 86.3608 337.356 86.0812 337.576 85.7716C337.786 85.4521 337.975 85.2024 338.145 85.0327C338.315 84.8429 338.485 84.773 338.655 84.773C339.124 84.773 339.364 85.1824 339.364 86.0213C339.364 86.3608 339.294 87.0998 339.174 88.2282C339.044 89.3466 338.974 90.1455 338.954 90.5549C338.734 92.3224 338.555 93.321 338.405 93.5806C338.235 93.8702 337.696 94.02 336.747 94.0799H316.166C315.118 94.0799 314.599 93.5506 314.599 92.5121C314.599 91.6333 314.948 91.0542 315.667 90.7845C316.406 90.3152 316.865 89.8559 317.005 89.4265C317.145 88.9671 317.225 88.0484 317.225 86.5905V49.4729C317.225 47.286 316.755 46.0677 315.797 45.848C314.998 45.5584 314.599 44.9892 314.599 44.1404C314.599 43.0819 315.118 42.5327 316.166 42.5327H335.739C336.577 42.9122 337.097 44.0506 337.286 45.9579L337.656 50.2718C337.656 51.0307 337.416 51.4102 336.947 51.4102C336.647 51.4102 336.388 51.2204 336.158 50.821C334.57 47.7154 332.883 46.1676 331.105 46.1676H324.045C322.957 46.1676 322.208 46.587 321.788 47.3958C321.359 48.2247 321.159 49.6626 321.159 51.7497V64.5716H329.617C330.945 64.5716 331.934 64.0823 332.603 63.0937C332.963 62.4945 333.292 62.1849 333.592 62.1849C334.171 62.1849 334.47 63.8925 334.47 67.2778C334.47 69.3348 334.101 70.3534 333.382 70.3534C333.092 70.3534 332.753 70.0538 332.393 69.4547C331.834 68.6159 330.965 68.2064 329.827 68.2064H321.159V81.937ZM355.88 89.0869C355.88 89.8059 356.35 90.3352 357.308 90.6747C358.107 91.0841 358.507 91.7132 358.507 92.5121C358.507 93.5506 357.987 94.0799 356.949 94.0799H350.747C349.709 94.0799 349.19 93.5506 349.19 92.5121C349.19 91.6134 349.569 91.0342 350.328 90.7845C351.077 90.4051 351.526 89.9957 351.666 89.5163C351.806 89.047 351.896 88.0784 351.896 86.5905V50.5014C351.896 48.7539 351.776 47.6055 351.556 47.0363C351.347 46.4472 350.827 46.1676 349.969 46.1676C348.97 46.1676 347.742 46.3972 346.264 46.8666C345.105 47.306 343.767 48.4743 342.269 50.3816C342.13 50.6113 341.97 50.841 341.81 51.0706C341.64 51.2903 341.491 51.4801 341.331 51.6298C341.171 51.7796 341.011 51.8595 340.851 51.8595C340.292 51.8595 340.003 51.3303 340.003 50.2718C340.003 49.8923 340.043 49.3231 340.132 48.5842C340.172 48.0349 340.232 47.306 340.302 46.3373C340.382 45.3687 340.502 44.4999 340.682 43.731C340.851 42.9321 341.091 42.5327 341.431 42.5327H365.916C366.435 42.7823 366.715 42.9321 366.755 43.012C366.875 43.2117 366.995 43.6711 367.114 44.3901C367.234 45.0891 367.334 45.8979 367.444 46.8266C367.564 47.7353 367.624 48.2446 367.634 48.3445C367.714 49.1134 367.763 49.7225 367.763 50.1619C367.763 51.1405 367.504 51.6298 366.984 51.6298C366.675 51.6298 366.176 51.1805 365.497 50.2718C364.218 48.5841 363.05 47.4857 362.002 46.9764C360.803 46.4272 359.555 46.1676 358.227 46.1676C357.148 46.1676 356.489 46.4871 356.25 47.1462C356.01 47.7953 355.88 49.0635 355.88 50.9708V89.0869ZM397.162 42.5327C398.3 42.5327 398.879 42.9521 398.879 43.7809C398.879 44.43 398.64 45.0092 398.17 45.5085C397.681 45.9379 397.342 46.2974 397.152 46.587C396.952 46.8865 396.723 47.4757 396.443 48.3445C395.424 51.5799 393.787 55.7141 391.54 60.717C390.401 63.2634 388.384 67.4974 385.498 73.439V89.0869C385.498 89.766 385.958 90.2952 386.896 90.6747C387.715 91.0841 388.115 91.7132 388.115 92.5121C388.115 93.5506 387.595 94.0799 386.557 94.0799H380.505C379.457 94.0799 378.938 93.5506 378.938 92.5121C378.938 91.6333 379.297 91.0542 380.006 90.7845C380.715 90.3152 381.145 89.8559 381.284 89.4265C381.434 88.9671 381.504 88.0484 381.504 86.5905V73.1994C379.697 69.205 377.849 65.0609 375.932 60.8069C374.025 56.5329 372.437 52.5785 371.179 48.9137C370.749 47.4857 370.14 46.5071 369.331 45.9579C368.472 45.2788 368.053 44.6197 368.053 43.9307C368.053 43.012 368.502 42.5327 369.401 42.5327H375.962C376.91 42.5327 377.38 43.042 377.38 44.0306C377.38 44.5598 377.21 44.9593 376.861 45.2389C376.531 45.5285 376.182 45.8081 375.832 46.1076C375.483 46.3972 375.303 46.7867 375.303 47.306C375.303 48.8737 376.451 52.1092 378.708 56.9823C379.517 58.59 380.495 60.717 381.644 63.3433C382.782 65.9696 383.661 67.9768 384.28 69.3348C386.966 63.7927 389.073 59.329 390.601 55.9438C392.319 51.9394 393.178 49.3631 393.178 48.2247C393.178 47.5256 393.068 46.9764 392.838 46.587C392.628 46.2075 392.319 45.868 391.919 45.5984C391.51 45.3188 391.23 45.0691 391.041 44.8394C390.851 44.6198 390.761 44.2702 390.761 43.7809C390.761 42.9521 391.24 42.5327 392.189 42.5327H397.162ZM429.187 55.4744C429.187 57.0622 428.807 57.8511 428.048 57.8511C427.609 57.8511 427.199 56.9623 426.78 55.1549C425.781 51.8595 424.623 49.4429 423.285 47.8851C421.607 45.9978 419.7 45.0691 417.583 45.0691C414.048 45.0691 411.042 47.5256 408.546 52.4287C406.219 56.9324 405.061 62.165 405.061 68.2064C405.061 70.8827 405.29 73.6687 405.75 76.5047C406.209 79.3207 406.888 81.7473 407.767 83.7545C409.914 88.6675 413.119 91.144 417.373 91.144C419.201 91.144 420.848 90.5748 422.296 89.4464C423.744 88.328 425.182 86.6005 426.61 84.3137C426.7 84.2238 426.85 83.9941 427.08 83.5947C427.299 83.2052 427.519 82.8957 427.689 82.686C427.889 82.4863 428.098 82.3864 428.348 82.3864C428.617 82.3864 428.857 82.5562 429.047 82.8757C429.237 83.2152 429.326 83.6147 429.326 84.114C429.326 85.0726 428.797 86.3608 427.729 87.9486C426.65 89.5163 425.712 90.6947 424.913 91.4636C422.466 93.8901 419.71 95.0985 416.664 95.0985C413.738 95.0985 411.052 94.0399 408.566 91.9229C406.099 89.786 404.132 86.8102 402.684 82.9955C401.226 79.1709 400.507 74.9169 400.507 70.2435C400.507 65.2706 401.266 60.5572 402.784 56.1535C404.302 51.7297 406.389 48.1947 409.045 45.5385C411.701 42.8722 414.617 41.5541 417.783 41.5541C420.699 41.5541 423.505 42.6326 426.201 44.8195C427.599 46.0677 428.398 46.9764 428.617 47.5656C428.917 48.1747 429.107 49.1134 429.187 50.3816V55.4744ZM452.254 42.5327C452.923 42.5327 453.432 42.6525 453.792 42.8722C454.131 43.1019 454.311 43.6711 454.311 44.5998C454.311 47.7753 450.876 56.7426 443.996 71.4918L439.013 82.4962C438.983 82.5562 438.713 83.1254 438.214 84.2238C437.715 85.3223 437.305 86.3009 436.996 87.1697C436.676 88.0284 436.516 88.6675 436.516 89.0869C436.516 89.9158 437.016 90.3352 438.014 90.3352H443.427C445.593 90.3352 447.401 90.1055 448.819 89.6162C450.237 89.1369 451.505 88.0085 452.614 86.231C452.743 86.0013 452.933 85.6817 453.163 85.3023C453.392 84.9228 453.612 84.6232 453.832 84.3536C454.052 84.094 454.251 83.9542 454.451 83.9542C454.88 83.9542 455.1 84.3337 455.1 85.0926C455.1 87.1497 454.91 89.6462 454.531 92.602C454.371 93.5806 453.832 94.0799 452.893 94.0799H434.309C432.562 94.0799 431.663 93.2411 431.663 91.5834C431.663 90.8844 431.753 90.1854 431.903 89.4964C432.063 88.7974 432.292 88.0584 432.592 87.2695C432.901 86.4706 433.141 85.8315 433.331 85.3622L436.227 78.5318L446.412 56.1734C446.972 55.035 447.621 53.4473 448.39 51.4102C449.148 49.383 449.528 48.005 449.528 47.306C449.528 46.4671 448.979 46.0577 447.84 46.0577H443.846C441.949 46.0577 440.411 46.2974 439.232 46.7567C437.385 47.286 435.957 48.4943 434.958 50.3816C434.899 50.4615 434.799 50.6313 434.659 50.9109C434.529 51.1805 434.399 51.3902 434.269 51.54C434.15 51.6698 434.02 51.7497 433.89 51.7497C433.401 51.7497 433.161 50.8809 433.161 49.1334C433.201 48.8737 433.281 47.9051 433.391 46.2075C433.491 44.5199 433.61 43.5413 433.74 43.2317C433.98 42.7823 434.529 42.5327 435.378 42.5327H452.254ZM482.441 51.1805C482.441 49.363 482.411 48.1947 482.372 47.6655C482.272 46.8666 481.872 46.3373 481.173 46.0577C480.734 45.8081 480.434 45.6383 480.305 45.5385C480.175 45.4685 480.045 45.3188 479.925 45.0891C479.805 44.8594 479.745 44.5598 479.745 44.1404C479.745 43.0819 480.135 42.5327 480.944 42.5327H486.366C487.205 42.5327 487.634 43.0819 487.634 44.1404C487.634 44.8095 487.285 45.3487 486.566 45.848C485.687 46.3573 485.218 46.8466 485.148 47.306C485.098 47.8552 485.078 49.0235 485.078 50.821V91.3537C485.078 92.7318 485.018 93.7004 484.898 94.2696C484.778 94.8188 484.479 95.0985 483.989 95.0985C483.56 95.0985 483.16 94.4194 482.801 93.0513C482.372 91.6733 481.882 90.2753 481.323 88.8972C480.764 87.5092 479.985 85.6418 478.966 83.2751C477.948 80.9085 477.259 79.2808 476.889 78.412C475.801 75.7158 474.682 72.9897 473.564 70.2835C472.456 67.5773 471.387 65.0808 470.368 62.7541C469.35 60.4274 468.291 58.1407 467.173 55.8838C466.055 53.617 464.856 51.4102 463.578 49.2532V87.1497C463.578 88.2681 463.648 89.067 463.788 89.4964C463.938 89.9557 464.287 90.2952 464.866 90.5549C465.805 90.8245 466.274 91.4636 466.274 92.5121C466.274 93.5506 465.905 94.0799 465.146 94.0799H459.164C458.405 94.0799 458.026 93.5506 458.026 92.5121C458.026 91.6134 458.355 91.0342 459.034 90.7845C459.893 90.5049 460.423 90.0656 460.622 89.4764C460.842 88.8972 460.942 87.629 460.942 85.6817V51.1805C460.942 49.4429 460.842 48.1148 460.632 47.246C460.433 46.3972 459.903 45.8081 459.034 45.5085C458.535 45.2988 458.186 45.129 457.976 44.9792C457.776 44.8195 457.666 44.4799 457.666 43.9307C457.666 43.012 458.096 42.5327 458.965 42.5327H463.997C464.517 42.5327 465.805 44.4999 467.872 48.3944C469.939 52.3189 471.657 55.774 473.055 58.7797L475.331 63.553C477.059 67.1779 479.426 72.9298 482.441 80.7986V51.1805ZM518.101 42.5327C519.239 42.5327 519.819 42.9521 519.819 43.7809C519.819 44.43 519.579 45.0092 519.11 45.5085C518.62 45.9379 518.281 46.2974 518.091 46.587C517.901 46.8865 517.662 47.4757 517.382 48.3445C516.363 51.5799 514.726 55.7141 512.479 60.717C511.341 63.2634 509.323 67.4974 506.438 73.439V89.0869C506.438 89.766 506.897 90.2952 507.836 90.6747C508.654 91.0841 509.064 91.7132 509.064 92.5121C509.064 93.5506 508.535 94.0799 507.496 94.0799H501.445C500.396 94.0799 499.877 93.5506 499.877 92.5121C499.877 91.6333 500.236 91.0542 500.945 90.7845C501.654 90.3152 502.084 89.8559 502.223 89.4265C502.373 88.9671 502.443 88.0484 502.443 86.5905V73.1994C500.636 69.205 498.788 65.0609 496.871 60.8069C494.964 56.5329 493.376 52.5785 492.118 48.9137C491.688 47.4857 491.079 46.5071 490.27 45.9579C489.412 45.2788 488.992 44.6197 488.992 43.9307C488.992 43.012 489.442 42.5327 490.34 42.5327H496.901C497.85 42.5327 498.319 43.042 498.319 44.0306C498.319 44.5598 498.149 44.9593 497.8 45.2389C497.47 45.5285 497.131 45.8081 496.771 46.1076C496.422 46.3972 496.252 46.7867 496.252 47.306C496.252 48.8737 497.39 52.1092 499.657 56.9823C500.456 58.59 501.435 60.717 502.583 63.3433C503.721 65.9696 504.6 67.9768 505.219 69.3348C507.905 63.7927 510.013 59.329 511.54 55.9438C513.258 51.9394 514.117 49.3631 514.117 48.2247C514.117 47.5256 514.007 46.9764 513.777 46.587C513.567 46.2075 513.258 45.868 512.858 45.5984C512.449 45.3188 512.169 45.0691 511.98 44.8394C511.79 44.6198 511.7 44.2702 511.7 43.7809C511.7 42.9521 512.179 42.5327 513.128 42.5327H518.101Z" fill="white"/>
<path d="M89.9358 134.283H2V2H533V134.283H443.846" stroke="white" stroke-width="2.35667" stroke-miterlimit="2.61313"/>
<path d="M156.122 158.589C154.894 158.589 153.596 158.209 152.238 157.44C149.901 155.943 148.034 152.617 146.626 147.485C145.997 145.228 145.438 142.901 144.958 140.544L144.878 140.225C144.729 139.156 144.229 138.407 143.37 137.988C140.954 137.019 138.238 136.23 135.212 135.611C134.653 135.452 134.163 135.372 133.754 135.372C133.195 135.372 132.736 135.661 132.396 136.25L131.667 137.269C125.885 145.777 120.653 151.609 115.959 154.744C114.302 155.783 112.943 156.352 111.875 156.472C110.806 156.592 110.117 156.642 109.788 156.642C108.46 156.642 107.391 156.322 106.612 155.693C106.003 155.094 105.704 154.435 105.704 153.706C105.704 153.346 105.774 152.977 105.903 152.587C106.323 151.409 107.042 150.291 108.04 149.232C109.049 148.184 109.958 147.405 110.787 146.905C110.906 146.825 111.046 146.786 111.196 146.786C111.476 146.786 111.685 146.905 111.835 147.145C111.905 147.275 111.945 147.415 111.945 147.564C111.945 147.814 111.835 148.034 111.585 148.213H111.486C110.627 148.213 109.728 148.643 108.789 149.492C107.851 150.34 107.242 151.149 106.952 151.918C106.652 152.697 106.503 153.256 106.503 153.626C106.503 154.235 106.712 154.744 107.142 155.184C107.751 155.673 108.56 155.913 109.568 155.913C111.535 155.913 113.473 155.264 115.39 153.945C119.964 150.65 125.136 144.798 130.908 136.39L131.188 136.021C131.387 135.681 131.497 135.422 131.497 135.232C131.497 134.912 131.178 134.743 130.529 134.693C127.054 134.113 123.598 133.814 120.173 133.794C118.985 133.794 117.777 133.834 116.588 133.914C112.115 134.193 108.03 135.142 104.316 136.78C104.825 136.68 105.105 136.63 105.174 136.63C105.244 136.63 105.274 136.64 105.274 136.65C105.274 136.75 104.985 136.939 104.416 137.219L102.069 138.188C101.969 138.218 101.869 138.238 101.799 138.238C101.679 138.238 101.58 138.208 101.48 138.158C101.39 138.098 101.34 138.018 101.34 137.948C101.34 137.778 101.5 137.608 101.829 137.409C105.853 135.142 109.588 133.834 113.013 133.474C116.449 133.125 119.125 132.945 121.032 132.945C124.257 132.945 127.503 133.215 130.798 133.764L131.547 133.884L131.787 133.914C132.066 133.914 132.316 133.824 132.566 133.644C132.895 133.424 133.155 133.145 133.335 132.835C133.534 132.516 133.684 132.296 133.784 132.156C138.128 125.396 140.914 120.632 142.162 117.856C142.352 117.457 142.612 117.257 142.911 117.257C143.041 117.257 143.181 117.277 143.321 117.347C143.81 117.657 144.249 119.634 144.639 123.279C144.848 125.276 144.998 126.844 145.068 127.942C145.657 133.075 146.017 135.911 146.137 136.46L146.167 136.73C146.177 137.119 146.276 137.479 146.426 137.818C146.596 138.158 146.965 138.447 147.545 138.697L147.984 138.887L148.154 138.987C149.302 139.556 151.839 140.874 155.753 142.941L156.851 143.52C157.191 143.74 157.361 143.989 157.361 144.279C157.361 144.599 157.141 144.768 156.712 144.768C156.252 144.768 156.023 144.728 156.003 144.649C155.983 144.569 155.973 144.509 155.973 144.479L156.003 144.159C155.983 144.109 155.074 143.62 153.286 142.681C151.968 141.982 150.181 141.054 147.914 139.885C147.365 139.596 147.025 139.446 146.896 139.446C146.756 139.446 146.676 139.586 146.676 139.865C146.676 139.995 146.716 140.255 146.796 140.664C146.846 140.804 146.866 140.944 146.866 141.084C148.393 149.911 150.321 155.144 152.667 156.761C153.276 157.101 153.906 157.281 154.575 157.281C155.364 157.281 156.172 157.161 157.001 156.941L157.261 156.911C157.65 156.911 157.89 157.111 157.97 157.52L157.99 157.71C157.99 158.06 157.79 158.309 157.391 158.439C156.981 158.539 156.562 158.589 156.122 158.589ZM144.149 137.189C144.279 137.159 144.349 137.029 144.349 136.8L144.269 136.071C144 134.103 143.74 131.717 143.52 128.941C143.5 128.721 143.49 128.521 143.47 128.342C143.45 128.152 143.44 127.782 143.42 127.233C143.321 124.807 143.181 122.799 142.981 121.232C142.911 120.313 142.831 119.824 142.761 119.764C142.701 119.714 142.661 119.684 142.642 119.684C142.512 119.684 142.282 119.973 141.962 120.553C140.534 123.209 138.128 127.233 134.753 132.625L134.413 133.185C134.183 133.524 134.064 133.804 134.064 134.014C134.064 134.333 134.323 134.513 134.823 134.543L135.432 134.693C138.657 135.452 141.323 136.24 143.44 137.039C143.68 137.139 143.89 137.189 144.05 137.189H144.149ZM159.058 151.669L158.899 151.639C158.319 151.469 158.02 150.8 158.02 149.651C158.02 148.263 158.359 146.266 159.038 143.67C159.847 140.644 161.245 136.29 163.212 130.608C164.081 128.202 164.601 126.594 164.8 125.805C164.75 125.835 164.7 125.885 164.65 125.945C164.241 126.225 163.961 126.354 163.802 126.354C163.692 126.354 163.572 126.324 163.462 126.264C163.093 126.055 162.903 125.765 162.903 125.386C162.903 124.996 163.093 124.807 163.462 124.807C163.692 124.807 163.862 124.906 163.991 125.126C164.561 124.687 165.15 123.798 165.769 122.45C165.799 122.34 165.939 122.01 166.208 121.471C166.468 120.922 166.698 120.652 166.917 120.652C166.987 120.652 167.067 120.692 167.127 120.742C167.257 120.932 167.317 121.132 167.317 121.381C167.317 121.741 167.177 122.29 166.887 123.039C166.688 123.498 166.078 125.366 165.06 128.641C163.023 135.232 161.455 140.754 160.376 145.208C159.857 147.355 159.608 148.793 159.608 149.502C159.608 149.681 159.618 149.821 159.647 149.911C159.697 149.911 160.716 149.432 162.683 148.453C171.011 144.329 175.725 142.182 176.843 142.022C177.063 142.022 177.213 142.142 177.263 142.362C177.263 142.621 177.143 142.771 176.913 142.801C175.405 143.011 173.638 143.67 171.591 144.778C169.544 145.887 167.516 147.065 165.529 148.313C161.994 150.55 159.837 151.669 159.058 151.669ZM177.952 146.106C178.8 146.106 180.179 144.868 182.086 142.392C182.815 141.433 183.594 140.345 184.423 139.106C184.672 138.747 184.812 138.507 184.812 138.377C184.812 138.268 184.672 138.208 184.423 138.208C183.334 138.208 182.315 138.497 181.357 139.056C180.648 139.496 180.009 140.025 179.46 140.644C178.022 142.292 177.303 143.77 177.303 145.058C177.303 145.397 177.382 145.677 177.542 145.917C177.642 146.037 177.782 146.106 177.952 146.106ZM189.855 152.657C189.545 152.657 189.256 152.607 188.956 152.507C187.658 152.098 186.809 150.92 186.39 148.992C185.99 147.065 185.781 144.838 185.781 142.312C185.781 141.343 185.801 140.315 185.85 139.226V138.867L185.87 138.577C185.87 138.457 185.86 138.397 185.831 138.397C185.761 138.397 185.611 138.607 185.391 139.016C184.482 140.424 183.584 141.703 182.695 142.841C181.117 144.878 179.919 146.166 179.09 146.706C178.251 147.265 177.612 147.534 177.183 147.534C176.963 147.534 176.793 147.485 176.643 147.385C175.984 146.975 175.645 146.346 175.645 145.527C175.645 144.659 175.905 143.72 176.424 142.701C176.943 141.683 177.622 140.744 178.471 139.865C180.089 138.128 181.746 137.249 183.474 137.219C183.973 137.229 184.383 137.279 184.682 137.329C184.892 137.369 185.072 137.379 185.211 137.379C185.331 137.379 185.431 137.369 185.511 137.359C185.84 137.249 186.11 136.39 186.33 134.782C186.919 131.088 187.598 127.872 188.347 125.146C189.356 121.551 190.394 119.754 191.483 119.754C191.602 119.754 191.702 119.764 191.792 119.804C192.401 120.053 192.701 120.662 192.701 121.601C192.701 122.6 192.511 123.758 192.132 125.046C191.463 127.393 190.684 129.41 189.805 131.088C189.226 132.326 188.587 133.564 187.888 134.812C187.388 138.367 187.139 141.373 187.139 143.8C187.139 147.994 187.888 150.5 189.366 151.349C189.675 151.509 190.025 151.589 190.384 151.589C192.741 151.589 196.186 148.453 200.729 142.192C200.819 142.082 200.919 142.022 201.029 142.022C201.289 142.022 201.408 142.162 201.408 142.442C201.408 142.502 201.409 142.561 201.369 142.631C196.515 149.322 192.671 152.657 189.855 152.657ZM188.227 132.526C188.876 131.297 189.455 130.059 189.985 128.811C191.343 125.476 192.022 123.209 192.022 122.01C192.022 121.571 191.892 121.331 191.652 121.282C191.083 121.351 190.394 123.009 189.595 126.264C189.066 128.322 188.627 130.399 188.227 132.526ZM202.507 146.706C202.896 146.706 203.316 146.516 203.775 146.126C204.424 145.567 204.774 144.639 204.834 143.36C204.834 142.921 204.714 142.502 204.454 142.122C204.284 141.892 204.205 141.733 204.205 141.633C204.205 141.533 204.245 141.453 204.334 141.393C203.565 141.503 202.926 141.922 202.397 142.651C201.878 143.38 201.568 143.989 201.508 144.459C201.428 144.948 201.399 145.238 201.399 145.377C201.399 145.937 201.588 146.346 201.978 146.596C202.137 146.666 202.317 146.706 202.507 146.706ZM202.028 147.824C201.079 147.824 200.48 147.544 200.23 146.985C200 146.496 199.891 145.967 199.891 145.417C199.891 144.339 200.25 143.26 200.979 142.192C201.748 141.064 202.856 140.395 204.284 140.175C204.784 140.175 205.033 140.345 205.033 140.694C205.033 140.884 204.924 141.074 204.694 141.243C205.303 141.243 206.431 141.413 208.039 141.733C210.576 142.202 212.413 142.442 213.551 142.442C214.011 142.442 214.72 142.352 215.698 142.192C215.918 142.192 216.038 142.282 216.038 142.462C216.038 142.831 215.109 143.021 213.242 143.021C212.443 143.021 211.574 142.961 210.625 142.841C208.518 142.601 206.741 142.312 205.303 141.972C205.513 142.402 205.613 142.851 205.613 143.36C205.533 144.928 205.103 146.067 204.324 146.776C203.535 147.475 202.777 147.824 202.028 147.824ZM225.305 151.469C224.885 151.469 224.506 151.419 224.166 151.299C223.407 150.96 223.008 150.44 222.958 149.751C222.908 149.052 222.878 148.563 222.878 148.293C222.878 146.815 223.288 144.479 224.086 141.273C224.446 139.915 224.626 139.106 224.626 138.867C224.626 138.767 224.606 138.717 224.556 138.717C224.386 138.717 223.947 139.186 223.268 140.125C222.009 141.703 220.811 143.161 219.673 144.499C217.316 147.305 215.748 148.743 214.969 148.823C214.58 148.773 214.38 148.423 214.38 147.774C214.38 146.995 214.52 146.067 214.79 144.988C215.279 143.081 215.778 141.553 216.278 140.414C216.437 140.125 216.587 139.975 216.697 139.965C216.827 139.955 216.887 139.955 216.907 139.955C217.106 139.955 217.256 140.055 217.366 140.225C217.416 140.305 217.446 140.405 217.446 140.514C217.446 140.644 217.406 140.804 217.336 140.984C217.256 141.183 217.126 141.593 216.947 142.242C216.757 142.891 216.577 143.6 216.397 144.369C216.218 145.128 216.098 145.717 216.038 146.116C215.988 146.506 215.958 146.776 215.958 146.905C215.958 147.115 215.998 147.235 216.058 147.245C216.238 147.245 217.136 146.296 218.754 144.379C220.372 142.472 221.4 141.233 221.86 140.664C222.639 139.696 223.348 138.867 223.987 138.198C224.626 137.519 225.125 137.189 225.504 137.189C225.824 137.189 225.994 137.628 225.994 138.477C225.994 139.236 225.794 140.494 225.385 142.262C224.726 145.278 224.386 147.415 224.386 148.683C224.386 149.532 224.576 150.091 224.945 150.33C225.205 150.44 225.504 150.5 225.844 150.5C226.533 150.5 227.412 150.271 228.47 149.821C230.048 149.152 231.726 148.273 233.493 147.175C235.261 146.067 236.818 145.038 238.167 144.059C239.515 143.091 240.343 142.452 240.663 142.142C240.733 142.062 240.823 142.022 240.903 142.022C241.092 142.022 241.212 142.102 241.262 142.242L241.312 142.412C241.312 142.641 240.363 143.46 238.476 144.868C237.068 145.917 235.45 146.995 233.613 148.114C229.948 150.36 227.172 151.469 225.305 151.469ZM250.1 149.282C247.793 149.282 246.505 147.514 246.265 143.959C246.265 143.4 246.245 143.111 246.205 143.101C246.165 143.091 246.135 143.091 246.115 143.091C246.025 143.091 245.706 143.27 245.167 143.62C244.617 143.959 244.018 144.379 243.369 144.868C241.252 146.456 239.794 147.245 238.975 147.245C238.506 147.245 238.276 147.035 238.276 146.616C238.276 146.316 238.386 145.947 238.616 145.477C239.085 144.489 239.854 143.4 240.943 142.232C242.031 141.054 243.12 140.175 244.198 139.576C245.287 138.987 246.215 138.697 246.994 138.697C247.404 138.697 247.793 138.757 248.152 138.887C248.472 139.026 248.632 139.126 248.652 139.226C248.682 139.326 248.692 139.386 248.692 139.426C248.692 139.616 248.552 139.725 248.282 139.725C248.142 139.725 247.963 139.686 247.783 139.626C247.603 139.576 247.414 139.546 247.214 139.546C246.734 139.546 246.185 139.725 245.586 140.055C244.727 140.544 243.888 141.183 243.07 141.962C242.251 142.741 241.602 143.47 241.102 144.119C240.613 144.778 240.363 145.238 240.363 145.497C240.363 145.577 240.403 145.617 240.483 145.617C240.783 145.617 241.791 145.048 243.519 143.92C243.978 143.62 244.418 143.35 244.857 143.091C245.896 142.412 246.625 142.072 247.044 142.072C247.513 142.072 247.763 142.701 247.793 143.94C248.043 146.825 249.021 148.263 250.759 148.263C251.757 148.263 252.866 147.894 254.054 147.145C255.163 146.466 256.161 145.667 257.08 144.748C257.979 143.82 258.618 142.991 258.987 142.242C259.087 142.102 259.207 142.022 259.357 142.022C259.616 142.022 259.746 142.152 259.746 142.412C259.746 142.462 259.726 142.512 259.696 142.581C259.047 143.82 257.859 145.128 256.151 146.546C254.434 147.954 252.686 148.843 250.899 149.212C250.629 149.262 250.359 149.282 250.1 149.282ZM297.023 158.539C296.225 158.539 295.745 156.182 295.566 151.469L295.536 149.552C295.536 145.328 295.815 140.864 296.364 136.17C296.394 135.931 296.414 135.721 296.414 135.571C296.414 135.282 296.384 135.082 296.314 134.932C296.255 134.782 296.145 134.593 296.005 134.343L295.805 134.034C293.129 129.72 288.985 127.323 283.373 126.824C282.544 126.744 281.675 126.694 280.776 126.694C279.788 126.694 278.739 126.744 277.641 126.844C277.152 126.884 276.792 126.894 276.572 126.894C276.113 126.894 275.893 126.764 275.893 126.504C275.893 126.065 277.032 125.565 279.289 124.996C282.754 124.147 287.277 123.259 292.869 122.35L296.924 121.721C297.003 121.711 297.093 121.691 297.183 121.681C297.283 121.671 297.393 121.661 297.503 121.621C297.732 121.571 297.932 121.541 298.112 121.521C298.521 121.471 298.861 121.371 299.14 121.222C299.43 121.072 299.68 120.722 299.909 120.193C300.578 118.745 301.178 118.026 301.727 118.026L301.927 118.056C302.236 118.186 302.386 118.396 302.386 118.685C302.386 118.865 302.286 119.045 302.086 119.244C301.877 119.434 301.697 119.754 301.537 120.193C301.457 120.373 301.417 120.523 301.417 120.652C301.417 120.892 301.597 121.022 301.956 121.022C302.276 121.022 302.526 120.982 302.695 120.922C312.452 119.764 319.132 119.194 322.757 119.194C324.425 119.194 325.264 119.414 325.264 119.854C325.264 120.303 324.604 120.772 323.296 121.262C322.418 121.571 321.988 121.791 321.988 121.941L322.058 122.04C322.088 122.11 322.108 122.15 322.108 122.18C322.108 122.21 322.088 122.25 322.058 122.3C321.868 122.51 321.629 122.62 321.349 122.62C321.06 122.62 320.84 122.49 320.67 122.23C320.58 122.02 320.53 121.811 320.53 121.621C320.53 121.252 320.71 120.932 321.079 120.652C317.784 120.692 311.753 121.172 302.995 122.11C302.915 122.11 302.845 122.11 302.775 122.13C302.646 122.15 302.506 122.15 302.356 122.15C301.557 122.24 300.988 122.47 300.688 122.839C300.379 123.209 300.149 123.778 299.979 124.537L299.869 124.946C298.921 128.531 298.302 131.687 298.012 134.423C298.012 134.523 298.012 134.603 297.992 134.693C297.962 134.842 297.942 134.982 297.942 135.152C297.942 135.292 297.962 135.442 297.992 135.591C298.202 136.36 298.441 137.579 298.701 139.226C298.731 139.346 298.751 139.466 298.771 139.596C299.23 142.282 299.48 145.188 299.48 148.293C299.48 152.937 298.821 156.232 297.503 158.169C297.343 158.409 297.183 158.539 297.023 158.539ZM296.654 133.844C296.694 133.844 296.714 133.704 296.734 133.424C296.974 131.038 297.493 128.202 298.302 124.946C298.591 124.008 298.741 123.379 298.741 123.039C298.741 122.779 298.551 122.65 298.192 122.65C298.022 122.65 297.822 122.67 297.573 122.719L296.974 122.799C287.747 123.908 281.425 124.986 278.03 126.045C279.019 125.955 279.958 125.915 280.846 125.915C287.806 125.915 292.889 128.312 296.105 133.085C296.424 133.584 296.604 133.844 296.654 133.844ZM297.623 156.502C297.932 156.502 298.152 155.813 298.302 154.435C298.431 153.057 298.511 151.768 298.521 150.56C298.541 149.352 298.551 148.553 298.551 148.164C298.551 144.019 298.441 141.293 298.232 139.985C298.092 139.106 297.962 138.677 297.842 138.677C297.712 138.677 297.593 139.216 297.473 140.305C297.223 143.39 297.093 146.316 297.093 149.092C297.093 149.881 297.103 150.66 297.123 151.419C297.213 154.804 297.373 156.502 297.573 156.502H297.623ZM307.339 146.706C307.728 146.706 308.158 146.516 308.607 146.126C309.256 145.567 309.616 144.639 309.666 143.36C309.666 142.921 309.546 142.502 309.286 142.122C309.126 141.892 309.036 141.733 309.036 141.633C309.036 141.533 309.086 141.453 309.166 141.393C308.397 141.503 307.768 141.922 307.229 142.651C306.71 143.38 306.4 143.989 306.34 144.459C306.26 144.948 306.23 145.238 306.23 145.377C306.23 145.937 306.42 146.346 306.81 146.596C306.969 146.666 307.149 146.706 307.339 146.706ZM306.86 147.824C305.911 147.824 305.322 147.544 305.062 146.985C304.842 146.496 304.723 145.967 304.723 145.417C304.723 144.339 305.082 143.26 305.811 142.192C306.59 141.064 307.688 140.395 309.116 140.175C309.626 140.175 309.865 140.345 309.865 140.694C309.865 140.884 309.755 141.074 309.526 141.243C310.145 141.243 311.263 141.413 312.881 141.733C315.407 142.202 317.245 142.442 318.393 142.442C318.843 142.442 319.562 142.352 320.53 142.192C320.75 142.192 320.87 142.282 320.87 142.462C320.87 142.831 319.941 143.021 318.074 143.021C317.285 143.021 316.406 142.961 315.457 142.841C313.35 142.601 311.573 142.312 310.135 141.972C310.355 142.402 310.444 142.851 310.444 143.36C310.365 144.928 309.935 146.067 309.156 146.776C308.367 147.475 307.608 147.824 306.86 147.824ZM319.562 149.841L319.312 149.821C319.052 149.671 318.913 149.462 318.903 149.182C318.883 148.912 318.883 148.743 318.883 148.683C318.883 148.094 318.992 147.285 319.222 146.256C319.651 144.539 320.251 142.821 321.01 141.094C322.078 138.717 322.937 137.529 323.566 137.529C323.626 137.529 323.686 137.539 323.736 137.559C323.965 137.668 324.075 137.848 324.075 138.088C324.075 138.287 323.955 138.487 323.716 138.697C323.137 139.196 322.428 140.764 321.579 143.41C321.219 144.509 320.94 145.517 320.74 146.416L320.72 146.516C320.61 147.015 320.55 147.425 320.55 147.754C320.55 148.124 320.65 148.313 320.87 148.313C321.03 148.313 321.259 148.194 321.549 147.954C323.027 146.626 325.304 143.64 328.399 139.016C328.769 138.457 328.998 138.128 329.098 138.018C330.237 136.56 331.025 135.831 331.475 135.831C331.834 135.831 332.014 136.22 332.014 136.989C332.014 138.018 331.704 139.925 331.085 142.731C330.736 144.309 330.556 145.278 330.556 145.617C330.556 145.797 330.606 145.887 330.696 145.887C331.055 145.887 332.314 144.928 334.461 143.021C335.749 141.862 336.647 141.293 337.187 141.293C337.666 141.293 337.916 141.703 337.916 142.502C337.916 142.911 337.826 143.45 337.666 144.119C337.486 144.798 337.406 145.397 337.406 145.937C337.406 146.785 337.916 147.225 338.954 147.225C339.783 147.225 340.981 147.005 342.549 146.596C344.756 145.987 346.943 145.258 349.13 144.379C351.297 143.51 352.725 142.791 353.384 142.242C353.484 142.162 353.574 142.122 353.653 142.122C353.843 142.122 353.943 142.202 353.943 142.392C353.943 142.871 352.365 143.78 349.21 145.108C346.923 146.057 344.696 146.875 342.519 147.544C340.342 148.213 338.794 148.553 337.866 148.553L337.526 148.533C336.458 148.273 335.909 147.914 335.869 147.435C335.839 146.975 335.819 146.656 335.819 146.516C335.819 145.837 335.919 145.128 336.118 144.379C336.278 143.7 336.358 143.181 336.358 142.801C336.358 142.701 336.328 142.651 336.258 142.651C336.088 142.651 335.659 142.971 334.98 143.6C333.242 145.088 331.964 146.156 331.135 146.795C330.296 147.435 329.717 147.754 329.388 147.754C329.038 147.754 328.858 147.405 328.858 146.706C328.858 145.867 329.238 144.129 329.997 141.483C330.536 139.546 330.796 138.357 330.796 137.948C330.796 137.698 330.746 137.579 330.646 137.579C330.426 137.579 329.797 138.307 328.759 139.765C323.955 146.486 320.89 149.841 319.562 149.841ZM356.639 146.835C356.06 146.835 355.501 146.786 354.992 146.706C353.753 146.416 353.024 145.657 352.805 144.429C352.805 143.78 353.024 143.101 353.484 142.392C354.073 141.463 354.882 140.724 355.88 140.165C356.889 139.606 357.927 139.326 359.016 139.326C359.246 139.326 359.485 139.336 359.725 139.366C359.985 139.386 360.144 139.446 360.214 139.536C360.264 139.616 360.304 139.706 360.304 139.765C360.304 140.025 360.044 140.155 359.525 140.155H359.455C359.286 140.115 359.126 140.105 358.946 140.105C358.277 140.105 357.588 140.335 356.849 140.784C355.95 141.373 355.281 142.002 354.852 142.681C354.422 143.36 354.213 143.92 354.213 144.379C354.213 144.639 354.273 144.888 354.402 145.128C354.702 145.717 355.541 146.007 356.949 146.007H357.288C359.535 145.827 361.962 145.358 364.538 144.599C367.124 143.84 368.832 143.131 369.651 142.462C369.781 142.362 369.901 142.302 369.99 142.292C370.11 142.292 370.17 142.312 370.17 142.362V142.442C370.17 142.502 370.12 142.591 370.02 142.701C369.271 143.35 367.973 144.029 366.126 144.748C364.268 145.457 362.491 145.977 360.793 146.316C359.096 146.656 357.708 146.835 356.639 146.835ZM378.678 145.078C378.688 145.058 378.698 145.028 378.698 145.008C378.758 144.868 378.788 144.698 378.788 144.499C378.788 143.72 378.339 143.211 377.45 142.971C376.671 142.761 375.872 142.641 375.043 142.601C374.045 142.522 373.465 142.402 373.326 142.242C373.276 142.172 373.246 142.102 373.246 142.002C373.246 141.613 373.745 140.884 374.734 139.835C375.343 139.086 375.652 138.667 375.652 138.547C375.652 138.497 375.602 138.477 375.503 138.477L375.283 138.497C374.314 138.807 373.246 139.276 372.097 139.905C370.939 140.524 370.09 141.173 369.561 141.852C369.491 141.932 369.401 141.972 369.281 141.972C369.112 141.972 369.022 141.872 369.022 141.683C369.022 141.423 369.731 140.694 371.159 139.496C372.227 138.627 373.336 137.918 374.484 137.379C375.003 137.179 375.493 137.069 375.972 137.069C376.471 137.069 376.871 137.199 377.19 137.459C377.38 137.628 377.48 137.818 377.48 138.058C377.48 138.437 377.25 138.887 376.821 139.426C376.281 139.955 375.682 140.484 375.023 141.004C374.314 141.573 373.955 141.902 373.955 142.002C373.965 142.062 374.085 142.102 374.294 142.102C374.484 142.102 374.764 142.082 375.123 142.062C375.483 142.032 375.862 142.022 376.282 142.022C377.55 142.022 378.508 142.162 379.177 142.462C379.787 142.741 380.166 143.221 380.316 143.92C380.346 144.029 380.356 144.159 380.356 144.299C380.356 144.579 380.466 144.718 380.655 144.718C380.715 144.718 380.815 144.688 380.945 144.649C384.859 143.5 388.804 142.651 392.768 142.122C392.988 142.122 393.088 142.212 393.088 142.412C393.088 142.571 393.008 142.671 392.848 142.701C389.093 143.201 385.459 143.959 381.944 144.958C381.804 144.988 381.664 145.028 381.534 145.058C381.264 145.128 381.035 145.208 380.835 145.298C379.817 145.637 378.069 146.236 378.079 146.316C378.099 146.416 378.558 145.358 378.678 145.078Z" fill="white"/>
<path d="M402.075 149.282C399.769 149.282 398.48 147.515 398.241 143.96C398.241 143.4 398.221 143.111 398.181 143.101C398.141 143.091 398.111 143.091 398.091 143.091C398.001 143.091 397.681 143.271 397.142 143.62C396.593 143.96 395.994 144.379 395.345 144.868C393.228 146.456 391.77 147.245 390.951 147.245C390.482 147.245 390.252 147.035 390.252 146.616C390.252 146.316 390.362 145.947 390.591 145.477C391.061 144.489 391.83 143.4 392.918 142.232C394.007 141.054 395.095 140.175 396.174 139.576C397.262 138.987 398.191 138.697 398.97 138.697C399.379 138.697 399.768 138.757 400.128 138.887C400.448 139.027 400.607 139.126 400.627 139.226C400.657 139.326 400.667 139.386 400.667 139.426C400.667 139.616 400.527 139.726 400.258 139.726C400.118 139.726 399.938 139.686 399.759 139.626C399.579 139.576 399.389 139.546 399.189 139.546C398.71 139.546 398.161 139.726 397.562 140.055C396.703 140.544 395.864 141.183 395.045 141.962C394.226 142.741 393.577 143.47 393.078 144.119C392.589 144.778 392.339 145.238 392.339 145.497C392.339 145.577 392.379 145.617 392.459 145.617C392.758 145.617 393.767 145.048 395.495 143.92C395.954 143.62 396.393 143.35 396.833 143.091C397.871 142.412 398.6 142.072 399.02 142.072C399.489 142.072 399.739 142.701 399.769 143.94C400.018 146.826 400.997 148.263 402.734 148.263C403.733 148.263 404.841 147.894 406.03 147.145C407.138 146.466 408.137 145.667 409.055 144.748C409.954 143.82 410.593 142.991 410.963 142.242C411.063 142.102 411.182 142.022 411.332 142.022C411.592 142.022 411.722 142.152 411.722 142.412C411.722 142.462 411.702 142.512 411.672 142.581C411.023 143.82 409.834 145.128 408.127 146.546C406.409 147.954 404.662 148.843 402.874 149.212C402.604 149.262 402.335 149.282 402.075 149.282ZM409.794 152.128C409.555 152.128 409.435 151.988 409.435 151.719C409.665 148.313 410.194 145.008 411.043 141.813C410.473 141.453 409.964 141.104 409.505 140.764C409.475 140.734 409.435 140.704 409.395 140.694C408.516 140.115 408.077 139.586 408.077 139.086C408.077 138.697 408.217 138.467 408.516 138.397C408.676 138.367 408.816 138.357 408.956 138.357L409.315 138.377C409.964 138.357 410.893 138.258 412.111 138.058C413.829 132.725 416.315 127.023 419.59 120.972C419.84 120.593 420.08 120.403 420.29 120.403L420.439 120.433C420.659 120.533 420.779 120.742 420.779 121.072L420.759 121.312C420.429 122.69 419.76 124.387 418.742 126.404L418.672 126.584L418.153 127.603C416.485 130.968 414.957 134.363 413.569 137.798C416.225 137.309 418.163 136.929 419.401 136.63L420 136.51C420.1 136.48 420.15 136.41 420.17 136.31C420.2 136.161 420.309 136.051 420.489 136.001C420.779 136.001 420.919 136.111 420.919 136.34C420.919 136.59 420.509 136.88 419.71 137.219C418.083 137.918 415.836 138.617 412.98 139.326C412.79 139.845 412.61 140.375 412.451 140.904C413.929 141.873 415.656 142.841 417.623 143.8C419.581 144.748 421.318 145.408 422.826 145.757C424.344 146.107 425.552 146.276 426.461 146.276C427.399 146.276 428.288 146.156 429.137 145.917C430.785 145.408 432.053 144.199 432.942 142.262C433.022 142.112 433.151 142.022 433.301 142.022C433.551 142.022 433.671 142.152 433.671 142.412L433.641 142.552C432.742 144.559 431.574 145.827 430.156 146.356C428.728 146.885 427.36 147.145 426.041 147.145C425.362 147.145 424.673 147.085 423.964 146.985C420.13 146.426 416.125 144.898 411.961 142.392C411.023 145.378 410.443 148.503 410.214 151.769C410.174 152.008 410.044 152.128 409.794 152.128ZM411.452 140.255L411.622 139.646L410.803 139.815L411.452 140.255Z" fill="white"/>
</svg>
