<svg width="505" height="118" viewBox="0 0 505 118" fill="none" xmlns="http://www.w3.org/2000/svg">
<path d="M15.0704 23.3419C18.166 24.5502 20.2731 25.8783 21.4114 27.3163C23.4985 29.9226 24.547 33.4476 24.547 37.8714C24.547 42.5947 23.3387 46.5691 20.9121 49.7845C18.6653 52.6605 15.7394 54.0985 12.1545 54.0985C8.82921 54.0985 6.10306 52.9301 3.96607 50.5834C3.03739 49.5049 2.18858 48.1069 1.38971 46.3993C0.590839 44.7017 0.191406 43.114 0.191406 41.6161C0.191406 40.0783 0.580858 39.3293 1.33979 39.3293C1.87902 39.3293 2.37832 39.9884 2.83767 41.2766C3.89618 44.2424 5.03457 46.3594 6.26283 47.6076C8.03034 49.5249 10.1673 50.4636 12.6638 50.4636C14.9106 50.4636 16.9078 49.5049 18.6254 47.5777C20.3429 45.6404 21.2017 42.9342 21.2017 39.4392C21.2017 36.1438 20.4228 33.897 18.8451 32.6487C17.2673 31.4005 14.8207 30.1722 11.4954 28.9639C8.19011 27.7457 5.67366 26.2378 3.96607 24.4403C2.26847 22.6429 1.40969 19.6172 1.40969 15.4031C1.40969 11.0692 2.50813 7.47431 4.67507 4.61834C6.68224 1.89219 9.3285 0.554073 12.5839 0.554073C15.6995 0.554073 18.4256 1.6725 20.7723 3.91933C21.3116 4.63831 21.6112 5.25744 21.701 5.75673C21.7909 6.28598 21.8508 7.64406 21.8508 9.82098C21.8508 11.4087 21.6112 12.2076 21.1418 12.2076C20.8822 12.2076 20.313 11.4287 19.4342 9.84096C18.5555 8.27317 17.5069 6.9051 16.2987 5.77669C15.0904 4.6383 13.5026 4.06911 11.5354 4.06911C9.84777 4.06911 8.36986 4.88796 7.09166 6.50567C5.82346 8.15335 5.18435 10.2404 5.18435 12.7868C5.18435 15.3831 5.70362 17.3504 6.75214 18.6885C7.81064 20.0366 9.2586 21.115 11.096 21.8839L15.0704 23.3419V23.3419ZM29.3203 39.7986L38.8568 4.95786C39.9353 1.78234 40.6642 0.19458 41.0637 0.19458C41.6728 0.19458 42.4817 1.78234 43.4803 4.95786C47.1551 14.9038 50.3406 26.5174 53.0168 39.7986L54.7244 47.3979C55.014 48.5363 55.5332 49.4051 56.2922 49.9943C56.7615 50.3937 57.0012 50.883 57.0012 51.5121C57.0012 52.5506 56.412 53.0799 55.2237 53.0799H49.8213C48.7229 53.0799 48.1736 52.5506 48.1736 51.5121C48.1736 50.7532 48.5431 50.144 49.302 49.6747C50.061 49.1854 50.4404 48.5962 50.4404 47.8772C50.4404 46.6989 49.6615 42.8843 48.1037 36.3935L47.8241 35.0354H33.4345C33.3446 35.5646 33.0949 36.713 32.7155 38.4905C32.336 40.268 32.0364 41.8058 31.8067 43.074C31.5671 44.3622 31.4473 45.3808 31.4473 46.1497C31.4473 47.3879 31.5771 48.2168 31.8367 48.6462C32.0963 49.0855 32.4658 49.5449 32.9851 49.9943C33.4744 50.4636 33.724 50.9629 33.724 51.5121C33.724 52.1512 33.5343 52.5706 33.1349 52.7703C32.7454 52.98 32.0664 53.0799 31.0978 53.0799H28.5314C26.6341 53.0799 25.6854 52.5506 25.6854 51.5121C25.6854 50.863 25.9251 50.2938 26.3944 49.7845C27.0335 49.0456 27.4829 48.1369 27.7525 47.0584L29.3203 39.7986V39.7986ZM47.1051 31.4005L46.6059 29.7029L40.4945 8.4729L34.1435 31.4005H47.1051V31.4005ZM65.4692 44.9014C65.4692 46.9685 65.619 48.1768 65.8886 48.5363C66.4678 49.1454 67.7859 49.445 69.8131 49.445H72.1598L76.9929 49.1255C78.1513 48.7859 79.0101 48.4464 79.5493 48.1069C80.0985 47.7574 80.7676 47.1183 81.5665 46.1497C82.3853 45.1711 82.9146 44.6817 83.1343 44.6817C83.6435 44.6817 83.9032 45.1311 83.9032 46.0398C83.9032 46.3794 83.8033 47.368 83.5836 48.9557C83.3739 50.5435 83.2141 51.4722 83.1343 51.7118C82.8347 52.6205 82.1057 53.0799 80.9174 53.0799H60.4862C59.4976 53.0799 58.9984 52.5506 58.9984 51.5121C58.9984 50.7731 59.3279 50.2039 59.977 49.7845C60.7259 49.2553 61.1553 48.8059 61.2851 48.3865C61.4149 47.9871 61.4749 47.0584 61.4749 45.5905V6.56559C61.4749 5.8466 61.0155 5.31735 60.0768 4.95786C59.5775 4.70821 59.228 4.5085 59.0583 4.33874C58.8785 4.149 58.7787 3.76953 58.7787 3.14042C58.7787 2.08191 59.3079 1.53269 60.3464 1.53269H66.328C67.4165 1.53269 67.9657 2.08191 67.9657 3.14042C67.9657 3.8594 67.6062 4.4286 66.8972 4.84801C66.2781 5.14759 65.8786 5.54702 65.7189 6.01636C65.5591 6.4857 65.4692 7.45433 65.4692 8.95221V44.9014V44.9014ZM89.8847 46.7388C86.9888 41.7858 85.5409 35.4148 85.5409 27.6358C85.5409 23.9311 85.9103 20.416 86.6593 17.1207C87.4082 13.8054 88.4767 10.9194 89.8647 8.44294C91.2428 5.95645 92.9104 4.02917 94.8577 2.63114C96.8049 1.25309 98.9719 0.554073 101.359 0.554073C106.022 0.554073 109.867 3.10048 112.872 8.25321C115.868 13.1263 117.356 19.5572 117.356 27.526C117.356 32.5189 116.667 37.0325 115.299 41.0868C113.911 45.1511 111.974 48.3266 109.497 50.6333C107.021 52.9401 104.195 54.0985 101.059 54.0985C96.5553 54.0985 92.8306 51.6419 89.8847 46.7388V46.7388ZM110.096 42.9542C111.954 39.0797 112.872 34.0667 112.872 27.8855C112.872 21.2848 111.954 15.8724 110.096 11.6584C109.058 9.35166 107.759 7.55418 106.232 6.24603C104.704 4.93788 103.076 4.27881 101.359 4.27881C100.15 4.27881 98.9919 4.61833 97.9034 5.29737C96.8149 5.97641 95.8163 6.90511 94.9376 8.1134C94.0588 9.31171 93.2799 10.7697 92.5909 12.4673C90.8833 16.5115 90.0245 21.5444 90.0245 27.526C90.0245 33.7073 90.9532 38.8899 92.8006 43.114C94.9076 48.0071 97.7236 50.4636 101.259 50.4636C103.016 50.4636 104.664 49.8045 106.222 48.4764C107.779 47.1583 109.068 45.3009 110.096 42.9542V42.9542ZM145.346 10.1805C145.346 8.36304 145.316 7.1947 145.276 6.66545C145.177 5.86658 144.777 5.33733 144.078 5.05772C143.639 4.80807 143.339 4.63831 143.209 4.53845C143.08 4.46855 142.95 4.31876 142.83 4.08909C142.71 3.85941 142.65 3.55982 142.65 3.14042C142.65 2.08191 143.04 1.53269 143.848 1.53269H149.271C150.11 1.53269 150.539 2.08191 150.539 3.14042C150.539 3.80947 150.18 4.34872 149.471 4.84801C148.592 5.35729 148.122 5.84661 148.053 6.30596C148.003 6.85518 147.983 8.02352 147.983 9.82098V50.3537C147.983 51.7318 147.923 52.7004 147.803 53.2696C147.683 53.8188 147.384 54.0985 146.894 54.0985C146.455 54.0985 146.065 53.4194 145.696 52.0513C145.276 50.6733 144.787 49.2753 144.228 47.8972C143.669 46.5092 142.89 44.6418 141.871 42.2751C140.843 39.9085 140.164 38.2808 139.794 37.412C138.706 34.7158 137.587 31.9897 136.469 29.2835C135.36 26.5773 134.292 24.0808 133.273 21.7541C132.255 19.4274 131.196 17.1407 130.078 14.8838C128.96 12.617 127.761 10.4102 126.483 8.25321V46.1497C126.483 47.2681 126.553 48.067 126.693 48.4964C126.843 48.9557 127.192 49.2952 127.771 49.5549C128.71 49.8245 129.179 50.4636 129.179 51.5121C129.179 52.5506 128.81 53.0799 128.051 53.0799H122.069C121.31 53.0799 120.931 52.5506 120.931 51.5121C120.931 50.6134 121.26 50.0342 121.939 49.7845C122.798 49.5049 123.327 49.0656 123.527 48.4764C123.747 47.8972 123.847 46.629 123.847 44.6817V10.1805C123.847 8.44293 123.747 7.1148 123.537 6.24603C123.337 5.39723 122.808 4.80807 121.939 4.50849C121.44 4.29879 121.081 4.12903 120.881 3.97924C120.681 3.81947 120.571 3.47995 120.571 2.93072C120.571 2.01202 121.001 1.53269 121.87 1.53269H126.902C127.422 1.53269 128.71 3.49992 130.777 7.39442C132.844 11.3189 134.562 14.774 135.96 17.7797L138.236 22.553C139.964 26.1779 142.331 31.9298 145.346 39.7986V10.1805V10.1805ZM175.664 48.0869C175.664 48.4464 175.733 48.7061 175.883 48.8958C176.023 49.0855 176.203 49.2153 176.413 49.3352C176.642 49.445 176.862 49.5549 177.092 49.6747C177.85 50.1041 178.23 50.7132 178.23 51.5121C178.23 52.5506 177.711 53.0799 176.662 53.0799H170.541C169.492 53.0799 168.973 52.5506 168.973 51.5121C168.973 50.6134 169.352 50.0342 170.111 49.7845C170.86 49.4051 171.31 48.9957 171.45 48.5163C171.599 48.047 171.669 47.0784 171.669 45.5905V6.56559C171.669 5.82663 171.23 5.29738 170.341 4.95786C169.862 4.72818 169.532 4.52846 169.333 4.31876C169.143 4.10906 169.043 3.72958 169.043 3.14042C169.043 2.08191 169.542 1.53269 170.541 1.53269H176.592C177.681 1.53269 178.23 2.08191 178.23 3.14042C178.23 3.8594 177.87 4.4286 177.161 4.84801C176.462 5.35729 176.043 5.80665 175.913 6.18612C175.783 6.56558 175.704 7.51424 175.664 9.04208V29.4732L183.213 18.0993L187.197 11.5386C187.417 11.1391 187.657 10.7297 187.896 10.2903C188.136 9.8809 188.336 9.48147 188.525 9.14195C188.705 8.78246 188.855 8.38301 188.985 7.96361C189.115 7.53421 189.184 7.13477 189.184 6.77528C189.184 6.20609 189.095 5.78668 188.895 5.52704C188.705 5.2774 188.406 5.03775 188.006 4.80807C187.607 4.55843 187.327 4.33874 187.127 4.08909C186.938 3.83944 186.838 3.45997 186.838 2.93072C186.838 2.01202 187.317 1.53269 188.266 1.53269H194.727C195.875 1.53269 196.454 2.01202 196.454 2.93072C196.454 3.70962 196.095 4.29879 195.366 4.72819C194.547 5.31735 193.938 5.92648 193.518 6.54561C193.099 7.17472 192.46 8.2532 191.611 9.82098L184.341 22.2035L185.42 24.1607C189.973 31.8399 193.179 38.83 195.026 45.1311C195.396 46.4792 195.735 47.4578 196.025 48.0869C196.314 48.6861 196.794 49.1854 197.443 49.5549C197.922 49.8844 198.252 50.144 198.441 50.3537C198.631 50.5834 198.731 50.9928 198.731 51.602C198.731 52.5806 198.202 53.0799 197.163 53.0799H191.461C190.043 53.0799 189.334 52.5506 189.334 51.5121C189.334 51.0927 189.404 50.7831 189.544 50.5834C189.684 50.3737 189.923 50.144 190.233 49.8944C190.543 49.6348 190.762 49.3851 190.912 49.1654C191.052 48.9557 191.122 48.5962 191.122 48.0869C191.122 46.9086 190.513 44.8315 189.304 41.8657C188.106 38.9099 186.738 35.9241 185.21 32.8984C183.682 29.8727 182.474 27.6758 181.575 26.2778L175.664 34.8257V48.0869V48.0869ZM204.563 46.7388C201.667 41.7858 200.219 35.4148 200.219 27.6358C200.219 23.9311 200.588 20.416 201.337 17.1207C202.086 13.8054 203.155 10.9194 204.543 8.44294C205.911 5.95645 207.588 4.02917 209.536 2.63114C211.483 1.25309 213.65 0.554073 216.037 0.554073C220.7 0.554073 224.545 3.10048 227.55 8.25321C230.546 13.1263 232.034 19.5572 232.034 27.526C232.034 35.3649 230.147 45.0712 224.175 50.6333C221.689 52.9401 218.873 54.0985 215.737 54.0985C211.233 54.0985 207.509 51.6419 204.563 46.7388V46.7388ZM224.774 42.9542C226.632 39.0797 227.55 34.0667 227.55 27.8855C227.55 21.2848 226.632 15.8724 224.774 11.6584C223.736 9.35166 222.438 7.55418 220.91 6.24603C219.382 4.93788 217.754 4.27881 216.037 4.27881C214.828 4.27881 213.67 4.61833 212.581 5.29737C211.493 5.97641 210.494 6.90511 209.616 8.1134C208.737 9.31171 207.958 10.7697 207.269 12.4673C205.561 16.5115 204.703 21.5444 204.703 27.526C204.703 33.7073 205.631 38.8899 207.479 43.114C209.576 48.0071 212.402 50.4636 215.937 50.4636C217.694 50.4636 219.342 49.8045 220.9 48.4764C222.447 47.1583 223.746 45.3009 224.774 42.9542V42.9542ZM249.759 23.3419C252.855 24.5502 254.972 25.8783 256.11 27.3163C258.197 29.9226 259.236 33.4476 259.236 37.8714C259.236 42.5947 258.027 46.5691 255.611 49.7845C253.354 52.6605 250.438 54.0985 246.843 54.0985C243.518 54.0985 240.792 52.9301 238.655 50.5834C237.726 49.5049 236.877 48.1069 236.078 46.3993C235.289 44.7017 234.88 43.114 234.88 41.6161C234.88 40.0783 235.279 39.3293 236.038 39.3293C236.568 39.3293 237.067 39.9884 237.526 41.2766C238.585 44.2424 239.723 46.3594 240.961 47.6076C242.729 49.5249 244.866 50.4636 247.352 50.4636C249.609 50.4636 251.596 49.5049 253.324 47.5777C255.041 45.6404 255.89 42.9342 255.89 39.4392C255.89 36.1438 255.111 33.897 253.534 32.6487C251.956 31.4005 249.509 30.1722 246.184 28.9639C242.879 27.7457 240.362 26.2378 238.655 24.4403C236.957 22.6429 236.108 19.6172 236.108 15.4031C236.108 11.0692 237.197 7.47431 239.364 4.61834C241.371 1.89219 244.017 0.554073 247.282 0.554073C250.388 0.554073 253.114 1.6725 255.461 3.91933C256 4.63831 256.31 5.25744 256.39 5.75673C256.489 6.28598 256.549 7.64406 256.549 9.82098C256.549 11.4087 256.31 12.2076 255.83 12.2076C255.571 12.2076 255.001 11.4287 254.123 9.84096C253.244 8.27317 252.205 6.9051 250.997 5.77669C249.789 4.6383 248.191 4.06911 246.224 4.06911C244.536 4.06911 243.058 4.88796 241.79 6.50567C240.522 8.15335 239.883 10.2404 239.883 12.7868C239.883 15.3831 240.402 17.3504 241.441 18.6885C242.499 20.0366 243.947 21.115 245.785 21.8839L249.759 23.3419V23.3419ZM283.861 20.7555L288.215 4.50849C288.404 3.53986 288.614 2.82088 288.824 2.3116C289.033 1.80232 289.373 1.53269 289.842 1.53269H295.524C296.343 1.53269 296.753 2.16181 296.753 3.3701C296.753 4.02917 296.343 4.52846 295.524 4.84801C294.795 5.16756 294.306 5.567 294.086 5.97642C293.867 6.4158 293.757 7.28457 293.757 8.57275V48.0869C293.757 48.766 294.306 49.2952 295.394 49.6747C295.884 49.9144 296.213 50.1241 296.403 50.3138C296.583 50.5235 296.673 50.903 296.673 51.5121C296.673 52.5506 296.153 53.0799 295.115 53.0799H289.133C288.135 53.0799 287.635 52.5506 287.635 51.5121C287.635 50.7532 287.975 50.184 288.634 49.7845C289.193 49.425 289.533 49.0256 289.653 48.5962C289.782 48.1568 289.842 47.1583 289.842 45.5905V8.68259L283.511 32.439L280.166 43.3137C279.587 45.3608 279.028 46.3793 278.518 46.3793C278.159 46.3793 277.729 45.7003 277.24 44.3622L272.477 28.225L268.223 11.0692L267.284 7.58415V47.8772C267.364 48.6162 267.923 49.1954 268.932 49.6747C269.871 50.1041 270.33 50.7831 270.33 51.7118C270.33 52.6205 269.94 53.0799 269.132 53.0799H263.869C262.83 53.0799 262.311 52.5506 262.311 51.5121C262.311 50.7332 262.651 50.164 263.37 49.7845C264.029 49.3152 264.418 48.9158 264.538 48.5563C264.658 48.2168 264.718 47.4379 264.718 46.2695V7.43435C264.718 6.266 264.578 5.567 264.308 5.31735C264.029 5.08767 263.539 4.82804 262.84 4.53845C262.141 4.23887 261.802 3.7895 261.802 3.14042C261.802 2.08191 262.201 1.53269 263.02 1.53269H268.932C269.241 1.53269 269.501 1.74239 269.711 2.14183C269.93 2.54126 270.1 3.01061 270.25 3.53986C270.39 4.06911 270.53 4.65828 270.699 5.31735L279.028 36.8528L283.861 20.7555V20.7555ZM306.159 40.937C306.159 44.1325 306.379 46.3594 306.858 47.5876C307.328 48.8159 308.396 49.445 310.054 49.445H316.674C318.472 49.445 320.249 48.1568 322.017 45.5905C322.187 45.3608 322.356 45.0812 322.576 44.7716C322.786 44.4521 322.976 44.2024 323.145 44.0327C323.315 43.8429 323.485 43.773 323.655 43.773C324.124 43.773 324.364 44.1825 324.364 45.0213C324.364 45.3608 324.294 46.0997 324.174 47.2282C324.044 48.3466 323.974 49.1454 323.954 49.5549C323.734 51.3224 323.555 52.321 323.405 52.5806C323.235 52.8702 322.696 53.02 321.747 53.0799H301.166C300.118 53.0799 299.599 52.5506 299.599 51.5121C299.599 50.6333 299.948 50.0542 300.667 49.7845C301.406 49.3152 301.865 48.8559 302.005 48.4265C302.145 47.9671 302.225 47.0484 302.225 45.5905V8.4729C302.225 6.28598 301.755 5.0677 300.797 4.84801C299.998 4.55842 299.599 3.98922 299.599 3.14042C299.599 2.08191 300.118 1.53269 301.166 1.53269H320.739C321.577 1.91215 322.097 3.05055 322.286 4.95786L322.656 9.27176C322.656 10.0307 322.416 10.4102 321.947 10.4102C321.647 10.4102 321.388 10.2204 321.158 9.82098C319.57 6.71537 317.883 5.16757 316.105 5.16757H309.045C307.957 5.16757 307.208 5.58697 306.788 6.39583C306.359 7.22466 306.159 8.66263 306.159 10.7497V23.5716H314.617C315.945 23.5716 316.934 23.0823 317.603 22.0937C317.963 21.4945 318.292 21.1849 318.592 21.1849C319.171 21.1849 319.47 22.8925 319.47 26.2778C319.47 28.3348 319.101 29.3534 318.382 29.3534C318.092 29.3534 317.753 29.0538 317.393 28.4547C316.834 27.6159 315.965 27.2064 314.827 27.2064H306.159V40.937ZM340.88 48.0869C340.88 48.8059 341.35 49.3352 342.308 49.6747C343.107 50.0841 343.506 50.7132 343.506 51.5121C343.506 52.5506 342.987 53.0799 341.949 53.0799H335.747C334.709 53.0799 334.19 52.5506 334.19 51.5121C334.19 50.6134 334.569 50.0342 335.328 49.7845C336.077 49.4051 336.526 48.9957 336.666 48.5163C336.806 48.047 336.896 47.0784 336.896 45.5905V9.50144C336.896 7.75391 336.776 6.60553 336.556 6.03634C336.347 5.44717 335.827 5.16757 334.969 5.16757C333.97 5.16757 332.742 5.39724 331.264 5.86658C330.105 6.30596 328.767 7.4743 327.269 9.3816C327.13 9.61128 326.97 9.84095 326.81 10.0706C326.64 10.2903 326.491 10.48 326.331 10.6298C326.171 10.7796 326.011 10.8595 325.851 10.8595C325.292 10.8595 325.003 10.3303 325.003 9.27176C325.003 8.89229 325.043 8.32311 325.132 7.58415C325.172 7.03493 325.232 6.30596 325.302 5.33733C325.382 4.36869 325.502 3.49992 325.682 2.73101C325.851 1.93213 326.091 1.53269 326.431 1.53269H350.916C351.435 1.78233 351.715 1.93213 351.755 2.01202C351.875 2.21174 351.994 2.67108 352.114 3.39006C352.234 4.08908 352.334 4.89794 352.444 5.82662C352.564 6.73534 352.624 7.24463 352.634 7.34449C352.714 8.1134 352.763 8.72255 352.763 9.16193C352.763 10.1405 352.504 10.6298 351.985 10.6298C351.675 10.6298 351.176 10.1805 350.497 9.27176C349.218 7.58414 348.05 6.4857 347.002 5.97642C345.803 5.4272 344.555 5.16757 343.227 5.16757C342.148 5.16757 341.489 5.48711 341.25 6.14618C341.01 6.79526 340.88 8.06347 340.88 9.97078V48.0869V48.0869ZM382.162 1.53269C383.3 1.53269 383.879 1.95209 383.879 2.78092C383.879 3.43001 383.64 4.0092 383.17 4.50849C382.681 4.93789 382.342 5.29738 382.152 5.58697C381.952 5.88655 381.723 6.47571 381.443 7.34449C380.424 10.5799 378.787 14.7141 376.54 19.717C375.401 22.2634 373.384 26.4974 370.498 32.439V48.0869C370.498 48.766 370.958 49.2952 371.896 49.6747C372.715 50.0841 373.115 50.7132 373.115 51.5121C373.115 52.5506 372.595 53.0799 371.557 53.0799H365.505C364.457 53.0799 363.938 52.5506 363.938 51.5121C363.938 50.6333 364.297 50.0542 365.006 49.7845C365.715 49.3152 366.145 48.8559 366.284 48.4265C366.434 47.9671 366.504 47.0484 366.504 45.5905V32.1994C364.697 28.205 362.849 24.0609 360.932 19.8069C359.025 15.5329 357.437 11.5785 356.179 7.91369C355.749 6.48571 355.14 5.50708 354.331 4.95786C353.472 4.27882 353.053 3.61975 353.053 2.93072C353.053 2.01202 353.502 1.53269 354.401 1.53269H360.962C361.911 1.53269 362.38 2.04197 362.38 3.03057C362.38 3.55982 362.21 3.95927 361.861 4.23887C361.531 4.52846 361.182 4.80806 360.832 5.10764C360.483 5.39723 360.303 5.78669 360.303 6.30596C360.303 7.87374 361.451 11.1092 363.708 15.9823C364.517 17.59 365.495 19.717 366.644 22.3433C367.782 24.9696 368.661 26.9768 369.28 28.3348C371.966 22.7927 374.073 18.329 375.601 14.9438C377.319 10.9394 378.178 8.36305 378.178 7.22466C378.178 6.52565 378.068 5.97642 377.838 5.58697C377.628 5.20751 377.319 4.86798 376.919 4.59836C376.51 4.31876 376.23 4.06912 376.041 3.83944C375.851 3.61975 375.761 3.27023 375.761 2.78092C375.761 1.95209 376.24 1.53269 377.189 1.53269H382.162V1.53269ZM414.187 14.4744C414.187 16.0622 413.807 16.8511 413.048 16.8511C412.609 16.8511 412.199 15.9623 411.78 14.1549C410.781 10.8595 409.623 8.44293 408.285 6.88513C406.607 4.99779 404.7 4.06911 402.583 4.06911C399.048 4.06911 396.042 6.52564 393.546 11.4287C391.219 15.9324 390.061 21.165 390.061 27.2064C390.061 29.8827 390.29 32.6687 390.75 35.5047C391.209 38.3207 391.888 40.7473 392.767 42.7545C394.914 47.6675 398.119 50.144 402.373 50.144C404.201 50.144 405.848 49.5748 407.296 48.4464C408.744 47.328 410.182 45.6005 411.61 43.3137C411.7 43.2238 411.85 42.9941 412.08 42.5947C412.299 42.2053 412.519 41.8957 412.689 41.686C412.889 41.4863 413.098 41.3864 413.348 41.3864C413.617 41.3864 413.857 41.5562 414.047 41.8757C414.237 42.2152 414.326 42.6147 414.326 43.114C414.326 44.0726 413.797 45.3608 412.729 46.9486C411.65 48.5163 410.712 49.6947 409.913 50.4636C407.466 52.8901 404.71 54.0985 401.664 54.0985C398.738 54.0985 396.052 53.0399 393.566 50.9229C391.099 48.786 389.132 45.8102 387.684 41.9955C386.226 38.1709 385.507 33.9169 385.507 29.2435C385.507 24.2706 386.266 19.5572 387.784 15.1535C389.302 10.7297 391.389 7.1947 394.045 4.53845C396.701 1.87222 399.617 0.554073 402.783 0.554073C405.699 0.554073 408.505 1.63255 411.201 3.81947C412.599 5.0677 413.398 5.97642 413.617 6.56559C413.917 7.17473 414.107 8.11339 414.187 9.3816V14.4744V14.4744ZM437.254 1.53269C437.923 1.53269 438.432 1.65253 438.792 1.87222C439.131 2.10189 439.311 2.67109 439.311 3.59977C439.311 6.77529 435.876 15.7426 428.996 30.4918L424.013 41.4962C423.983 41.5562 423.713 42.1254 423.214 43.2238C422.715 44.3222 422.305 45.3009 421.996 46.1697C421.676 47.0284 421.516 47.6675 421.516 48.0869C421.516 48.9158 422.016 49.3352 423.014 49.3352H428.427C430.593 49.3352 432.401 49.1055 433.819 48.6162C435.237 48.1369 436.505 47.0085 437.614 45.231C437.743 45.0013 437.933 44.6817 438.163 44.3023C438.392 43.9228 438.612 43.6232 438.832 43.3536C439.052 43.094 439.251 42.9542 439.451 42.9542C439.88 42.9542 440.1 43.3337 440.1 44.0926C440.1 46.1497 439.91 48.6462 439.531 51.602C439.371 52.5806 438.832 53.0799 437.893 53.0799H419.309C417.562 53.0799 416.663 52.2411 416.663 50.5834C416.663 49.8844 416.753 49.1854 416.903 48.4964C417.063 47.7974 417.292 47.0584 417.592 46.2695C417.901 45.4706 418.141 44.8315 418.331 44.3622L421.227 37.5318L431.412 15.1734C431.972 14.035 432.621 12.4473 433.39 10.4102C434.148 8.38303 434.528 7.00497 434.528 6.30596C434.528 5.46714 433.979 5.05772 432.84 5.05772H428.846C426.949 5.05772 425.411 5.29738 424.232 5.75673C422.385 6.28598 420.957 7.49427 419.959 9.3816C419.899 9.46149 419.799 9.63126 419.659 9.91087C419.529 10.1805 419.399 10.3902 419.269 10.54C419.15 10.6698 419.02 10.7497 418.89 10.7497C418.401 10.7497 418.161 9.8809 418.161 8.13336C418.201 7.87373 418.281 6.90511 418.391 5.2075C418.491 3.51989 418.61 2.54127 418.74 2.23171C418.98 1.78235 419.529 1.53269 420.378 1.53269H437.254V1.53269ZM467.441 10.1805C467.441 8.36304 467.411 7.1947 467.372 6.66545C467.272 5.86658 466.872 5.33733 466.173 5.05772C465.734 4.80807 465.434 4.63831 465.304 4.53845C465.175 4.46855 465.045 4.31876 464.925 4.08909C464.805 3.85941 464.745 3.55982 464.745 3.14042C464.745 2.08191 465.135 1.53269 465.944 1.53269H471.366C472.205 1.53269 472.634 2.08191 472.634 3.14042C472.634 3.80947 472.285 4.34872 471.566 4.84801C470.687 5.35729 470.218 5.84661 470.148 6.30596C470.098 6.85518 470.078 8.02352 470.078 9.82098V50.3537C470.078 51.7318 470.018 52.7004 469.898 53.2696C469.778 53.8188 469.479 54.0985 468.989 54.0985C468.56 54.0985 468.16 53.4194 467.801 52.0513C467.372 50.6733 466.882 49.2753 466.323 47.8972C465.764 46.5092 464.985 44.6418 463.966 42.2751C462.948 39.9085 462.259 38.2808 461.889 37.412C460.801 34.7158 459.682 31.9897 458.564 29.2835C457.456 26.5773 456.387 24.0808 455.369 21.7541C454.35 19.4274 453.291 17.1407 452.173 14.8838C451.055 12.617 449.856 10.4102 448.578 8.25321V46.1497C448.578 47.2681 448.648 48.067 448.788 48.4964C448.938 48.9557 449.287 49.2952 449.866 49.5549C450.805 49.8245 451.274 50.4636 451.274 51.5121C451.274 52.5506 450.905 53.0799 450.146 53.0799H444.164C443.405 53.0799 443.026 52.5506 443.026 51.5121C443.026 50.6134 443.355 50.0342 444.034 49.7845C444.893 49.5049 445.423 49.0656 445.622 48.4764C445.842 47.8972 445.942 46.629 445.942 44.6817V10.1805C445.942 8.44293 445.842 7.1148 445.632 6.24603C445.433 5.39723 444.903 4.80807 444.034 4.50849C443.535 4.29879 443.186 4.12903 442.976 3.97924C442.776 3.81947 442.666 3.47995 442.666 2.93072C442.666 2.01202 443.096 1.53269 443.965 1.53269H448.998C449.517 1.53269 450.805 3.49992 452.872 7.39442C454.939 11.3189 456.657 14.774 458.055 17.7797L460.331 22.553C462.059 26.1779 464.426 31.9298 467.441 39.7986V10.1805V10.1805ZM503.101 1.53269C504.239 1.53269 504.819 1.95209 504.819 2.78092C504.819 3.43001 504.579 4.0092 504.11 4.50849C503.62 4.93789 503.281 5.29738 503.091 5.58697C502.901 5.88655 502.662 6.47571 502.382 7.34449C501.364 10.5799 499.726 14.7141 497.479 19.717C496.341 22.2634 494.323 26.4974 491.438 32.439V48.0869C491.438 48.766 491.897 49.2952 492.836 49.6747C493.654 50.0841 494.064 50.7132 494.064 51.5121C494.064 52.5506 493.535 53.0799 492.496 53.0799H486.445C485.396 53.0799 484.877 52.5506 484.877 51.5121C484.877 50.6333 485.236 50.0542 485.945 49.7845C486.654 49.3152 487.084 48.8559 487.223 48.4265C487.373 47.9671 487.443 47.0484 487.443 45.5905V32.1994C485.636 28.205 483.788 24.0609 481.871 19.8069C479.964 15.5329 478.376 11.5785 477.118 7.91369C476.688 6.48571 476.079 5.50708 475.27 4.95786C474.412 4.27882 473.992 3.61975 473.992 2.93072C473.992 2.01202 474.442 1.53269 475.34 1.53269H481.901C482.85 1.53269 483.319 2.04197 483.319 3.03057C483.319 3.55982 483.149 3.95927 482.8 4.23887C482.47 4.52846 482.131 4.80806 481.771 5.10764C481.422 5.39723 481.252 5.78669 481.252 6.30596C481.252 7.87374 482.39 11.1092 484.657 15.9823C485.456 17.59 486.435 19.717 487.583 22.3433C488.721 24.9696 489.6 26.9768 490.219 28.3348C492.905 22.7927 495.013 18.329 496.54 14.9438C498.258 10.9394 499.117 8.36305 499.117 7.22466C499.117 6.52565 499.007 5.97642 498.777 5.58697C498.567 5.20751 498.258 4.86798 497.858 4.59836C497.449 4.31876 497.169 4.06912 496.98 3.83944C496.79 3.61975 496.7 3.27023 496.7 2.78092C496.7 1.95209 497.179 1.53269 498.128 1.53269H503.101V1.53269Z" fill="#131313"/>
<path d="M141.122 117.589C139.894 117.589 138.596 117.209 137.238 116.44C134.901 114.943 133.034 111.617 131.626 106.485C130.997 104.228 130.438 101.901 129.958 99.5443L129.878 99.2248C129.729 98.1563 129.229 97.4073 128.37 96.9879C125.954 96.0193 123.238 95.2304 120.212 94.6113C119.653 94.4515 119.163 94.3716 118.754 94.3716C118.195 94.3716 117.736 94.6612 117.396 95.2504L116.667 96.2689C110.885 104.777 105.653 110.609 100.959 113.744C99.3015 114.783 97.9435 115.352 96.875 115.472C95.8065 115.592 95.1175 115.642 94.7879 115.642C93.4598 115.642 92.3913 115.322 91.6124 114.693C91.0033 114.094 90.7037 113.435 90.7037 112.706C90.7037 112.346 90.7736 111.977 90.9034 111.587C91.3228 110.409 92.0418 109.291 93.0404 108.232C94.049 107.184 94.9577 106.405 95.7865 105.905C95.9063 105.825 96.0461 105.786 96.1959 105.786C96.4755 105.786 96.6852 105.905 96.835 106.145C96.9049 106.275 96.9449 106.415 96.9449 106.564C96.9449 106.814 96.835 107.034 96.5854 107.213H96.4855C95.6267 107.213 94.728 107.643 93.7893 108.492C92.8507 109.34 92.2415 110.149 91.9519 110.918C91.6524 111.697 91.5025 112.256 91.5025 112.626C91.5025 113.235 91.7123 113.744 92.1416 114.184C92.7508 114.673 93.5597 114.913 94.5682 114.913C96.5354 114.913 98.4727 114.264 100.39 112.945C104.964 109.65 110.136 103.798 115.908 95.3902L116.188 95.0207C116.387 94.6812 116.497 94.4215 116.497 94.2318C116.497 93.9123 116.178 93.7425 115.529 93.6926C112.054 93.1134 108.598 92.8138 105.173 92.7939C103.985 92.7939 102.777 92.8338 101.588 92.9137C97.1146 93.1933 93.0304 94.1419 89.3157 95.7796C89.8249 95.6798 90.1045 95.6298 90.1744 95.6298C90.2443 95.6298 90.2743 95.6398 90.2743 95.6498C90.2743 95.7497 89.9847 95.9394 89.4155 96.219L87.0688 97.1876C86.969 97.2176 86.8691 97.2376 86.7992 97.2376C86.6794 97.2376 86.5795 97.2076 86.4796 97.1577C86.3898 97.0978 86.3398 97.0179 86.3398 96.948C86.3398 96.7782 86.4996 96.6085 86.8292 96.4087C90.8535 94.1419 94.5882 92.8338 98.0134 92.4743C101.449 92.1248 104.125 91.9451 106.032 91.9451C109.257 91.9451 112.503 92.2147 115.798 92.7639L116.547 92.8837L116.787 92.9137C117.066 92.9137 117.316 92.8238 117.566 92.6441C117.895 92.4244 118.155 92.1448 118.335 91.8352C118.534 91.5157 118.684 91.296 118.784 91.1562C123.128 84.3957 125.914 79.6324 127.162 76.8564C127.352 76.4569 127.612 76.2572 127.911 76.2572C128.041 76.2572 128.181 76.2772 128.321 76.3471C128.81 76.6566 129.249 78.6338 129.639 82.2787C129.848 84.2759 129.998 85.8437 130.068 86.9421C130.657 92.0749 131.017 94.9109 131.137 95.4601L131.167 95.7297C131.177 96.1191 131.276 96.4787 131.426 96.8182C131.596 97.1577 131.965 97.4473 132.545 97.6969L132.984 97.8867L133.154 97.9865C134.302 98.5557 136.839 99.8738 140.753 101.941L141.851 102.52C142.191 102.74 142.361 102.989 142.361 103.279C142.361 103.599 142.141 103.768 141.712 103.768C141.252 103.768 141.023 103.728 141.003 103.649C140.983 103.569 140.973 103.509 140.973 103.479L141.003 103.159C140.983 103.109 140.074 102.62 138.286 101.681C136.968 100.982 135.181 100.054 132.914 98.8852C132.365 98.5957 132.025 98.4459 131.896 98.4459C131.756 98.4459 131.676 98.5857 131.676 98.8653C131.676 98.9951 131.716 99.2547 131.796 99.6641C131.846 99.8039 131.866 99.9437 131.866 100.084C133.393 108.911 135.321 114.144 137.667 115.761C138.276 116.101 138.906 116.281 139.575 116.281C140.364 116.281 141.172 116.161 142.001 115.941L142.261 115.911C142.65 115.911 142.89 116.111 142.97 116.52L142.99 116.71C142.99 117.06 142.79 117.309 142.391 117.439C141.981 117.539 141.562 117.589 141.122 117.589V117.589ZM129.149 96.1891C129.279 96.1591 129.349 96.0293 129.349 95.7996L129.269 95.0706C129 93.1034 128.74 90.7168 128.52 87.9407C128.5 87.721 128.49 87.5213 128.47 87.3416C128.45 87.1518 128.44 86.7823 128.42 86.2331C128.321 83.8065 128.181 81.7994 127.981 80.2316C127.911 79.3129 127.831 78.8236 127.761 78.7637C127.701 78.7137 127.661 78.6838 127.642 78.6838C127.512 78.6838 127.282 78.9734 126.962 79.5526C125.534 82.2088 123.128 86.2331 119.753 91.6255L119.413 92.1847C119.183 92.5242 119.064 92.8038 119.064 93.0135C119.064 93.3331 119.323 93.5128 119.823 93.5428L120.432 93.6926C123.657 94.4515 126.323 95.2404 128.44 96.0393C128.68 96.1391 128.89 96.1891 129.05 96.1891H129.149V96.1891ZM144.058 110.669L143.899 110.639C143.319 110.469 143.02 109.8 143.02 108.651C143.02 107.263 143.359 105.266 144.038 102.67C144.847 99.6442 146.245 95.2903 148.212 89.6084C149.081 87.2018 149.601 85.594 149.8 84.8051C149.75 84.8351 149.7 84.885 149.65 84.9449C149.241 85.2245 148.961 85.3544 148.802 85.3544C148.692 85.3544 148.572 85.3244 148.462 85.2645C148.093 85.0548 147.903 84.7652 147.903 84.3857C147.903 83.9963 148.093 83.8066 148.462 83.8066C148.692 83.8066 148.862 83.9064 148.991 84.1261C149.561 83.6867 150.15 82.798 150.769 81.4499C150.799 81.34 150.939 81.0105 151.208 80.4713C151.468 79.922 151.698 79.6524 151.917 79.6524C151.987 79.6524 152.067 79.6924 152.127 79.7423C152.257 79.932 152.317 80.1317 152.317 80.3814C152.317 80.7409 152.177 81.2901 151.887 82.039C151.688 82.4984 151.078 84.3658 150.06 87.6411C148.023 94.2318 146.455 99.754 145.376 104.208C144.857 106.355 144.608 107.793 144.608 108.502C144.608 108.681 144.618 108.821 144.648 108.911C144.697 108.911 145.716 108.432 147.683 107.453C156.011 103.329 160.725 101.182 161.843 101.022C162.063 101.022 162.213 101.142 162.263 101.362C162.263 101.621 162.143 101.771 161.913 101.801C160.405 102.011 158.638 102.67 156.591 103.778C154.544 104.887 152.516 106.065 150.529 107.313C146.994 109.55 144.837 110.669 144.058 110.669V110.669ZM162.952 105.106C163.8 105.106 165.179 103.868 167.086 101.392C167.815 100.433 168.594 99.3446 169.423 98.1063C169.672 97.7469 169.812 97.5072 169.812 97.3774C169.812 97.2675 169.672 97.2076 169.423 97.2076C168.334 97.2076 167.315 97.4972 166.357 98.0564C165.648 98.4958 165.009 99.025 164.46 99.6442C163.022 101.292 162.303 102.77 162.303 104.058C162.303 104.397 162.382 104.677 162.542 104.917C162.642 105.037 162.782 105.106 162.952 105.106V105.106ZM174.855 111.657C174.545 111.657 174.256 111.607 173.956 111.507C172.658 111.098 171.809 109.92 171.39 107.992C170.99 106.065 170.781 103.838 170.781 101.312C170.781 100.343 170.801 99.3146 170.85 98.2262V97.8667L170.87 97.5771C170.87 97.4573 170.86 97.3973 170.831 97.3973C170.761 97.3973 170.611 97.6071 170.391 98.0165C169.482 99.4245 168.584 100.703 167.695 101.841C166.117 103.878 164.919 105.166 164.09 105.706C163.251 106.265 162.612 106.534 162.183 106.534C161.963 106.534 161.793 106.485 161.643 106.385C160.984 105.975 160.645 105.346 160.645 104.527C160.645 103.659 160.905 102.72 161.424 101.701C161.943 100.683 162.622 99.744 163.471 98.8653C165.089 97.1277 166.746 96.249 168.474 96.219C168.973 96.229 169.383 96.2789 169.682 96.3289C169.892 96.3688 170.072 96.3788 170.211 96.3788C170.331 96.3788 170.431 96.3688 170.511 96.3588C170.84 96.249 171.11 95.3902 171.33 93.7825C171.919 90.0877 172.598 86.8722 173.347 84.1461C174.356 80.5511 175.394 78.7537 176.483 78.7537C176.602 78.7537 176.702 78.7637 176.792 78.8036C177.401 79.0533 177.701 79.6624 177.701 80.6011C177.701 81.5997 177.511 82.758 177.132 84.0462C176.463 86.3929 175.684 88.41 174.805 90.0877C174.226 91.3259 173.587 92.5642 172.888 93.8124C172.388 97.3674 172.139 100.373 172.139 102.8C172.139 106.994 172.888 109.5 174.366 110.349C174.675 110.509 175.025 110.589 175.384 110.589C177.741 110.589 181.186 107.453 185.729 101.192C185.819 101.082 185.919 101.022 186.029 101.022C186.289 101.022 186.408 101.162 186.408 101.442C186.408 101.502 186.409 101.561 186.369 101.631C181.515 108.322 177.671 111.657 174.855 111.657V111.657ZM173.227 91.5256C173.876 90.2974 174.455 89.0591 174.985 87.8109C176.343 84.4756 177.022 82.2088 177.022 81.0105C177.022 80.5711 176.892 80.3314 176.652 80.2815C176.083 80.3514 175.394 82.0091 174.595 85.2645C174.066 87.3216 173.627 89.3986 173.227 91.5256V91.5256ZM187.507 105.706C187.896 105.706 188.316 105.516 188.775 105.126C189.424 104.567 189.774 103.639 189.834 102.36C189.834 101.921 189.714 101.502 189.454 101.122C189.284 100.892 189.205 100.733 189.205 100.633C189.205 100.533 189.245 100.453 189.334 100.393C188.565 100.503 187.926 100.922 187.397 101.651C186.878 102.38 186.568 102.989 186.508 103.459C186.428 103.948 186.399 104.238 186.399 104.377C186.399 104.937 186.588 105.346 186.978 105.596C187.137 105.666 187.317 105.706 187.507 105.706V105.706ZM187.028 106.824C186.079 106.824 185.48 106.544 185.23 105.985C185 105.496 184.891 104.967 184.891 104.417C184.891 103.339 185.25 102.26 185.979 101.192C186.748 100.064 187.856 99.3945 189.284 99.1748C189.784 99.1748 190.033 99.3446 190.033 99.6941C190.033 99.8838 189.924 100.074 189.694 100.243C190.303 100.243 191.431 100.413 193.039 100.733C195.576 101.202 197.413 101.442 198.551 101.442C199.011 101.442 199.72 101.352 200.698 101.192C200.918 101.192 201.038 101.282 201.038 101.462C201.038 101.831 200.109 102.021 198.242 102.021C197.443 102.021 196.574 101.961 195.625 101.841C193.518 101.601 191.741 101.312 190.303 100.972C190.513 101.402 190.613 101.851 190.613 102.36C190.533 103.928 190.103 105.067 189.324 105.776C188.535 106.475 187.777 106.824 187.028 106.824V106.824ZM210.305 110.469C209.885 110.469 209.506 110.419 209.166 110.299C208.407 109.96 208.008 109.44 207.958 108.751C207.908 108.052 207.878 107.563 207.878 107.293C207.878 105.815 208.288 103.479 209.086 100.273C209.446 98.9152 209.626 98.1063 209.626 97.8667C209.626 97.7668 209.606 97.7169 209.556 97.7169C209.386 97.7169 208.947 98.1862 208.268 99.1249C207.009 100.703 205.811 102.161 204.673 103.499C202.316 106.305 200.748 107.743 199.969 107.823C199.58 107.773 199.38 107.423 199.38 106.774C199.38 105.995 199.52 105.067 199.79 103.988C200.279 102.081 200.778 100.553 201.278 99.4145C201.437 99.1249 201.587 98.9751 201.697 98.9651C201.827 98.9551 201.887 98.9552 201.907 98.9552C202.106 98.9552 202.256 99.055 202.366 99.2248C202.416 99.3046 202.446 99.4045 202.446 99.5144C202.446 99.6442 202.406 99.804 202.336 99.9837C202.256 100.183 202.126 100.593 201.947 101.242C201.757 101.891 201.577 102.6 201.397 103.369C201.218 104.128 201.098 104.717 201.038 105.116C200.988 105.506 200.958 105.776 200.958 105.905C200.958 106.115 200.998 106.235 201.058 106.245C201.238 106.245 202.136 105.296 203.754 103.379C205.372 101.472 206.4 100.233 206.86 99.6641C207.639 98.6955 208.348 97.8667 208.987 97.1976C209.626 96.5186 210.125 96.1891 210.504 96.1891C210.824 96.1891 210.994 96.6284 210.994 97.4772C210.994 98.2362 210.794 99.4944 210.385 101.262C209.726 104.278 209.386 106.415 209.386 107.683C209.386 108.532 209.576 109.091 209.945 109.33C210.205 109.44 210.504 109.5 210.844 109.5C211.533 109.5 212.412 109.271 213.47 108.821C215.048 108.152 216.726 107.273 218.493 106.175C220.261 105.067 221.818 104.038 223.167 103.059C224.515 102.091 225.343 101.452 225.663 101.142C225.733 101.062 225.823 101.022 225.903 101.022C226.092 101.022 226.212 101.102 226.262 101.242L226.312 101.412C226.312 101.641 225.363 102.46 223.476 103.868C222.068 104.917 220.45 105.995 218.613 107.114C214.948 109.36 212.172 110.469 210.305 110.469V110.469ZM235.1 108.282C232.793 108.282 231.505 106.514 231.265 102.959C231.265 102.4 231.245 102.111 231.205 102.101C231.165 102.091 231.135 102.091 231.115 102.091C231.025 102.091 230.706 102.27 230.167 102.62C229.617 102.959 229.018 103.379 228.369 103.868C226.252 105.456 224.794 106.245 223.975 106.245C223.506 106.245 223.276 106.035 223.276 105.616C223.276 105.316 223.386 104.947 223.616 104.477C224.085 103.489 224.854 102.4 225.943 101.232C227.031 100.054 228.12 99.1748 229.198 98.5757C230.287 97.9865 231.215 97.6969 231.994 97.6969C232.404 97.6969 232.793 97.7568 233.152 97.8867C233.472 98.0265 233.632 98.1263 233.652 98.2262C233.682 98.326 233.692 98.386 233.692 98.4259C233.692 98.6156 233.552 98.7255 233.282 98.7255C233.142 98.7255 232.963 98.6855 232.783 98.6256C232.603 98.5757 232.414 98.5457 232.214 98.5457C231.734 98.5457 231.185 98.7255 230.586 99.055C229.727 99.5443 228.888 100.183 228.07 100.962C227.251 101.741 226.602 102.47 226.102 103.119C225.613 103.778 225.363 104.238 225.363 104.497C225.363 104.577 225.403 104.617 225.483 104.617C225.783 104.617 226.791 104.048 228.519 102.92C228.978 102.62 229.418 102.35 229.857 102.091C230.896 101.412 231.625 101.072 232.044 101.072C232.513 101.072 232.763 101.701 232.793 102.94C233.043 105.825 234.021 107.263 235.759 107.263C236.757 107.263 237.866 106.894 239.054 106.145C240.163 105.466 241.161 104.667 242.08 103.748C242.979 102.82 243.618 101.991 243.987 101.242C244.087 101.102 244.207 101.022 244.357 101.022C244.616 101.022 244.746 101.152 244.746 101.412C244.746 101.462 244.726 101.512 244.696 101.581C244.047 102.82 242.859 104.128 241.151 105.546C239.434 106.954 237.686 107.843 235.899 108.212C235.629 108.262 235.359 108.282 235.1 108.282V108.282ZM282.023 117.539C281.225 117.539 280.745 115.182 280.566 110.469L280.536 108.552C280.536 104.328 280.815 99.8639 281.364 95.1705C281.394 94.9308 281.414 94.7211 281.414 94.5713C281.414 94.2818 281.384 94.082 281.314 93.9322C281.255 93.7825 281.145 93.5927 281.005 93.3431L280.805 93.0335C278.129 88.7196 273.985 86.323 268.373 85.8237C267.544 85.7438 266.675 85.6939 265.776 85.6939C264.788 85.6939 263.739 85.7438 262.641 85.8437C262.152 85.8836 261.792 85.8936 261.572 85.8936C261.113 85.8936 260.893 85.7638 260.893 85.5042C260.893 85.0648 262.032 84.5655 264.289 83.9963C267.754 83.1475 272.277 82.2587 277.869 81.35L281.924 80.7209C282.003 80.7109 282.093 80.6909 282.183 80.681C282.283 80.671 282.393 80.661 282.503 80.621C282.732 80.5711 282.932 80.5412 283.112 80.5212C283.521 80.4713 283.861 80.3714 284.14 80.2216C284.43 80.0718 284.68 79.7223 284.909 79.1931C285.578 77.7451 286.178 77.0261 286.727 77.0261L286.927 77.0561C287.236 77.1859 287.386 77.3956 287.386 77.6852C287.386 77.8649 287.286 78.0447 287.086 78.2444C286.877 78.4341 286.697 78.7537 286.537 79.1931C286.457 79.3728 286.417 79.5226 286.417 79.6524C286.417 79.8921 286.597 80.0219 286.956 80.0219C287.276 80.0219 287.526 79.9819 287.695 79.922C297.452 78.7637 304.132 78.1945 307.757 78.1945C309.425 78.1945 310.264 78.4142 310.264 78.8535C310.264 79.3029 309.604 79.7722 308.296 80.2616C307.418 80.5711 306.988 80.7908 306.988 80.9406L307.058 81.0405C307.088 81.1104 307.108 81.1503 307.108 81.1803C307.108 81.2102 307.088 81.2502 307.058 81.3001C306.868 81.5098 306.629 81.6196 306.349 81.6196C306.06 81.6196 305.84 81.4898 305.67 81.2302C305.58 81.0205 305.53 80.8108 305.53 80.621C305.53 80.2516 305.71 79.932 306.079 79.6524C302.784 79.6924 296.753 80.1717 287.995 81.1103C287.915 81.1103 287.845 81.1104 287.775 81.1303C287.646 81.1503 287.506 81.1503 287.356 81.1503C286.557 81.2402 285.988 81.4699 285.688 81.8393C285.379 82.2088 285.149 82.778 284.979 83.5369L284.869 83.9464C283.921 87.5313 283.302 90.6868 283.012 93.423C283.012 93.5228 283.012 93.6027 282.992 93.6926C282.962 93.8424 282.942 93.9822 282.942 94.1519C282.942 94.2917 282.962 94.4415 282.992 94.5913C283.202 95.3602 283.441 96.5785 283.701 98.2262C283.731 98.346 283.751 98.4658 283.771 98.5957C284.23 101.282 284.48 104.188 284.48 107.293C284.48 111.937 283.821 115.232 282.503 117.169C282.343 117.409 282.183 117.539 282.023 117.539V117.539ZM281.654 92.8438C281.694 92.8438 281.714 92.704 281.734 92.4244C281.974 90.0377 282.493 87.2018 283.302 83.9464C283.591 83.0077 283.741 82.3786 283.741 82.039C283.741 81.7794 283.551 81.6496 283.192 81.6496C283.022 81.6496 282.822 81.6696 282.573 81.7195L281.974 81.7994C272.747 82.9078 266.425 83.9863 263.03 85.0448C264.019 84.9549 264.958 84.915 265.846 84.915C272.806 84.915 277.889 87.3116 281.105 92.0849C281.424 92.5841 281.604 92.8438 281.654 92.8438V92.8438ZM282.623 115.502C282.932 115.502 283.152 114.813 283.302 113.435C283.431 112.057 283.511 110.768 283.521 109.56C283.541 108.352 283.551 107.553 283.551 107.164C283.551 103.019 283.441 100.293 283.232 98.9851C283.092 98.1064 282.962 97.677 282.842 97.677C282.712 97.677 282.593 98.2162 282.473 99.3047C282.223 102.39 282.093 105.316 282.093 108.092C282.093 108.881 282.103 109.66 282.123 110.419C282.213 113.804 282.373 115.502 282.573 115.502H282.623V115.502ZM292.339 105.706C292.728 105.706 293.158 105.516 293.607 105.126C294.256 104.567 294.616 103.639 294.666 102.36C294.666 101.921 294.546 101.502 294.286 101.122C294.126 100.892 294.036 100.733 294.036 100.633C294.036 100.533 294.086 100.453 294.166 100.393C293.397 100.503 292.768 100.922 292.229 101.651C291.71 102.38 291.4 102.989 291.34 103.459C291.26 103.948 291.23 104.238 291.23 104.377C291.23 104.937 291.42 105.346 291.81 105.596C291.969 105.666 292.149 105.706 292.339 105.706V105.706ZM291.86 106.824C290.911 106.824 290.322 106.544 290.062 105.985C289.842 105.496 289.723 104.967 289.723 104.417C289.723 103.339 290.082 102.26 290.811 101.192C291.59 100.064 292.688 99.3945 294.116 99.1748C294.626 99.1748 294.865 99.3446 294.865 99.6941C294.865 99.8838 294.755 100.074 294.526 100.243C295.145 100.243 296.263 100.413 297.881 100.733C300.407 101.202 302.245 101.442 303.393 101.442C303.843 101.442 304.562 101.352 305.53 101.192C305.75 101.192 305.87 101.282 305.87 101.462C305.87 101.831 304.941 102.021 303.074 102.021C302.285 102.021 301.406 101.961 300.457 101.841C298.35 101.601 296.573 101.312 295.135 100.972C295.355 101.402 295.444 101.851 295.444 102.36C295.365 103.928 294.935 105.067 294.156 105.776C293.367 106.475 292.608 106.824 291.86 106.824V106.824ZM304.562 108.841L304.312 108.821C304.052 108.671 303.913 108.462 303.903 108.182C303.883 107.912 303.883 107.743 303.883 107.683C303.883 107.094 303.992 106.285 304.222 105.256C304.651 103.539 305.251 101.821 306.01 100.094C307.078 97.7169 307.937 96.5286 308.566 96.5286C308.626 96.5286 308.686 96.5386 308.736 96.5585C308.965 96.6684 309.075 96.8481 309.075 97.0878C309.075 97.2875 308.955 97.4872 308.716 97.6969C308.137 98.1962 307.428 99.764 306.579 102.41C306.219 103.509 305.94 104.517 305.74 105.416L305.72 105.516C305.61 106.015 305.55 106.425 305.55 106.754C305.55 107.124 305.65 107.313 305.87 107.313C306.03 107.313 306.259 107.194 306.549 106.954C308.027 105.626 310.304 102.64 313.399 98.0165C313.769 97.4573 313.998 97.1277 314.098 97.0179C315.237 95.5599 316.025 94.831 316.475 94.831C316.834 94.831 317.014 95.2204 317.014 95.9893C317.014 97.0179 316.704 98.9252 316.085 101.731C315.736 103.309 315.556 104.278 315.556 104.617C315.556 104.797 315.606 104.887 315.696 104.887C316.055 104.887 317.314 103.928 319.461 102.021C320.749 100.862 321.647 100.293 322.187 100.293C322.666 100.293 322.916 100.703 322.916 101.502C322.916 101.911 322.826 102.45 322.666 103.119C322.486 103.798 322.406 104.397 322.406 104.937C322.406 105.785 322.916 106.225 323.954 106.225C324.783 106.225 325.981 106.005 327.549 105.596C329.756 104.987 331.943 104.258 334.13 103.379C336.297 102.51 337.725 101.791 338.384 101.242C338.484 101.162 338.574 101.122 338.653 101.122C338.843 101.122 338.943 101.202 338.943 101.392C338.943 101.871 337.365 102.78 334.21 104.108C331.923 105.057 329.696 105.875 327.519 106.544C325.342 107.213 323.794 107.553 322.866 107.553L322.526 107.533C321.458 107.273 320.909 106.914 320.869 106.435C320.839 105.975 320.819 105.656 320.819 105.516C320.819 104.837 320.919 104.128 321.118 103.379C321.278 102.7 321.358 102.181 321.358 101.801C321.358 101.701 321.328 101.651 321.258 101.651C321.088 101.651 320.659 101.971 319.98 102.6C318.242 104.088 316.964 105.156 316.135 105.795C315.296 106.435 314.717 106.754 314.388 106.754C314.038 106.754 313.858 106.405 313.858 105.706C313.858 104.867 314.238 103.129 314.997 100.483C315.536 98.5457 315.796 97.3574 315.796 96.948C315.796 96.6983 315.746 96.5785 315.646 96.5785C315.426 96.5785 314.797 97.3075 313.759 98.7654C308.955 105.486 305.89 108.841 304.562 108.841V108.841ZM341.639 105.835C341.06 105.835 340.501 105.786 339.992 105.706C338.753 105.416 338.024 104.657 337.805 103.429C337.805 102.78 338.024 102.101 338.484 101.392C339.073 100.463 339.882 99.7241 340.88 99.1648C341.889 98.6056 342.927 98.326 344.016 98.326C344.246 98.326 344.485 98.336 344.725 98.366C344.985 98.3859 345.144 98.4459 345.214 98.5357C345.264 98.6156 345.304 98.7055 345.304 98.7654C345.304 99.0251 345.044 99.1549 344.525 99.1549H344.455C344.286 99.1149 344.126 99.1049 343.946 99.1049C343.277 99.1049 342.588 99.3346 341.849 99.784C340.95 100.373 340.281 101.002 339.852 101.681C339.422 102.36 339.213 102.92 339.213 103.379C339.213 103.639 339.273 103.888 339.402 104.128C339.702 104.717 340.541 105.007 341.949 105.007H342.288C344.535 104.827 346.962 104.358 349.538 103.599C352.124 102.84 353.832 102.131 354.651 101.462C354.781 101.362 354.901 101.302 354.99 101.292C355.11 101.292 355.17 101.312 355.17 101.362V101.442C355.17 101.502 355.12 101.591 355.02 101.701C354.271 102.35 352.973 103.029 351.126 103.748C349.268 104.457 347.491 104.977 345.793 105.316C344.096 105.656 342.708 105.835 341.639 105.835ZM363.678 104.078C363.688 104.058 363.698 104.028 363.698 104.008C363.758 103.868 363.788 103.698 363.788 103.499C363.788 102.72 363.339 102.211 362.45 101.971C361.671 101.761 360.872 101.641 360.043 101.601C359.045 101.522 358.465 101.402 358.326 101.242C358.276 101.172 358.246 101.102 358.246 101.002C358.246 100.613 358.745 99.8838 359.734 98.8353C360.343 98.0864 360.652 97.667 360.652 97.5471C360.652 97.4972 360.602 97.4772 360.503 97.4772L360.283 97.4972C359.314 97.8068 358.246 98.2761 357.097 98.9052C355.939 99.5243 355.09 100.173 354.561 100.852C354.491 100.932 354.401 100.972 354.281 100.972C354.112 100.972 354.022 100.872 354.022 100.683C354.022 100.423 354.731 99.6941 356.159 98.4958C357.227 97.627 358.336 96.918 359.484 96.3788C360.003 96.1791 360.493 96.0692 360.972 96.0692C361.471 96.0692 361.871 96.199 362.19 96.4587C362.38 96.6284 362.48 96.8182 362.48 97.0578C362.48 97.4373 362.25 97.8867 361.821 98.4259C361.281 98.9552 360.682 99.4844 360.023 100.004C359.314 100.573 358.955 100.902 358.955 101.002C358.965 101.062 359.085 101.102 359.294 101.102C359.484 101.102 359.764 101.082 360.123 101.062C360.483 101.032 360.862 101.022 361.282 101.022C362.55 101.022 363.508 101.162 364.177 101.462C364.787 101.741 365.166 102.221 365.316 102.92C365.346 103.029 365.356 103.159 365.356 103.299C365.356 103.579 365.466 103.718 365.655 103.718C365.715 103.718 365.815 103.688 365.945 103.649C369.859 102.5 373.804 101.651 377.768 101.122C377.988 101.122 378.088 101.212 378.088 101.412C378.088 101.571 378.008 101.671 377.848 101.701C374.093 102.201 370.459 102.959 366.943 103.958C366.804 103.988 366.664 104.028 366.534 104.058C366.264 104.128 366.035 104.208 365.835 104.298C364.817 104.637 363.069 105.236 363.079 105.316C363.099 105.416 363.558 104.358 363.678 104.078V104.078Z" fill="#131313"/>
<path d="M387.075 108.282C384.768 108.282 383.48 106.515 383.24 102.96C383.24 102.4 383.22 102.111 383.181 102.101C383.141 102.091 383.111 102.091 383.091 102.091C383.001 102.091 382.681 102.271 382.142 102.62C381.593 102.96 380.994 103.379 380.345 103.868C378.228 105.456 376.77 106.245 375.951 106.245C375.481 106.245 375.252 106.035 375.252 105.616C375.252 105.316 375.362 104.947 375.591 104.477C376.061 103.489 376.829 102.4 377.918 101.232C379.006 100.054 380.095 99.1749 381.173 98.5757C382.262 97.9866 383.191 97.697 383.969 97.697C384.379 97.697 384.768 97.7569 385.128 97.8867C385.447 98.0265 385.607 98.1264 385.627 98.2262C385.657 98.3261 385.667 98.386 385.667 98.426C385.667 98.6157 385.527 98.7255 385.258 98.7255C385.118 98.7255 384.938 98.6856 384.758 98.6257C384.579 98.5758 384.389 98.5458 384.189 98.5458C383.71 98.5458 383.161 98.7255 382.561 99.0551C381.703 99.5444 380.864 100.183 380.045 100.962C379.226 101.741 378.577 102.47 378.078 103.119C377.588 103.778 377.339 104.238 377.339 104.497C377.339 104.577 377.379 104.617 377.459 104.617C377.758 104.617 378.767 104.048 380.494 102.92C380.954 102.62 381.393 102.35 381.832 102.091C382.871 101.412 383.6 101.072 384.019 101.072C384.489 101.072 384.738 101.701 384.768 102.94C385.018 105.826 385.997 107.263 387.734 107.263C388.733 107.263 389.841 106.894 391.029 106.145C392.138 105.466 393.136 104.667 394.055 103.748C394.954 102.82 395.593 101.991 395.962 101.242C396.062 101.102 396.182 101.022 396.332 101.022C396.592 101.022 396.721 101.152 396.721 101.412C396.721 101.462 396.701 101.512 396.671 101.581C396.022 102.82 394.834 104.128 393.126 105.546C391.409 106.954 389.661 107.843 387.874 108.212C387.604 108.262 387.335 108.282 387.075 108.282V108.282ZM394.794 111.128C394.554 111.128 394.435 110.988 394.435 110.719C394.664 107.313 395.194 104.008 396.042 100.813C395.473 100.453 394.964 100.104 394.505 99.7641C394.475 99.7341 394.435 99.7042 394.395 99.6942C393.516 99.115 393.077 98.5857 393.077 98.0864C393.077 97.697 393.216 97.4673 393.516 97.3974C393.676 97.3674 393.816 97.3575 393.955 97.3575L394.315 97.3774C394.964 97.3575 395.893 97.2576 397.111 97.0579C398.828 91.7254 401.315 86.0235 404.59 79.972C404.84 79.5926 405.08 79.4028 405.289 79.4028L405.439 79.4328C405.659 79.5326 405.779 79.7424 405.779 80.0719L405.759 80.3116C405.429 81.6896 404.76 83.3872 403.741 85.4043L403.672 85.5841L403.152 86.6027C401.485 89.9679 399.957 93.3631 398.569 96.7983C401.225 96.309 403.162 95.9295 404.401 95.6299L405 95.5101C405.1 95.4801 405.149 95.4102 405.169 95.3104C405.199 95.1606 405.309 95.0507 405.489 95.0008C405.779 95.0008 405.918 95.1106 405.918 95.3403C405.918 95.59 405.509 95.8796 404.71 96.2191C403.082 96.9181 400.836 97.6171 397.98 98.3261C397.79 98.8454 397.61 99.3746 397.45 99.9039C398.928 100.873 400.656 101.841 402.623 102.8C404.58 103.748 406.318 104.408 407.826 104.757C409.344 105.107 410.552 105.276 411.461 105.276C412.399 105.276 413.288 105.156 414.137 104.917C415.784 104.408 417.053 103.199 417.941 101.262C418.021 101.112 418.151 101.022 418.301 101.022C418.551 101.022 418.67 101.152 418.67 101.412L418.64 101.552C417.742 103.559 416.573 104.827 415.155 105.356C413.727 105.885 412.359 106.145 411.041 106.145C410.362 106.145 409.673 106.085 408.964 105.985C405.129 105.426 401.125 103.898 396.961 101.392C396.022 104.378 395.443 107.503 395.214 110.769C395.174 111.008 395.044 111.128 394.794 111.128V111.128ZM396.452 99.2548L396.622 98.6456L395.803 98.8154L396.452 99.2548V99.2548Z" fill="#131313"/>
</svg>
