<svg width="534" height="158" viewBox="0 0 534 158" fill="none" xmlns="http://www.w3.org/2000/svg">
<path d="M29.7904 63.5475C32.886 64.7558 34.993 66.0839 36.1314 67.5218C38.2185 70.1282 39.267 73.6532 39.267 78.0769C39.267 82.8003 38.0587 86.7747 35.6321 89.9901C33.3853 92.866 30.4594 94.304 26.8745 94.304C23.5492 94.304 20.823 93.1357 18.686 90.789C17.7574 89.7105 16.9086 88.3125 16.1097 86.6049C15.3108 84.9073 14.9114 83.3195 14.9114 81.8217C14.9114 80.2838 15.3008 79.5349 16.0598 79.5349C16.599 79.5349 17.0983 80.1939 17.5576 81.4821C18.6161 84.4479 19.7545 86.565 20.9828 87.8132C22.7503 89.7305 24.8873 90.6691 27.3838 90.6691C29.6306 90.6691 31.6278 89.7105 33.3453 87.7832C35.0629 85.846 35.9217 83.1398 35.9217 79.6447C35.9217 76.3494 35.1428 74.1025 33.565 72.8543C31.9873 71.6061 29.5407 70.3778 26.2154 69.1695C22.9101 67.9512 20.3936 66.4434 18.686 64.6459C16.9884 62.8484 16.1297 59.8227 16.1297 55.6087C16.1297 51.2748 17.2281 47.6799 19.395 44.8239C21.4022 42.0978 24.0485 40.7596 27.3039 40.7596C30.4195 40.7596 33.1456 41.8781 35.4923 44.1249C36.0315 44.8439 36.3311 45.463 36.421 45.9623C36.5109 46.4915 36.5708 47.8496 36.5708 50.0265C36.5708 51.6143 36.3311 52.4132 35.8618 52.4132C35.6022 52.4132 35.033 51.6343 34.1542 50.0465C33.2754 48.4787 32.2269 47.1107 31.0186 45.9823C29.8103 44.8439 28.2226 44.2747 26.2554 44.2747C24.5677 44.2747 23.0898 45.0935 21.8116 46.7112C20.5434 48.3589 19.9043 50.446 19.9043 52.9924C19.9043 55.5887 20.4236 57.5559 21.4721 58.894C22.5306 60.2421 23.9786 61.3206 25.816 62.0895L29.7904 63.5475ZM44.0402 80.0042L53.5768 45.1634C54.6552 41.9879 55.3842 40.4001 55.7836 40.4001C56.3928 40.4001 57.2016 41.9879 58.2002 45.1634C61.875 55.1094 65.0605 66.723 67.7368 80.0042L69.4443 87.6035C69.7339 88.7419 70.2532 89.6107 71.0121 90.1998C71.4815 90.5993 71.7211 91.0886 71.7211 91.7177C71.7211 92.7562 71.132 93.2855 69.9436 93.2855H64.5413C63.4428 93.2855 62.8936 92.7562 62.8936 91.7177C62.8936 90.9587 63.2631 90.3496 64.022 89.8803C64.7809 89.391 65.1604 88.8018 65.1604 88.0828C65.1604 86.9045 64.3815 83.0899 62.8237 76.599L62.5441 75.2409H48.1544C48.0646 75.7702 47.8149 76.9186 47.4354 78.6961C47.056 80.4736 46.7564 82.0114 46.5267 83.2796C46.2871 84.5678 46.1672 85.5863 46.1672 86.3552C46.1672 87.5935 46.297 88.4223 46.5567 88.8517C46.8163 89.2911 47.1858 89.7505 47.7051 90.1998C48.1944 90.6692 48.444 91.1684 48.444 91.7177C48.444 92.3568 48.2543 92.7762 47.8548 92.9759C47.4654 93.1856 46.7864 93.2855 45.8177 93.2855H43.2513C41.354 93.2855 40.4054 92.7562 40.4054 91.7177C40.4054 91.0686 40.645 90.4994 41.1144 89.9901C41.7535 89.2512 42.2028 88.3424 42.4724 87.264L44.0402 80.0042ZM61.8251 71.6061L61.3258 69.9085L55.2144 48.6785L48.8634 71.6061H61.8251ZM80.1892 85.107C80.1892 87.1741 80.339 88.3824 80.6086 88.7419C81.1878 89.351 82.5059 89.6506 84.533 89.6506H86.8797L91.7129 89.331C92.8713 88.9915 93.73 88.652 94.2693 88.3125C94.8185 87.963 95.4876 87.3239 96.2864 86.3552C97.1053 85.3766 97.6345 84.8873 97.8542 84.8873C98.3635 84.8873 98.6231 85.3367 98.6231 86.2454C98.6231 86.5849 98.5233 87.5735 98.3036 89.1613C98.0939 90.749 97.9341 91.6777 97.8542 91.9174C97.5547 92.8261 96.8257 93.2855 95.6374 93.2855H75.2062C74.2176 93.2855 73.7183 92.7562 73.7183 91.7177C73.7183 90.9787 74.0479 90.4095 74.6969 89.9901C75.4459 89.4609 75.8753 89.0115 76.0051 88.5921C76.1349 88.1927 76.1948 87.264 76.1948 85.796V46.7712C76.1948 46.0522 75.7355 45.5229 74.7968 45.1634C74.2975 44.9138 73.948 44.7141 73.7782 44.5443C73.5985 44.3546 73.4986 43.9751 73.4986 43.346C73.4986 42.2875 74.0279 41.7383 75.0664 41.7383H81.048C82.1364 41.7383 82.6857 42.2875 82.6857 43.346C82.6857 44.065 82.3262 44.6342 81.6172 45.0536C80.998 45.3532 80.5986 45.7526 80.4388 46.2219C80.2791 46.6913 80.1892 47.6599 80.1892 49.1578V85.107ZM104.605 86.9444C101.709 81.9914 100.261 75.6204 100.261 67.8414C100.261 64.1366 100.63 60.6216 101.379 57.3262C102.128 54.0109 103.197 51.125 104.585 48.6485C105.963 46.162 107.63 44.2347 109.578 42.8367C111.525 41.4587 113.692 40.7596 116.078 40.7596C120.742 40.7596 124.586 43.306 127.592 48.4588C130.588 53.3319 132.076 59.7628 132.076 67.7316C132.076 72.7245 131.387 77.2381 130.019 81.2924C128.631 85.3566 126.693 88.5322 124.217 90.8389C121.74 93.1457 118.914 94.304 115.779 94.304C111.275 94.304 107.551 91.8475 104.605 86.9444ZM124.816 83.1598C126.674 79.2852 127.592 74.2723 127.592 68.091C127.592 61.4904 126.674 56.078 124.816 51.864C123.778 49.5572 122.479 47.7597 120.952 46.4516C119.424 45.1434 117.796 44.4844 116.078 44.4844C114.87 44.4844 113.712 44.8239 112.623 45.5029C111.535 46.182 110.536 47.1107 109.658 48.319C108.779 49.5173 108 50.9752 107.311 52.6728C105.603 56.7171 104.744 61.75 104.744 67.7316C104.744 73.9128 105.673 79.0955 107.521 83.3195C109.628 88.2126 112.444 90.6691 115.979 90.6691C117.736 90.6691 119.384 90.0101 120.942 88.682C122.499 87.3638 123.788 85.5064 124.816 83.1598ZM160.066 50.386C160.066 48.5686 160.036 47.4003 159.996 46.871C159.897 46.0721 159.497 45.5429 158.798 45.2633C158.359 45.0136 158.059 44.8439 157.929 44.744C157.8 44.6741 157.67 44.5243 157.55 44.2947C157.43 44.065 157.37 43.7654 157.37 43.346C157.37 42.2875 157.76 41.7383 158.568 41.7383H163.991C164.83 41.7383 165.259 42.2875 165.259 43.346C165.259 44.015 164.9 44.5543 164.191 45.0536C163.312 45.5629 162.842 46.0522 162.773 46.5115C162.723 47.0607 162.703 48.2291 162.703 50.0265V90.5593C162.703 91.9374 162.643 92.906 162.523 93.4752C162.403 94.0244 162.103 94.304 161.614 94.304C161.175 94.304 160.785 93.625 160.416 92.2569C159.996 90.8789 159.507 89.4808 158.948 88.1028C158.389 86.7147 157.61 84.8474 156.591 82.4807C155.563 80.1141 154.884 78.4864 154.514 77.6176C153.426 74.9214 152.307 72.1952 151.189 69.4891C150.08 66.7829 149.012 64.2864 147.993 61.9597C146.975 59.633 145.916 57.3462 144.798 55.0894C143.68 52.8226 142.481 50.6157 141.203 48.4588V86.3552C141.203 87.4737 141.273 88.2725 141.413 88.7019C141.562 89.1613 141.912 89.5008 142.491 89.7604C143.43 90.0301 143.899 90.6691 143.899 91.7177C143.899 92.7562 143.53 93.2855 142.771 93.2855H136.789C136.03 93.2855 135.651 92.7562 135.651 91.7177C135.651 90.8189 135.98 90.2398 136.659 89.9901C137.518 89.7105 138.047 89.2711 138.247 88.682C138.467 88.1028 138.567 86.8346 138.567 84.8873V50.386C138.567 48.6485 138.467 47.3204 138.257 46.4516C138.057 45.6028 137.528 45.0136 136.659 44.7141C136.16 44.5044 135.801 44.3346 135.601 44.1848C135.401 44.025 135.291 43.6855 135.291 43.1363C135.291 42.2176 135.721 41.7383 136.59 41.7383H141.622C142.142 41.7383 143.43 43.7055 145.497 47.6C147.564 51.5244 149.282 54.9796 150.68 57.9853L152.956 62.7586C154.684 66.3834 157.051 72.1353 160.066 80.0042V50.386ZM190.384 88.2925C190.384 88.652 190.453 88.9116 190.603 89.1014C190.743 89.2911 190.923 89.4209 191.132 89.5407C191.362 89.6506 191.582 89.7604 191.812 89.8803C192.57 90.3097 192.95 90.9188 192.95 91.7177C192.95 92.7562 192.431 93.2855 191.382 93.2855H185.261C184.212 93.2855 183.693 92.7562 183.693 91.7177C183.693 90.8189 184.072 90.2398 184.831 89.9901C185.58 89.6106 186.03 89.2012 186.169 88.7219C186.319 88.2526 186.389 87.2839 186.389 85.796V46.7712C186.389 46.0322 185.95 45.5029 185.061 45.1634C184.582 44.9337 184.252 44.734 184.052 44.5243C183.863 44.3146 183.763 43.9352 183.763 43.346C183.763 42.2875 184.262 41.7383 185.261 41.7383H191.312C192.401 41.7383 192.95 42.2875 192.95 43.346C192.95 44.065 192.59 44.6342 191.881 45.0536C191.182 45.5629 190.763 46.0122 190.633 46.3917C190.503 46.7711 190.423 47.7198 190.384 49.2477V69.6788L197.933 58.3049L201.917 51.7441C202.137 51.3447 202.377 50.9353 202.616 50.4959C202.856 50.0865 203.056 49.687 203.245 49.3475C203.425 48.988 203.575 48.5886 203.705 48.1692C203.835 47.7398 203.904 47.3403 203.904 46.9808C203.904 46.4117 203.815 45.9922 203.615 45.7326C203.425 45.483 203.126 45.2433 202.726 45.0136C202.327 44.764 202.047 44.5443 201.847 44.2947C201.658 44.045 201.558 43.6655 201.558 43.1363C201.558 42.2176 202.037 41.7383 202.986 41.7383H209.447C210.595 41.7383 211.174 42.2176 211.174 43.1363C211.174 43.9152 210.815 44.5044 210.086 44.9338C209.267 45.5229 208.658 46.1321 208.238 46.7512C207.819 47.3803 207.18 48.4588 206.331 50.0265L199.061 62.4091L200.14 64.3663C204.693 72.0455 207.899 79.0356 209.746 85.3367C210.116 86.6848 210.455 87.6634 210.745 88.2925C211.034 88.8917 211.514 89.391 212.163 89.7604C212.642 90.09 212.972 90.3496 213.161 90.5593C213.351 90.789 213.451 91.1984 213.451 91.8075C213.451 92.7862 212.922 93.2855 211.883 93.2855H206.181C204.763 93.2855 204.054 92.7562 204.054 91.7177C204.054 91.2983 204.124 90.9887 204.264 90.789C204.404 90.5793 204.643 90.3496 204.953 90.1C205.263 89.8403 205.482 89.5907 205.632 89.371C205.772 89.1613 205.842 88.8018 205.842 88.2925C205.842 87.1142 205.233 85.0371 204.024 82.0713C202.826 79.1155 201.458 76.1297 199.93 73.104C198.402 70.0782 197.194 67.8813 196.295 66.4833L190.384 75.0312V88.2925ZM219.283 86.9444C216.387 81.9914 214.939 75.6204 214.939 67.8414C214.939 64.1366 215.308 60.6216 216.057 57.3262C216.806 54.0109 217.875 51.125 219.263 48.6485C220.631 46.162 222.308 44.2347 224.256 42.8367C226.203 41.4587 228.37 40.7596 230.757 40.7596C235.42 40.7596 239.264 43.306 242.27 48.4588C245.266 53.3319 246.754 59.7628 246.754 67.7316C246.754 75.5705 244.867 85.2768 238.895 90.8389C236.409 93.1457 233.593 94.304 230.457 94.304C225.953 94.304 222.229 91.8475 219.283 86.9444ZM239.494 83.1598C241.352 79.2852 242.27 74.2723 242.27 68.091C242.27 61.4904 241.352 56.078 239.494 51.864C238.456 49.5572 237.157 47.7597 235.63 46.4516C234.102 45.1434 232.474 44.4844 230.757 44.4844C229.548 44.4844 228.39 44.8239 227.301 45.5029C226.213 46.182 225.214 47.1107 224.336 48.319C223.457 49.5173 222.678 50.9752 221.989 52.6728C220.281 56.7171 219.423 61.75 219.423 67.7316C219.423 73.9128 220.351 79.0955 222.199 83.3195C224.296 88.2126 227.122 90.6691 230.657 90.6691C232.414 90.6691 234.062 90.0101 235.62 88.682C237.167 87.3638 238.466 85.5064 239.494 83.1598ZM264.479 63.5475C267.574 64.7558 269.692 66.0839 270.83 67.5218C272.917 70.1282 273.956 73.6532 273.956 78.0769C273.956 82.8003 272.747 86.7747 270.331 89.9901C268.074 92.866 265.158 94.304 261.563 94.304C258.238 94.304 255.512 93.1357 253.375 90.789C252.446 89.7105 251.597 88.3125 250.798 86.6049C250.009 84.9073 249.6 83.3195 249.6 81.8217C249.6 80.2838 249.999 79.5349 250.758 79.5349C251.288 79.5349 251.787 80.1939 252.246 81.4821C253.305 84.4479 254.443 86.565 255.681 87.8132C257.449 89.7305 259.586 90.6691 262.072 90.6691C264.329 90.6691 266.316 89.7105 268.044 87.7832C269.761 85.846 270.61 83.1398 270.61 79.6447C270.61 76.3494 269.831 74.1025 268.254 72.8543C266.676 71.6061 264.229 70.3778 260.904 69.1695C257.599 67.9512 255.082 66.4434 253.375 64.6459C251.677 62.8484 250.828 59.8227 250.828 55.6087C250.828 51.2748 251.917 47.6799 254.084 44.8239C256.091 42.0978 258.737 40.7596 262.002 40.7596C265.108 40.7596 267.834 41.8781 270.181 44.1249C270.72 44.8439 271.03 45.463 271.11 45.9623C271.209 46.4915 271.269 47.8496 271.269 50.0265C271.269 51.6143 271.03 52.4132 270.55 52.4132C270.291 52.4132 269.721 51.6343 268.843 50.0465C267.964 48.4787 266.925 47.1107 265.717 45.9823C264.509 44.8439 262.911 44.2747 260.944 44.2747C259.256 44.2747 257.778 45.0935 256.51 46.7112C255.242 48.3589 254.603 50.446 254.603 52.9924C254.603 55.5887 255.122 57.5559 256.161 58.894C257.219 60.2421 258.667 61.3206 260.505 62.0895L264.479 63.5475ZM298.581 60.9611L302.935 44.7141C303.124 43.7454 303.334 43.0264 303.544 42.5172C303.753 42.0079 304.093 41.7383 304.562 41.7383H310.244C311.063 41.7383 311.473 42.3674 311.473 43.5757C311.473 44.2347 311.063 44.734 310.244 45.0536C309.515 45.3731 309.026 45.7726 308.806 46.182C308.587 46.6214 308.477 47.4901 308.477 48.7783V88.2925C308.477 88.9715 309.026 89.5008 310.114 89.8803C310.604 90.1199 310.933 90.3296 311.123 90.5194C311.303 90.7291 311.393 91.1085 311.393 91.7177C311.393 92.7562 310.873 93.2855 309.835 93.2855H303.853C302.855 93.2855 302.355 92.7562 302.355 91.7177C302.355 90.9587 302.695 90.3895 303.354 89.9901C303.913 89.6306 304.253 89.2312 304.373 88.8018C304.502 88.3624 304.562 87.3638 304.562 85.796V48.8882L298.231 72.6446L294.886 83.5193C294.307 85.5664 293.748 86.5849 293.238 86.5849C292.879 86.5849 292.449 85.9059 291.96 84.5678L287.197 68.4306L282.943 51.2748L282.004 47.7897V88.0828C282.084 88.8218 282.643 89.4009 283.652 89.8803C284.59 90.3097 285.05 90.9887 285.05 91.9174C285.05 92.8261 284.66 93.2855 283.852 93.2855H278.589C277.55 93.2855 277.031 92.7562 277.031 91.7177C277.031 90.9388 277.371 90.3696 278.09 89.9901C278.749 89.5208 279.138 89.1213 279.258 88.7618C279.378 88.4223 279.438 87.6434 279.438 86.4751V47.6399C279.438 46.4716 279.298 45.7726 279.028 45.5229C278.749 45.2932 278.259 45.0336 277.56 44.744C276.861 44.4444 276.522 43.9951 276.522 43.346C276.522 42.2875 276.921 41.7383 277.74 41.7383H283.652C283.961 41.7383 284.221 41.948 284.431 42.3474C284.65 42.7468 284.82 43.2162 284.97 43.7454C285.11 44.2747 285.25 44.8638 285.419 45.5229L293.748 77.0584L298.581 60.9611ZM320.879 81.1426C320.879 84.3381 321.099 86.5649 321.578 87.7932C322.048 89.0215 323.116 89.6506 324.774 89.6506H331.394C333.192 89.6506 334.969 88.3624 336.737 85.796C336.907 85.5664 337.076 85.2867 337.296 84.9772C337.506 84.6576 337.695 84.408 337.865 84.2382C338.035 84.0485 338.205 83.9786 338.374 83.9786C338.844 83.9786 339.084 84.388 339.084 85.2268C339.084 85.5664 339.014 86.3053 338.894 87.4337C338.764 88.5521 338.694 89.351 338.674 89.7604C338.454 91.5279 338.275 92.5265 338.125 92.7862C337.955 93.0758 337.416 93.2255 336.467 93.2855H315.886C314.838 93.2855 314.318 92.7562 314.318 91.7177C314.318 90.8389 314.668 90.2597 315.387 89.9901C316.126 89.5208 316.585 89.0614 316.725 88.632C316.865 88.1727 316.945 87.254 316.945 85.796V48.6785C316.945 46.4916 316.475 45.2733 315.517 45.0536C314.718 44.764 314.318 44.1948 314.318 43.346C314.318 42.2875 314.838 41.7383 315.886 41.7383H335.459C336.297 42.1177 336.817 43.2561 337.006 45.1634L337.376 49.4773C337.376 50.2362 337.136 50.6157 336.667 50.6157C336.367 50.6157 336.108 50.426 335.878 50.0265C334.29 46.9209 332.603 45.3731 330.825 45.3731H323.765C322.677 45.3731 321.928 45.7925 321.508 46.6014C321.079 47.4302 320.879 48.8682 320.879 50.9552V63.7771H329.337C330.665 63.7771 331.654 63.2878 332.323 62.2992C332.683 61.7001 333.012 61.3905 333.312 61.3905C333.891 61.3905 334.19 63.0981 334.19 66.4833C334.19 68.5404 333.821 69.559 333.102 69.559C332.812 69.559 332.473 69.2594 332.113 68.6602C331.554 67.8214 330.685 67.412 329.547 67.412H320.879V81.1426ZM355.6 88.2925C355.6 89.0115 356.07 89.5407 357.028 89.8803C357.827 90.2897 358.226 90.9188 358.226 91.7177C358.226 92.7562 357.707 93.2855 356.669 93.2855H350.467C349.429 93.2855 348.91 92.7562 348.91 91.7177C348.91 90.8189 349.289 90.2398 350.048 89.9901C350.797 89.6106 351.246 89.2012 351.386 88.7219C351.526 88.2526 351.616 87.2839 351.616 85.796V49.707C351.616 47.9595 351.496 46.8111 351.276 46.2419C351.067 45.6527 350.547 45.3731 349.689 45.3731C348.69 45.3731 347.462 45.6028 345.984 46.0721C344.825 46.5115 343.487 47.6799 341.989 49.5872C341.85 49.8168 341.69 50.0465 341.53 50.2762C341.36 50.4959 341.211 50.6856 341.051 50.8354C340.891 50.9852 340.731 51.0651 340.571 51.0651C340.012 51.0651 339.723 50.5358 339.723 49.4773C339.723 49.0979 339.763 48.5287 339.852 47.7897C339.892 47.2405 339.952 46.5115 340.022 45.5429C340.102 44.5743 340.222 43.7055 340.402 42.9366C340.571 42.1377 340.811 41.7383 341.151 41.7383H365.636C366.155 41.9879 366.435 42.1377 366.475 42.2176C366.595 42.4173 366.714 42.8766 366.834 43.5956C366.954 44.2946 367.054 45.1035 367.164 46.0322C367.284 46.9409 367.344 47.4502 367.354 47.5501C367.433 48.319 367.483 48.9281 367.483 49.3675C367.483 50.3461 367.224 50.8354 366.704 50.8354C366.395 50.8354 365.896 50.386 365.217 49.4773C363.938 47.7897 362.77 46.6913 361.722 46.182C360.523 45.6328 359.275 45.3731 357.947 45.3731C356.868 45.3731 356.209 45.6927 355.97 46.3517C355.73 47.0008 355.6 48.269 355.6 50.1763V88.2925ZM396.882 41.7383C398.02 41.7383 398.599 42.1577 398.599 42.9865C398.599 43.6356 398.36 44.2148 397.89 44.7141C397.401 45.1435 397.062 45.5029 396.872 45.7925C396.672 46.0921 396.442 46.6813 396.163 47.5501C395.144 50.7855 393.507 54.9196 391.26 59.9226C390.121 62.469 388.104 66.703 385.218 72.6446V88.2925C385.218 88.9715 385.678 89.5008 386.616 89.8803C387.435 90.2897 387.835 90.9188 387.835 91.7177C387.835 92.7562 387.315 93.2855 386.277 93.2855H380.225C379.177 93.2855 378.658 92.7562 378.658 91.7177C378.658 90.8389 379.017 90.2597 379.726 89.9901C380.435 89.5208 380.864 89.0614 381.004 88.632C381.154 88.1727 381.224 87.254 381.224 85.796V72.4049C379.417 68.4106 377.569 64.2664 375.652 60.0124C373.745 55.7385 372.157 51.7841 370.899 48.1193C370.469 46.6913 369.86 45.7126 369.051 45.1634C368.192 44.4844 367.773 43.8253 367.773 43.1363C367.773 42.2176 368.222 41.7383 369.121 41.7383H375.682C376.63 41.7383 377.1 42.2475 377.1 43.2361C377.1 43.7654 376.93 44.1648 376.581 44.4444C376.251 44.734 375.901 45.0136 375.552 45.3132C375.202 45.6028 375.023 45.9923 375.023 46.5115C375.023 48.0793 376.171 51.3147 378.428 56.1878C379.237 57.7956 380.215 59.9226 381.364 62.5489C382.502 65.1752 383.381 67.1823 384 68.5404C386.686 62.9982 388.793 58.5345 390.321 55.1493C392.039 51.145 392.897 48.5686 392.897 47.4302C392.897 46.7312 392.788 46.182 392.558 45.7925C392.348 45.4131 392.039 45.0735 391.639 44.8039C391.23 44.5243 390.95 44.2747 390.761 44.045C390.571 43.8253 390.481 43.4758 390.481 42.9865C390.481 42.1577 390.96 41.7383 391.909 41.7383H396.882ZM428.907 54.68C428.907 56.2677 428.527 57.0566 427.768 57.0566C427.329 57.0566 426.919 56.1679 426.5 54.3604C425.501 51.0651 424.343 48.6485 423.005 47.0907C421.327 45.2034 419.42 44.2747 417.303 44.2747C413.768 44.2747 410.762 46.7312 408.266 51.6343C405.939 56.1379 404.781 61.3705 404.781 67.412C404.781 70.0882 405.01 72.8743 405.47 75.7103C405.929 78.5263 406.608 80.9529 407.487 82.96C409.634 87.8731 412.839 90.3496 417.093 90.3496C418.921 90.3496 420.568 89.7804 422.016 88.652C423.464 87.5336 424.902 85.806 426.33 83.5193C426.42 83.4294 426.57 83.1997 426.8 82.8003C427.019 82.4108 427.239 82.1012 427.409 81.8915C427.608 81.6918 427.818 81.592 428.068 81.592C428.337 81.592 428.577 81.7617 428.767 82.0813C428.957 82.4208 429.046 82.8202 429.046 83.3195C429.046 84.2782 428.517 85.5664 427.449 87.1541C426.37 88.7219 425.432 89.9002 424.633 90.6691C422.186 93.0957 419.43 94.304 416.384 94.304C413.458 94.304 410.772 93.2455 408.286 91.1285C405.819 88.9915 403.852 86.0157 402.404 82.2011C400.946 78.3765 400.227 74.1225 400.227 69.4491C400.227 64.4761 400.986 59.7628 402.504 55.359C404.022 50.9353 406.109 47.4003 408.765 44.744C411.421 42.0778 414.337 40.7596 417.503 40.7596C420.419 40.7596 423.225 41.8381 425.921 44.025C427.319 45.2733 428.118 46.182 428.337 46.7712C428.637 47.3803 428.827 48.319 428.907 49.5872V54.68ZM451.974 41.7383C452.643 41.7383 453.152 41.8581 453.512 42.0778C453.851 42.3075 454.031 42.8767 454.031 43.8053C454.031 46.9809 450.596 55.9482 443.716 70.6974L438.733 81.7018C438.703 81.7617 438.433 82.3309 437.934 83.4294C437.435 84.5278 437.025 85.5064 436.716 86.3752C436.396 87.234 436.236 87.8731 436.236 88.2925C436.236 89.1213 436.736 89.5407 437.734 89.5407H443.146C445.313 89.5407 447.121 89.3111 448.539 88.8218C449.957 88.3424 451.225 87.214 452.334 85.4365C452.463 85.2069 452.653 84.8873 452.883 84.5078C453.112 84.1284 453.332 83.8288 453.552 83.5592C453.772 83.2996 453.971 83.1598 454.171 83.1598C454.6 83.1598 454.82 83.5392 454.82 84.2981C454.82 86.3552 454.63 88.8517 454.251 91.8075C454.091 92.7862 453.552 93.2855 452.613 93.2855H434.029C432.282 93.2855 431.383 92.4466 431.383 90.789C431.383 90.09 431.473 89.391 431.623 88.7019C431.783 88.0029 432.012 87.264 432.312 86.4751C432.621 85.6762 432.861 85.0371 433.051 84.5678L435.947 77.7374L446.132 55.379C446.692 54.2406 447.341 52.6529 448.11 50.6157C448.868 48.5886 449.248 47.2105 449.248 46.5115C449.248 45.6727 448.699 45.2633 447.56 45.2633H443.566C441.669 45.2633 440.131 45.5029 438.952 45.9623C437.105 46.4915 435.677 47.6998 434.678 49.5872C434.619 49.6671 434.519 49.8368 434.379 50.1164C434.249 50.3861 434.119 50.5957 433.989 50.7455C433.87 50.8754 433.74 50.9552 433.61 50.9552C433.121 50.9552 432.881 50.0865 432.881 48.3389C432.921 48.0793 433.001 47.1107 433.111 45.4131C433.211 43.7255 433.33 42.7468 433.46 42.4373C433.7 41.9879 434.249 41.7383 435.098 41.7383H451.974ZM482.161 50.386C482.161 48.5686 482.131 47.4003 482.091 46.871C481.992 46.0721 481.592 45.5429 480.893 45.2633C480.454 45.0136 480.154 44.8439 480.024 44.744C479.895 44.6741 479.765 44.5243 479.645 44.2947C479.525 44.065 479.465 43.7654 479.465 43.346C479.465 42.2875 479.855 41.7383 480.664 41.7383H486.086C486.925 41.7383 487.354 42.2875 487.354 43.346C487.354 44.015 487.005 44.5543 486.286 45.0536C485.407 45.5629 484.938 46.0522 484.868 46.5115C484.818 47.0607 484.798 48.2291 484.798 50.0265V90.5593C484.798 91.9374 484.738 92.906 484.618 93.4752C484.498 94.0244 484.199 94.304 483.709 94.304C483.28 94.304 482.88 93.625 482.521 92.2569C482.092 90.8789 481.602 89.4808 481.043 88.1028C480.484 86.7147 479.705 84.8474 478.686 82.4807C477.668 80.1141 476.979 78.4864 476.609 77.6176C475.521 74.9214 474.402 72.1952 473.284 69.4891C472.176 66.7829 471.107 64.2864 470.088 61.9597C469.07 59.633 468.011 57.3462 466.893 55.0894C465.775 52.8226 464.576 50.6157 463.298 48.4588V86.3552C463.298 87.4737 463.368 88.2725 463.508 88.7019C463.658 89.1613 464.007 89.5008 464.586 89.7604C465.525 90.0301 465.994 90.6691 465.994 91.7177C465.994 92.7562 465.625 93.2855 464.866 93.2855H458.884C458.125 93.2855 457.746 92.7562 457.746 91.7177C457.746 90.8189 458.075 90.2398 458.754 89.9901C459.613 89.7105 460.143 89.2711 460.342 88.682C460.562 88.1028 460.662 86.8346 460.662 84.8873V50.386C460.662 48.6485 460.562 47.3204 460.352 46.4516C460.153 45.6028 459.623 45.0136 458.754 44.7141C458.255 44.5044 457.906 44.3346 457.696 44.1848C457.496 44.025 457.386 43.6855 457.386 43.1363C457.386 42.2176 457.816 41.7383 458.685 41.7383H463.717C464.237 41.7383 465.525 43.7055 467.592 47.6C469.659 51.5244 471.377 54.9796 472.775 57.9853L475.051 62.7586C476.779 66.3834 479.146 72.1353 482.161 80.0042V50.386ZM517.821 41.7383C518.959 41.7383 519.539 42.1577 519.539 42.9865C519.539 43.6356 519.299 44.2148 518.83 44.7141C518.34 45.1435 518.001 45.5029 517.811 45.7925C517.621 46.0921 517.382 46.6813 517.102 47.5501C516.083 50.7855 514.446 54.9196 512.199 59.9226C511.061 62.469 509.043 66.703 506.158 72.6446V88.2925C506.158 88.9715 506.617 89.5008 507.556 89.8803C508.374 90.2897 508.784 90.9188 508.784 91.7177C508.784 92.7562 508.255 93.2855 507.216 93.2855H501.165C500.116 93.2855 499.597 92.7562 499.597 91.7177C499.597 90.8389 499.956 90.2597 500.665 89.9901C501.374 89.5208 501.804 89.0614 501.943 88.632C502.093 88.1727 502.163 87.254 502.163 85.796V72.4049C500.356 68.4106 498.508 64.2664 496.591 60.0124C494.684 55.7385 493.096 51.7841 491.838 48.1193C491.408 46.6913 490.799 45.7126 489.99 45.1634C489.132 44.4844 488.712 43.8253 488.712 43.1363C488.712 42.2176 489.162 41.7383 490.06 41.7383H496.621C497.57 41.7383 498.039 42.2475 498.039 43.2361C498.039 43.7654 497.869 44.1648 497.52 44.4444C497.19 44.734 496.851 45.0136 496.491 45.3132C496.142 45.6028 495.972 45.9923 495.972 46.5115C495.972 48.0793 497.11 51.3147 499.377 56.1878C500.176 57.7956 501.155 59.9226 502.303 62.5489C503.441 65.1752 504.32 67.1823 504.939 68.5404C507.625 62.9982 509.732 58.5345 511.26 55.1493C512.978 51.145 513.837 48.5686 513.837 47.4302C513.837 46.7312 513.727 46.182 513.497 45.7925C513.287 45.4131 512.978 45.0735 512.578 44.8039C512.169 44.5243 511.889 44.2747 511.7 44.045C511.51 43.8253 511.42 43.4758 511.42 42.9865C511.42 42.1577 511.899 41.7383 512.848 41.7383H517.821Z" fill="white"/>
<path d="M89.6558 133.489H1.71997V1.20557H532.72V133.489H443.566" stroke="white" stroke-width="2.35667" stroke-miterlimit="2.61313"/>
<path d="M155.842 157.794C154.614 157.794 153.316 157.415 151.958 156.646C149.621 155.148 147.754 151.823 146.346 146.69C145.716 144.433 145.157 142.107 144.678 139.75L144.598 139.43C144.448 138.362 143.949 137.613 143.09 137.193C140.674 136.225 137.957 135.436 134.932 134.817C134.373 134.657 133.883 134.577 133.474 134.577C132.915 134.577 132.455 134.867 132.116 135.456L131.387 136.475C125.605 144.982 120.372 150.814 115.679 153.95C114.021 154.988 112.663 155.558 111.595 155.677C110.526 155.797 109.837 155.847 109.508 155.847C108.18 155.847 107.111 155.528 106.332 154.898C105.723 154.299 105.423 153.64 105.423 152.911C105.423 152.552 105.493 152.182 105.623 151.793C106.043 150.615 106.762 149.496 107.76 148.438C108.769 147.389 109.677 146.61 110.506 146.111C110.626 146.031 110.766 145.991 110.916 145.991C111.195 145.991 111.405 146.111 111.555 146.351C111.625 146.48 111.665 146.62 111.665 146.77C111.665 147.02 111.555 147.239 111.305 147.419H111.205C110.346 147.419 109.448 147.848 108.509 148.697C107.57 149.546 106.961 150.355 106.672 151.124C106.372 151.903 106.222 152.462 106.222 152.831C106.222 153.441 106.432 153.95 106.861 154.389C107.471 154.879 108.279 155.118 109.288 155.118C111.255 155.118 113.192 154.469 115.11 153.151C119.683 149.856 124.856 144.004 130.628 135.596L130.907 135.226C131.107 134.887 131.217 134.627 131.217 134.437C131.217 134.118 130.897 133.948 130.248 133.898C126.773 133.319 123.318 133.019 119.893 132.999C118.705 132.999 117.496 133.039 116.308 133.119C111.834 133.399 107.75 134.348 104.035 135.985C104.545 135.885 104.824 135.835 104.894 135.835C104.964 135.835 104.994 135.845 104.994 135.855C104.994 135.955 104.704 136.145 104.135 136.425L101.789 137.393C101.689 137.423 101.589 137.443 101.519 137.443C101.399 137.443 101.299 137.413 101.199 137.363C101.109 137.303 101.06 137.223 101.06 137.154C101.06 136.984 101.219 136.814 101.549 136.614C105.573 134.348 109.308 133.039 112.733 132.68C116.168 132.33 118.844 132.151 120.752 132.151C123.977 132.151 127.223 132.42 130.518 132.969L131.267 133.089L131.507 133.119C131.786 133.119 132.036 133.029 132.285 132.85C132.615 132.63 132.875 132.35 133.054 132.041C133.254 131.721 133.404 131.502 133.504 131.362C137.848 124.601 140.634 119.838 141.882 117.062C142.072 116.662 142.331 116.463 142.631 116.463C142.761 116.463 142.9 116.483 143.04 116.553C143.53 116.862 143.969 118.839 144.358 122.484C144.568 124.481 144.718 126.049 144.788 127.148C145.377 132.28 145.736 135.116 145.856 135.666L145.886 135.935C145.896 136.325 145.996 136.684 146.146 137.024C146.316 137.363 146.685 137.653 147.264 137.902L147.704 138.092L147.873 138.192C149.022 138.761 151.558 140.079 155.473 142.146L156.571 142.726C156.911 142.945 157.08 143.195 157.08 143.485C157.08 143.804 156.861 143.974 156.431 143.974C155.972 143.974 155.742 143.934 155.722 143.854C155.702 143.774 155.692 143.714 155.692 143.684L155.722 143.365C155.702 143.315 154.794 142.826 153.006 141.887C151.688 141.188 149.901 140.259 147.634 139.091C147.085 138.801 146.745 138.651 146.615 138.651C146.475 138.651 146.396 138.791 146.396 139.071C146.396 139.201 146.435 139.46 146.515 139.87C146.565 140.01 146.585 140.149 146.585 140.289C148.113 149.117 150.04 154.349 152.387 155.967C152.996 156.307 153.625 156.486 154.294 156.486C155.083 156.486 155.892 156.366 156.721 156.147L156.981 156.117C157.37 156.117 157.61 156.316 157.69 156.726L157.71 156.916C157.71 157.265 157.51 157.515 157.11 157.645C156.701 157.744 156.282 157.794 155.842 157.794ZM143.869 136.395C143.999 136.365 144.069 136.235 144.069 136.005L143.989 135.276C143.719 133.309 143.46 130.922 143.24 128.146C143.22 127.927 143.21 127.727 143.19 127.547C143.17 127.357 143.16 126.988 143.14 126.439C143.04 124.012 142.9 122.005 142.701 120.437C142.631 119.518 142.551 119.029 142.481 118.969C142.421 118.919 142.381 118.889 142.361 118.889C142.231 118.889 142.002 119.179 141.682 119.758C140.254 122.414 137.848 126.439 134.472 131.831L134.133 132.39C133.903 132.73 133.783 133.009 133.783 133.219C133.783 133.539 134.043 133.718 134.542 133.748L135.151 133.898C138.377 134.657 141.043 135.446 143.16 136.245C143.4 136.345 143.609 136.395 143.769 136.395H143.869ZM158.778 150.874L158.618 150.844C158.039 150.674 157.74 150.005 157.74 148.857C157.74 147.469 158.079 145.472 158.758 142.875C159.567 139.85 160.965 135.496 162.932 129.814C163.801 127.407 164.32 125.8 164.52 125.011C164.47 125.041 164.42 125.091 164.37 125.151C163.961 125.43 163.681 125.56 163.521 125.56C163.412 125.56 163.292 125.53 163.182 125.47C162.812 125.26 162.623 124.971 162.623 124.591C162.623 124.202 162.812 124.012 163.182 124.012C163.411 124.012 163.581 124.112 163.711 124.332C164.28 123.892 164.869 123.004 165.489 121.655C165.519 121.546 165.658 121.216 165.928 120.677C166.188 120.128 166.417 119.858 166.637 119.858C166.707 119.858 166.787 119.898 166.847 119.948C166.976 120.138 167.036 120.337 167.036 120.587C167.036 120.946 166.897 121.496 166.607 122.245C166.407 122.704 165.798 124.571 164.78 127.847C162.742 134.437 161.175 139.96 160.096 144.413C159.577 146.56 159.327 147.998 159.327 148.707C159.327 148.887 159.337 149.027 159.367 149.117C159.417 149.117 160.436 148.637 162.403 147.659C170.731 143.535 175.445 141.388 176.563 141.228C176.783 141.228 176.932 141.348 176.982 141.567C176.982 141.827 176.862 141.977 176.633 142.007C175.125 142.216 173.357 142.875 171.31 143.984C169.263 145.092 167.236 146.271 165.249 147.519C161.714 149.756 159.557 150.874 158.778 150.874ZM177.671 145.312C178.52 145.312 179.898 144.074 181.806 141.597C182.535 140.639 183.313 139.55 184.142 138.312C184.392 137.952 184.532 137.713 184.532 137.583C184.532 137.473 184.392 137.413 184.142 137.413C183.054 137.413 182.035 137.703 181.077 138.262C180.368 138.701 179.728 139.231 179.179 139.85C177.741 141.497 177.022 142.975 177.022 144.264C177.022 144.603 177.102 144.883 177.262 145.122C177.362 145.242 177.502 145.312 177.671 145.312ZM189.575 151.863C189.265 151.863 188.975 151.813 188.676 151.713C187.378 151.304 186.529 150.125 186.109 148.198C185.71 146.271 185.5 144.044 185.5 141.517C185.5 140.549 185.52 139.52 185.57 138.432V138.072L185.59 137.783C185.59 137.663 185.58 137.603 185.55 137.603C185.48 137.603 185.331 137.813 185.111 138.222C184.202 139.63 183.303 140.908 182.415 142.047C180.837 144.084 179.639 145.372 178.81 145.911C177.971 146.47 177.332 146.74 176.902 146.74C176.683 146.74 176.513 146.69 176.363 146.59C175.704 146.181 175.365 145.552 175.365 144.733C175.365 143.864 175.624 142.925 176.144 141.907C176.663 140.888 177.342 139.95 178.191 139.071C179.808 137.333 181.466 136.455 183.194 136.425C183.693 136.435 184.102 136.484 184.402 136.534C184.612 136.574 184.791 136.584 184.931 136.584C185.051 136.584 185.151 136.574 185.231 136.564C185.56 136.455 185.83 135.596 186.05 133.988C186.639 130.293 187.318 127.078 188.067 124.352C189.075 120.757 190.114 118.959 191.202 118.959C191.322 118.959 191.422 118.969 191.512 119.009C192.121 119.259 192.421 119.868 192.421 120.807C192.421 121.805 192.231 122.964 191.851 124.252C191.182 126.598 190.403 128.616 189.525 130.293C188.945 131.531 188.306 132.77 187.607 134.018C187.108 137.573 186.858 140.579 186.858 143.005C186.858 147.199 187.607 149.706 189.085 150.555C189.395 150.714 189.744 150.794 190.104 150.794C192.46 150.794 195.906 147.659 200.449 141.398C200.539 141.288 200.639 141.228 200.749 141.228C201.008 141.228 201.128 141.368 201.128 141.647C201.128 141.707 201.128 141.767 201.088 141.837C196.235 148.527 192.391 151.863 189.575 151.863ZM187.947 131.731C188.596 130.503 189.175 129.265 189.704 128.016C191.062 124.681 191.741 122.414 191.741 121.216C191.741 120.777 191.612 120.537 191.372 120.487C190.803 120.557 190.114 122.215 189.315 125.47C188.786 127.527 188.346 129.604 187.947 131.731ZM202.227 145.911C202.616 145.911 203.036 145.721 203.495 145.332C204.144 144.773 204.493 143.844 204.553 142.566C204.553 142.127 204.434 141.707 204.174 141.328C204.004 141.098 203.924 140.938 203.924 140.838C203.924 140.738 203.964 140.659 204.054 140.599C203.285 140.709 202.646 141.128 202.117 141.857C201.598 142.586 201.288 143.195 201.228 143.664C201.148 144.154 201.118 144.443 201.118 144.583C201.118 145.142 201.308 145.552 201.697 145.801C201.857 145.871 202.037 145.911 202.227 145.911ZM201.747 147.03C200.799 147.03 200.2 146.75 199.95 146.191C199.72 145.701 199.61 145.172 199.61 144.623C199.61 143.545 199.97 142.466 200.699 141.398C201.468 140.269 202.576 139.6 204.004 139.38C204.503 139.38 204.753 139.55 204.753 139.9C204.753 140.089 204.643 140.279 204.414 140.449C205.023 140.449 206.151 140.619 207.759 140.938C210.295 141.408 212.133 141.647 213.271 141.647C213.73 141.647 214.439 141.557 215.418 141.398C215.638 141.398 215.758 141.487 215.758 141.667C215.758 142.037 214.829 142.226 212.962 142.226C212.163 142.226 211.294 142.166 210.345 142.047C208.238 141.807 206.461 141.517 205.023 141.178C205.232 141.607 205.332 142.057 205.332 142.566C205.252 144.134 204.823 145.272 204.044 145.981C203.255 146.68 202.496 147.03 201.747 147.03ZM225.024 150.674C224.605 150.674 224.226 150.625 223.886 150.505C223.127 150.165 222.728 149.646 222.678 148.957C222.628 148.258 222.598 147.769 222.598 147.499C222.598 146.021 223.007 143.684 223.806 140.479C224.166 139.121 224.345 138.312 224.345 138.072C224.345 137.972 224.325 137.922 224.276 137.922C224.106 137.922 223.666 138.392 222.987 139.33C221.729 140.908 220.531 142.366 219.392 143.704C217.036 146.51 215.468 147.948 214.689 148.028C214.3 147.978 214.1 147.629 214.1 146.98C214.1 146.201 214.24 145.272 214.509 144.194C214.999 142.286 215.498 140.758 215.997 139.62C216.157 139.33 216.307 139.181 216.417 139.171C216.546 139.161 216.606 139.161 216.626 139.161C216.826 139.161 216.976 139.261 217.086 139.43C217.136 139.51 217.166 139.61 217.166 139.72C217.166 139.85 217.126 140.01 217.056 140.189C216.976 140.389 216.846 140.798 216.666 141.447C216.477 142.097 216.297 142.806 216.117 143.574C215.937 144.333 215.817 144.923 215.758 145.322C215.708 145.711 215.678 145.981 215.678 146.111C215.678 146.321 215.718 146.44 215.778 146.45C215.957 146.45 216.856 145.502 218.474 143.584C220.091 141.677 221.12 140.439 221.579 139.87C222.358 138.901 223.067 138.072 223.706 137.403C224.345 136.724 224.845 136.395 225.224 136.395C225.544 136.395 225.714 136.834 225.714 137.683C225.714 138.442 225.514 139.7 225.104 141.467C224.445 144.483 224.106 146.62 224.106 147.888C224.106 148.737 224.296 149.296 224.665 149.536C224.925 149.646 225.224 149.706 225.564 149.706C226.253 149.706 227.131 149.476 228.19 149.027C229.768 148.358 231.445 147.479 233.213 146.381C234.98 145.272 236.538 144.244 237.886 143.265C239.234 142.296 240.063 141.657 240.383 141.348C240.453 141.268 240.543 141.228 240.622 141.228C240.812 141.228 240.932 141.308 240.982 141.447L241.032 141.617C241.032 141.847 240.083 142.666 238.196 144.074C236.788 145.122 235.17 146.201 233.333 147.319C229.668 149.566 226.892 150.674 225.024 150.674ZM249.819 148.488C247.513 148.488 246.225 146.72 245.985 143.165C245.985 142.606 245.965 142.316 245.925 142.306C245.885 142.296 245.855 142.296 245.835 142.296C245.745 142.296 245.426 142.476 244.886 142.826C244.337 143.165 243.738 143.584 243.089 144.074C240.972 145.662 239.514 146.45 238.695 146.45C238.226 146.45 237.996 146.241 237.996 145.821C237.996 145.522 238.106 145.152 238.336 144.683C238.805 143.694 239.574 142.606 240.662 141.438C241.751 140.259 242.839 139.38 243.918 138.781C245.006 138.192 245.935 137.902 246.714 137.902C247.123 137.902 247.513 137.962 247.872 138.092C248.192 138.232 248.352 138.332 248.371 138.432C248.401 138.532 248.411 138.592 248.411 138.631C248.411 138.821 248.272 138.931 248.002 138.931C247.862 138.931 247.682 138.891 247.503 138.831C247.323 138.781 247.133 138.751 246.934 138.751C246.454 138.751 245.905 138.931 245.306 139.261C244.447 139.75 243.608 140.389 242.789 141.168C241.971 141.947 241.321 142.676 240.822 143.325C240.333 143.984 240.083 144.443 240.083 144.703C240.083 144.783 240.123 144.823 240.203 144.823C240.503 144.823 241.511 144.254 243.239 143.125C243.698 142.826 244.137 142.556 244.577 142.296C245.615 141.617 246.344 141.278 246.764 141.278C247.233 141.278 247.483 141.907 247.513 143.145C247.762 146.031 248.741 147.469 250.479 147.469C251.477 147.469 252.586 147.1 253.774 146.351C254.882 145.672 255.881 144.873 256.8 143.954C257.698 143.025 258.337 142.196 258.707 141.447C258.807 141.308 258.927 141.228 259.076 141.228C259.336 141.228 259.466 141.358 259.466 141.617C259.466 141.667 259.446 141.717 259.416 141.787C258.767 143.025 257.578 144.333 255.871 145.751C254.153 147.159 252.406 148.048 250.618 148.418C250.349 148.468 250.079 148.488 249.819 148.488ZM296.743 157.744C295.944 157.744 295.465 155.388 295.285 150.674L295.255 148.757C295.255 144.533 295.535 140.069 296.084 135.376C296.114 135.136 296.134 134.927 296.134 134.777C296.134 134.487 296.104 134.288 296.034 134.138C295.974 133.988 295.864 133.798 295.725 133.549L295.525 133.239C292.849 128.925 288.705 126.529 283.092 126.029C282.264 125.949 281.395 125.899 280.496 125.899C279.508 125.899 278.459 125.949 277.361 126.049C276.871 126.089 276.512 126.099 276.292 126.099C275.833 126.099 275.613 125.969 275.613 125.71C275.613 125.27 276.751 124.771 279.008 124.202C282.473 123.353 286.997 122.464 292.589 121.556L296.643 120.926C296.723 120.916 296.813 120.897 296.903 120.887C297.003 120.877 297.113 120.867 297.223 120.827C297.452 120.777 297.652 120.747 297.832 120.727C298.241 120.677 298.581 120.577 298.86 120.427C299.15 120.277 299.399 119.928 299.629 119.399C300.298 117.951 300.897 117.232 301.447 117.232L301.646 117.262C301.956 117.391 302.106 117.601 302.106 117.891C302.106 118.071 302.006 118.25 301.806 118.45C301.596 118.64 301.417 118.959 301.257 119.399C301.177 119.578 301.137 119.728 301.137 119.858C301.137 120.098 301.317 120.227 301.676 120.227C301.996 120.227 302.245 120.188 302.415 120.128C312.171 118.969 318.852 118.4 322.477 118.4C324.144 118.4 324.983 118.62 324.983 119.059C324.983 119.508 324.324 119.978 323.016 120.467C322.137 120.777 321.708 120.996 321.708 121.146L321.778 121.246C321.808 121.316 321.828 121.356 321.828 121.386C321.828 121.416 321.808 121.456 321.778 121.506C321.588 121.715 321.348 121.825 321.069 121.825C320.779 121.825 320.56 121.695 320.39 121.436C320.3 121.226 320.25 121.016 320.25 120.827C320.25 120.457 320.43 120.138 320.799 119.858C317.504 119.898 311.472 120.377 302.715 121.316C302.635 121.316 302.565 121.316 302.495 121.336C302.365 121.356 302.225 121.356 302.076 121.356C301.277 121.446 300.708 121.675 300.408 122.045C300.098 122.414 299.869 122.984 299.699 123.742L299.589 124.152C298.64 127.737 298.021 130.892 297.732 133.629C297.732 133.728 297.732 133.808 297.712 133.898C297.682 134.048 297.662 134.188 297.662 134.357C297.662 134.497 297.682 134.647 297.712 134.797C297.921 135.566 298.161 136.784 298.421 138.432C298.451 138.552 298.471 138.671 298.491 138.801C298.95 141.487 299.2 144.393 299.2 147.499C299.2 152.142 298.541 155.438 297.223 157.375C297.063 157.615 296.903 157.744 296.743 157.744ZM296.374 133.049C296.414 133.049 296.434 132.91 296.454 132.63C296.693 130.243 297.212 127.407 298.021 124.152C298.311 123.213 298.461 122.584 298.461 122.245C298.461 121.985 298.271 121.855 297.912 121.855C297.742 121.855 297.542 121.875 297.292 121.925L296.693 122.005C287.466 123.113 281.145 124.192 277.75 125.25C278.739 125.16 279.677 125.121 280.566 125.121C287.526 125.121 292.609 127.517 295.824 132.29C296.144 132.79 296.324 133.049 296.374 133.049ZM297.342 155.707C297.652 155.707 297.872 155.018 298.021 153.64C298.151 152.262 298.231 150.974 298.241 149.766C298.261 148.557 298.271 147.759 298.271 147.369C298.271 143.225 298.161 140.499 297.951 139.191C297.812 138.312 297.682 137.883 297.562 137.883C297.432 137.883 297.312 138.422 297.193 139.51C296.943 142.596 296.813 145.522 296.813 148.298C296.813 149.087 296.823 149.866 296.843 150.625C296.933 154.01 297.093 155.707 297.292 155.707H297.342ZM307.059 145.911C307.448 145.911 307.877 145.721 308.327 145.332C308.976 144.773 309.335 143.844 309.385 142.566C309.385 142.127 309.265 141.707 309.006 141.328C308.846 141.098 308.756 140.938 308.756 140.838C308.756 140.738 308.806 140.659 308.886 140.599C308.117 140.709 307.488 141.128 306.949 141.857C306.429 142.586 306.12 143.195 306.06 143.664C305.98 144.154 305.95 144.443 305.95 144.583C305.95 145.142 306.14 145.552 306.529 145.801C306.689 145.871 306.869 145.911 307.059 145.911ZM306.579 147.03C305.631 147.03 305.041 146.75 304.782 146.191C304.562 145.701 304.442 145.172 304.442 144.623C304.442 143.545 304.802 142.466 305.531 141.398C306.31 140.269 307.408 139.6 308.836 139.38C309.345 139.38 309.585 139.55 309.585 139.9C309.585 140.089 309.475 140.279 309.246 140.449C309.865 140.449 310.983 140.619 312.601 140.938C315.127 141.408 316.965 141.647 318.113 141.647C318.562 141.647 319.281 141.557 320.25 141.398C320.47 141.398 320.589 141.487 320.589 141.667C320.589 142.037 319.661 142.226 317.793 142.226C317.005 142.226 316.126 142.166 315.177 142.047C313.07 141.807 311.293 141.517 309.855 141.178C310.074 141.607 310.164 142.057 310.164 142.566C310.084 144.134 309.655 145.272 308.876 145.981C308.087 146.68 307.328 147.03 306.579 147.03ZM319.281 149.047L319.032 149.027C318.772 148.877 318.632 148.667 318.622 148.388C318.602 148.118 318.602 147.948 318.602 147.888C318.602 147.299 318.712 146.49 318.942 145.462C319.371 143.744 319.97 142.027 320.729 140.299C321.798 137.922 322.657 136.734 323.286 136.734C323.346 136.734 323.406 136.744 323.455 136.764C323.685 136.874 323.795 137.054 323.795 137.293C323.795 137.493 323.675 137.693 323.435 137.902C322.856 138.402 322.147 139.97 321.299 142.616C320.939 143.714 320.659 144.723 320.46 145.622L320.44 145.721C320.33 146.221 320.27 146.63 320.27 146.96C320.27 147.329 320.37 147.519 320.589 147.519C320.749 147.519 320.979 147.399 321.269 147.159C322.746 145.831 325.023 142.846 328.119 138.222C328.488 137.663 328.718 137.333 328.818 137.223C329.956 135.766 330.745 135.037 331.195 135.037C331.554 135.037 331.734 135.426 331.734 136.195C331.734 137.223 331.424 139.131 330.805 141.937C330.456 143.515 330.276 144.483 330.276 144.823C330.276 145.002 330.326 145.092 330.416 145.092C330.775 145.092 332.033 144.134 334.18 142.226C335.468 141.068 336.367 140.499 336.906 140.499C337.386 140.499 337.635 140.908 337.635 141.707C337.635 142.117 337.546 142.656 337.386 143.325C337.206 144.004 337.126 144.603 337.126 145.142C337.126 145.991 337.635 146.43 338.674 146.43C339.503 146.43 340.701 146.211 342.269 145.801C344.476 145.192 346.663 144.463 348.85 143.584C351.017 142.716 352.444 141.997 353.104 141.447C353.203 141.368 353.293 141.328 353.373 141.328C353.563 141.328 353.663 141.408 353.663 141.597C353.663 142.077 352.085 142.985 348.929 144.313C346.643 145.262 344.416 146.081 342.239 146.75C340.062 147.419 338.514 147.759 337.585 147.759L337.246 147.739C336.177 147.479 335.628 147.119 335.588 146.64C335.558 146.181 335.538 145.861 335.538 145.721C335.538 145.042 335.638 144.333 335.838 143.584C335.998 142.905 336.078 142.386 336.078 142.007C336.078 141.907 336.048 141.857 335.978 141.857C335.808 141.857 335.379 142.176 334.7 142.806C332.962 144.293 331.684 145.362 330.855 146.001C330.016 146.64 329.437 146.96 329.107 146.96C328.758 146.96 328.578 146.61 328.578 145.911C328.578 145.072 328.958 143.335 329.717 140.689C330.256 138.751 330.515 137.563 330.515 137.154C330.515 136.904 330.466 136.784 330.366 136.784C330.146 136.784 329.517 137.513 328.478 138.971C323.675 145.691 320.609 149.047 319.281 149.047ZM356.359 146.041C355.78 146.041 355.221 145.991 354.711 145.911C353.473 145.622 352.744 144.863 352.524 143.634C352.524 142.985 352.744 142.306 353.203 141.597C353.793 140.669 354.601 139.93 355.6 139.37C356.609 138.811 357.647 138.532 358.736 138.532C358.965 138.532 359.205 138.542 359.445 138.572C359.704 138.592 359.864 138.651 359.934 138.741C359.984 138.821 360.024 138.911 360.024 138.971C360.024 139.231 359.764 139.36 359.245 139.36H359.175C359.005 139.32 358.845 139.311 358.666 139.311C357.997 139.311 357.308 139.54 356.569 139.99C355.67 140.579 355.001 141.208 354.571 141.887C354.142 142.566 353.932 143.125 353.932 143.584C353.932 143.844 353.992 144.094 354.122 144.333C354.422 144.923 355.261 145.212 356.669 145.212H357.008C359.255 145.032 361.681 144.563 364.258 143.804C366.844 143.045 368.552 142.336 369.371 141.667C369.5 141.567 369.62 141.507 369.71 141.497C369.83 141.497 369.89 141.517 369.89 141.567V141.647C369.89 141.707 369.84 141.797 369.74 141.907C368.991 142.556 367.693 143.235 365.846 143.954C363.988 144.663 362.211 145.182 360.513 145.522C358.815 145.861 357.427 146.041 356.359 146.041ZM378.398 144.283C378.408 144.264 378.418 144.234 378.418 144.214C378.478 144.074 378.508 143.904 378.508 143.704C378.508 142.925 378.058 142.416 377.17 142.176C376.391 141.967 375.592 141.847 374.763 141.807C373.764 141.727 373.185 141.607 373.045 141.447C372.995 141.378 372.966 141.308 372.966 141.208C372.966 140.818 373.465 140.089 374.453 139.041C375.063 138.292 375.372 137.873 375.372 137.753C375.372 137.703 375.322 137.683 375.222 137.683L375.003 137.703C374.034 138.012 372.966 138.482 371.817 139.111C370.659 139.73 369.81 140.379 369.281 141.058C369.211 141.138 369.121 141.178 369.001 141.178C368.831 141.178 368.741 141.078 368.741 140.888C368.741 140.629 369.451 139.9 370.878 138.701C371.947 137.833 373.055 137.124 374.204 136.584C374.723 136.385 375.212 136.275 375.692 136.275C376.191 136.275 376.59 136.405 376.91 136.664C377.1 136.834 377.2 137.024 377.2 137.263C377.2 137.643 376.97 138.092 376.54 138.631C376.001 139.161 375.402 139.69 374.743 140.209C374.034 140.778 373.674 141.108 373.674 141.208C373.684 141.268 373.804 141.308 374.014 141.308C374.204 141.308 374.483 141.288 374.843 141.268C375.202 141.238 375.582 141.228 376.001 141.228C377.269 141.228 378.228 141.368 378.897 141.667C379.506 141.947 379.886 142.426 380.036 143.125C380.065 143.235 380.075 143.365 380.075 143.505C380.075 143.784 380.185 143.924 380.375 143.924C380.435 143.924 380.535 143.894 380.665 143.854C384.579 142.706 388.524 141.857 392.488 141.328C392.708 141.328 392.807 141.418 392.807 141.617C392.807 141.777 392.728 141.877 392.568 141.907C388.813 142.406 385.178 143.165 381.663 144.164C381.523 144.194 381.384 144.234 381.254 144.264C380.984 144.333 380.755 144.413 380.555 144.503C379.536 144.843 377.789 145.442 377.799 145.522C377.819 145.622 378.278 144.563 378.398 144.283Z" fill="white"/>
<path d="M401.795 148.488C399.488 148.488 398.2 146.72 397.96 143.165C397.96 142.606 397.94 142.316 397.9 142.306C397.86 142.296 397.83 142.296 397.81 142.296C397.72 142.296 397.401 142.476 396.862 142.826C396.312 143.165 395.713 143.585 395.064 144.074C392.947 145.662 391.489 146.45 390.67 146.45C390.201 146.45 389.971 146.241 389.971 145.821C389.971 145.522 390.081 145.152 390.311 144.683C390.78 143.694 391.549 142.606 392.638 141.438C393.726 140.259 394.815 139.38 395.893 138.781C396.982 138.192 397.91 137.903 398.689 137.903C399.099 137.903 399.488 137.962 399.847 138.092C400.167 138.232 400.327 138.332 400.347 138.432C400.377 138.532 400.387 138.592 400.387 138.632C400.387 138.821 400.247 138.931 399.977 138.931C399.837 138.931 399.658 138.891 399.478 138.831C399.298 138.781 399.109 138.751 398.909 138.751C398.429 138.751 397.88 138.931 397.281 139.261C396.422 139.75 395.583 140.389 394.765 141.168C393.946 141.947 393.297 142.676 392.797 143.325C392.308 143.984 392.058 144.443 392.058 144.703C392.058 144.783 392.098 144.823 392.178 144.823C392.478 144.823 393.486 144.254 395.214 143.125C395.673 142.826 396.113 142.556 396.552 142.296C397.591 141.617 398.32 141.278 398.739 141.278C399.208 141.278 399.458 141.907 399.488 143.145C399.738 146.031 400.716 147.469 402.454 147.469C403.452 147.469 404.561 147.1 405.749 146.351C406.858 145.672 407.856 144.873 408.775 143.954C409.674 143.025 410.313 142.196 410.682 141.448C410.782 141.308 410.902 141.228 411.052 141.228C411.311 141.228 411.441 141.358 411.441 141.617C411.441 141.667 411.421 141.717 411.391 141.787C410.742 143.025 409.554 144.333 407.846 145.751C406.129 147.159 404.381 148.048 402.594 148.418C402.324 148.468 402.054 148.488 401.795 148.488ZM409.514 151.334C409.274 151.334 409.154 151.194 409.154 150.924C409.384 147.519 409.913 144.214 410.762 141.018C410.193 140.659 409.684 140.309 409.224 139.97C409.194 139.94 409.154 139.91 409.114 139.9C408.236 139.321 407.796 138.791 407.796 138.292C407.796 137.903 407.936 137.673 408.236 137.603C408.395 137.573 408.535 137.563 408.675 137.563L409.035 137.583C409.684 137.563 410.612 137.463 411.831 137.263C413.548 131.931 416.035 126.229 419.31 120.178C419.56 119.798 419.799 119.608 420.009 119.608L420.159 119.638C420.378 119.738 420.498 119.948 420.498 120.277L420.478 120.517C420.149 121.895 419.48 123.593 418.461 125.61L418.391 125.79L417.872 126.808C416.204 130.173 414.677 133.569 413.289 137.004C415.945 136.515 417.882 136.135 419.12 135.835L419.719 135.716C419.819 135.686 419.869 135.616 419.889 135.516C419.919 135.366 420.029 135.256 420.209 135.206C420.498 135.206 420.638 135.316 420.638 135.546C420.638 135.796 420.229 136.085 419.43 136.425C417.802 137.124 415.555 137.823 412.699 138.532C412.51 139.051 412.33 139.58 412.17 140.109C413.648 141.078 415.376 142.047 417.343 143.005C419.3 143.954 421.038 144.613 422.545 144.963C424.063 145.312 425.272 145.482 426.18 145.482C427.119 145.482 428.008 145.362 428.856 145.122C430.504 144.613 431.772 143.405 432.661 141.468C432.741 141.318 432.871 141.228 433.021 141.228C433.27 141.228 433.39 141.358 433.39 141.617L433.36 141.757C432.461 143.764 431.293 145.032 429.875 145.562C428.447 146.091 427.079 146.351 425.761 146.351C425.082 146.351 424.393 146.291 423.684 146.191C419.849 145.632 415.845 144.104 411.681 141.597C410.742 144.583 410.163 147.709 409.933 150.974C409.893 151.214 409.763 151.334 409.514 151.334ZM411.172 139.46L411.341 138.851L410.522 139.021L411.172 139.46Z" fill="white"/>
</svg>
