<svg width="92" height="14" viewBox="0 0 92 14" fill="none" xmlns="http://www.w3.org/2000/svg">
<path fill-rule="evenodd" clip-rule="evenodd" d="M43.5857 1.75004L43.5944 1.75003C44.4966 1.7555 45.3604 2.11504 46 2.75086C46.3137 2.43594 46.6862 2.18555 47.0964 2.01391C47.5122 1.8399 47.9584 1.7503 48.4092 1.7503C48.8599 1.7503 49.3062 1.8399 49.722 2.01391C50.1374 2.18771 50.514 2.44226 50.8302 2.76278C51.4731 3.40881 51.8341 4.28315 51.8341 5.1946C51.8341 6.10632 51.4729 6.98091 50.8297 7.62699C50.8295 7.62716 50.8293 7.62734 50.8292 7.62751L46.4141 12.0775C46.3046 12.1879 46.1555 12.25 46 12.25C45.8445 12.25 45.6954 12.1879 45.5859 12.0775L41.1703 7.62694C40.6923 7.14573 40.3669 6.53421 40.2348 5.86895C40.1027 5.20368 40.1697 4.51422 40.4276 3.88688C40.6854 3.25954 41.1226 2.72219 41.6843 2.3421C42.2461 1.962 42.9074 1.75606 43.5857 1.75004ZM50.4158 3.17338L50.0004 3.58283C49.7925 3.37193 49.5448 3.20445 49.2716 3.09014C48.9985 2.97583 48.7053 2.91696 48.4092 2.91696C48.1131 2.91696 47.8199 2.97583 47.5467 3.09014C47.2736 3.20445 47.0258 3.37193 46.818 3.58283L46.8129 3.58803C46.6925 3.70715 46.5875 3.84091 46.5006 3.98623C46.3952 4.16226 46.2052 4.27002 46 4.27002C45.7949 4.27002 45.6048 4.16226 45.4995 3.98623C45.4125 3.84091 45.3076 3.70712 45.1872 3.588L45.1845 3.58526C44.762 3.16163 44.1898 2.92148 43.5917 2.91671C43.1445 2.92153 42.7085 3.05771 42.3381 3.30836C41.9664 3.55983 41.6772 3.91533 41.5067 4.33037C41.3361 4.74542 41.2917 5.20156 41.3791 5.64169C41.4665 6.08183 41.6818 6.4864 41.9981 6.80476L46 10.8385L50.0026 6.80419C50.4283 6.37672 50.6674 5.79795 50.6674 5.1946C50.6674 4.59126 50.4283 4.01249 50.0026 3.58501L50.4158 3.17338Z" fill="#D9CDBA"/>
<line x1="58.5" y1="7.5" x2="91.5" y2="7.5" stroke="#BCA785" stroke-linecap="round" fill="#D9CDBA"/>
<line x1="0.5" y1="7.5" x2="33.5" y2="7.5" stroke="#BCA785" stroke-linecap="round" fill="#D9CDBA"/>
</svg>
