<svg width="184" height="28" viewBox="0 0 184 28" fill="none" xmlns="http://www.w3.org/2000/svg">
<line x1="117" y1="13" x2="183" y2="13" stroke="white" stroke-width="2" stroke-linecap="round"/>
<line x1="1" y1="13" x2="67" y2="13" stroke="white" stroke-width="2" stroke-linecap="round"/>
<path fill-rule="evenodd" clip-rule="evenodd" d="M80.3334 8.16659C80.3334 6.87792 81.378 5.83325 82.6667 5.83325H101.333C102.622 5.83325 103.667 6.87792 103.667 8.16659V10.4999C103.667 11.7886 102.622 12.8333 101.333 12.8333H82.6667C81.378 12.8333 80.3334 11.7886 80.3334 10.4999V8.16659ZM101.333 8.16659H82.6667V10.4999H101.333V8.16659Z" fill="white"/>
<path fill-rule="evenodd" clip-rule="evenodd" d="M81.5 11.6667C81.5 11.0223 82.0223 10.5 82.6667 10.5H101.333C101.978 10.5 102.5 11.0223 102.5 11.6667V21C102.5 21.6188 102.254 22.2123 101.817 22.6499C101.379 23.0875 100.786 23.3333 100.167 23.3333H83.8333C83.2145 23.3333 82.621 23.0875 82.1834 22.6499C81.7458 22.2123 81.5 21.6188 81.5 21V11.6667ZM83.8333 12.8333V21H100.167V12.8333H83.8333Z" fill="white"/>
<path fill-rule="evenodd" clip-rule="evenodd" d="M86.1813 3.31622C86.2828 2.67994 86.8809 2.24646 87.5172 2.348C88.7082 2.53809 89.8349 3.01563 90.7998 3.73927C91.7647 4.46292 92.5386 5.41085 93.0545 6.50099C93.3302 7.08338 93.0815 7.77896 92.4991 8.05461C91.9167 8.33026 91.2211 8.08159 90.9455 7.49919C90.5918 6.75186 90.0612 6.10202 89.3998 5.60594C88.7383 5.10986 87.9659 4.78249 87.1495 4.65218C86.5132 4.55063 86.0797 3.9525 86.1813 3.31622Z" fill="white"/>
<path fill-rule="evenodd" clip-rule="evenodd" d="M97.8187 3.31622C97.9202 3.9525 97.4868 4.55063 96.8505 4.65218C96.034 4.78249 95.2616 5.10986 94.6002 5.60594C93.9387 6.10202 93.4082 6.75186 93.0545 7.49919C92.7788 8.08159 92.0832 8.33026 91.5008 8.05461C90.9185 7.77896 90.6698 7.08338 90.9454 6.50099C91.4614 5.41085 92.2353 4.46292 93.2002 3.73927C94.165 3.01563 95.2917 2.53809 96.4827 2.348C97.119 2.24646 97.7172 2.67994 97.8187 3.31622Z" fill="white"/>
<path fill-rule="evenodd" clip-rule="evenodd" d="M92 5.83325C92.6444 5.83325 93.1667 6.35559 93.1667 6.99992V22.1666C93.1667 22.8109 92.6444 23.3333 92 23.3333C91.3557 23.3333 90.8334 22.8109 90.8334 22.1666V6.99992C90.8334 6.35559 91.3557 5.83325 92 5.83325Z" fill="white"/>
</svg>
