<svg width="211" height="32" viewBox="0 0 211 32" fill="none" xmlns="http://www.w3.org/2000/svg">
<path fill-rule="evenodd" clip-rule="evenodd" d="M99.6244 4.00003L99.6443 4C101.707 4.01251 103.681 4.8343 105.143 6.2876C105.86 5.5678 106.711 4.99548 107.649 4.60315C108.599 4.20542 109.619 4.0006 110.65 4.0006C111.68 4.0006 112.7 4.20542 113.65 4.60315C114.6 5.00042 115.461 5.58224 116.183 6.31486C117.653 7.7915 118.478 9.78999 118.478 11.8733C118.478 13.9572 117.652 15.9563 116.182 17.433C116.182 17.4334 116.181 17.4338 116.181 17.4342L106.089 27.6057C105.839 27.858 105.498 28 105.143 28C104.787 28 104.447 27.858 104.196 27.6057L94.1036 17.4329C93.0111 16.333 92.2673 14.9353 91.9653 13.4147C91.6633 11.8941 91.8166 10.3182 92.4059 8.88423C92.9952 7.4503 93.9944 6.22207 95.2784 5.35329C96.5624 4.48451 98.0742 4.01378 99.6244 4.00003ZM115.236 7.25338L114.287 8.18926C113.812 7.7072 113.245 7.32439 112.621 7.06311C111.997 6.80183 111.326 6.66727 110.65 6.66727C109.973 6.66727 109.303 6.80182 108.678 7.06311C108.054 7.32439 107.488 7.7072 107.013 8.18926L107.001 8.20114C106.726 8.47341 106.486 8.77916 106.287 9.11132C106.046 9.51367 105.612 9.75998 105.143 9.75998C104.674 9.75998 104.24 9.51367 103.999 9.11132C103.8 8.77916 103.56 8.47334 103.285 8.20107L103.279 8.1948C102.313 7.22652 101.005 6.6776 99.6381 6.66669C98.616 6.67771 97.6196 6.98898 96.7728 7.5619C95.9233 8.13667 95.2623 8.94926 94.8724 9.89793C94.4825 10.8466 94.3811 11.8892 94.5809 12.8952C94.7807 13.9012 95.2728 14.826 95.9956 15.5537L105.143 24.7735L114.292 15.5524C115.265 14.5753 115.811 13.2524 115.811 11.8733C115.811 10.4942 115.265 9.17133 114.292 8.19425L115.236 7.25338Z" fill="#BCA785"/>
<line x1="133.572" y1="15" x2="209.286" y2="15" stroke="#BCA785" stroke-width="2" stroke-linecap="round"/>
<line x1="1" y1="15" x2="76.7143" y2="15" stroke="#BCA785" stroke-width="2" stroke-linecap="round"/>
</svg>
